G04 (created by PCBNEW-RS274X (2012-01-19 BZR 3256)-stable) date 4/14/2012 10:50:54 AM*
G01*
G70*
G90*
%MOIN*%
G04 Gerber Fmt 3.4, Leading zero omitted, Abs format*
%FSLAX34Y34*%
G04 APERTURE LIST*
%ADD10C,0.006000*%
%ADD11C,0.015000*%
%ADD12R,0.075000X0.075000*%
%ADD13C,0.075000*%
%ADD14R,0.090000X0.090000*%
%ADD15C,0.090000*%
%ADD16C,0.080000*%
%ADD17R,0.080000X0.080000*%
%ADD18C,0.060000*%
%ADD19C,0.163700*%
%ADD20R,0.079100X0.079100*%
%ADD21C,0.079100*%
%ADD22C,0.180000*%
G04 APERTURE END LIST*
G54D10*
G54D11*
X00000Y-18000D02*
X00000Y00000D01*
X55000Y-18000D02*
X00000Y-18000D01*
X55000Y00000D02*
X55000Y-18000D01*
X00000Y00000D02*
X55000Y00000D01*
G54D12*
X13500Y-08750D03*
G54D13*
X12500Y-08750D03*
X12500Y-09750D03*
G54D12*
X06750Y-06750D03*
G54D13*
X05750Y-06750D03*
X05750Y-07750D03*
G54D12*
X01750Y-07250D03*
G54D13*
X02750Y-07250D03*
X02750Y-06250D03*
G54D12*
X20500Y-08750D03*
G54D13*
X19500Y-08750D03*
X19500Y-09750D03*
G54D12*
X08500Y-09500D03*
G54D13*
X09500Y-09500D03*
X09500Y-08500D03*
G54D12*
X15500Y-09250D03*
G54D13*
X16500Y-09250D03*
X16500Y-08250D03*
G54D14*
X15500Y-16750D03*
G54D15*
X16500Y-16750D03*
X17500Y-16750D03*
G54D14*
X06250Y-01250D03*
G54D15*
X05250Y-01250D03*
X04250Y-01250D03*
G54D14*
X26250Y-16750D03*
G54D15*
X27250Y-16750D03*
X28250Y-16750D03*
G54D14*
X28750Y-01250D03*
G54D15*
X27750Y-01250D03*
X26750Y-01250D03*
G54D14*
X04250Y-16750D03*
G54D15*
X05250Y-16750D03*
X06250Y-16750D03*
G54D14*
X17500Y-01250D03*
G54D15*
X16500Y-01250D03*
X15500Y-01250D03*
G54D16*
X20500Y-06750D03*
X15500Y-06750D03*
X15500Y-11500D03*
X20500Y-11500D03*
X13500Y-06750D03*
X08500Y-06750D03*
X06500Y-09250D03*
X01500Y-09250D03*
X33250Y-16750D03*
X33250Y-11750D03*
X01750Y-04750D03*
X06750Y-04750D03*
X08750Y-11500D03*
X13750Y-11500D03*
G54D15*
X06234Y-13000D03*
X05250Y-13000D03*
G54D14*
X04266Y-13000D03*
G54D17*
X23250Y-08250D03*
G54D16*
X23250Y-07250D03*
X24250Y-08250D03*
X24250Y-07250D03*
X25250Y-08250D03*
X25250Y-07250D03*
X26250Y-08250D03*
X26250Y-07250D03*
X27250Y-08250D03*
X27250Y-07250D03*
X28250Y-08250D03*
X28250Y-07250D03*
G54D17*
X51000Y-01000D03*
G54D16*
X51000Y-02000D03*
X50000Y-01000D03*
X50000Y-02000D03*
X49000Y-01000D03*
X49000Y-02000D03*
G54D17*
X34500Y-05250D03*
G54D16*
X35500Y-05250D03*
X36500Y-05250D03*
G54D17*
X31750Y-01000D03*
G54D16*
X31750Y-02000D03*
G54D17*
X34750Y-01000D03*
G54D16*
X34750Y-02000D03*
G54D17*
X42250Y-11000D03*
G54D16*
X43250Y-11000D03*
G54D17*
X40000Y-11000D03*
G54D16*
X39000Y-11000D03*
X38000Y-11000D03*
X37000Y-11000D03*
X36000Y-11000D03*
X35000Y-11000D03*
G54D12*
X53750Y-05250D03*
G54D13*
X52750Y-05250D03*
X51750Y-05250D03*
X50750Y-05250D03*
X50750Y-08250D03*
X51750Y-08250D03*
X52750Y-08250D03*
X53750Y-08250D03*
X44000Y-06500D03*
X43000Y-06500D03*
X42000Y-06500D03*
X41000Y-06500D03*
X40000Y-06500D03*
X39000Y-06500D03*
X38000Y-06500D03*
X37000Y-06500D03*
X36000Y-06500D03*
X35000Y-06500D03*
X34000Y-06500D03*
X33000Y-06500D03*
X32000Y-06500D03*
G54D12*
X45000Y-06500D03*
G54D13*
X32000Y-09500D03*
X33000Y-09500D03*
X34000Y-09500D03*
X35000Y-09500D03*
X36000Y-09500D03*
X37000Y-09500D03*
X38000Y-09500D03*
X39000Y-09500D03*
X40000Y-09500D03*
X41000Y-09500D03*
X42000Y-09500D03*
X43000Y-09500D03*
X44000Y-09500D03*
X45000Y-09500D03*
G54D12*
X34750Y-03750D03*
G54D13*
X31750Y-03750D03*
X45250Y-11000D03*
X46250Y-11000D03*
X23250Y-13250D03*
X23250Y-12250D03*
X24500Y-01000D03*
X24500Y-02000D03*
X13500Y-01000D03*
X13500Y-02000D03*
X11500Y-13250D03*
X10500Y-13250D03*
X52750Y-09500D03*
X51750Y-09500D03*
X38000Y-05250D03*
X39000Y-05250D03*
G54D18*
X48250Y-07500D03*
X48250Y-08500D03*
X48250Y-08000D03*
G54D19*
X47000Y-16250D03*
X42500Y-16250D03*
G54D20*
X43000Y-13750D03*
G54D21*
X43500Y-12750D03*
X44000Y-13750D03*
X44500Y-12750D03*
X45000Y-13750D03*
X45500Y-12750D03*
X46000Y-13750D03*
X46500Y-12750D03*
G54D19*
X39750Y-16250D03*
X35250Y-16250D03*
G54D20*
X35750Y-13750D03*
G54D21*
X36250Y-12750D03*
X36750Y-13750D03*
X37250Y-12750D03*
X37750Y-13750D03*
X38250Y-12750D03*
X38750Y-13750D03*
X39250Y-12750D03*
G54D13*
X37000Y-01000D03*
X39000Y-01000D03*
X41500Y-01000D03*
X40500Y-01000D03*
G54D16*
X30250Y-16750D03*
X30250Y-12750D03*
X48000Y-03750D03*
X52000Y-03750D03*
X31750Y-16750D03*
X31750Y-12750D03*
X12250Y-03500D03*
X08250Y-03500D03*
X23500Y-14500D03*
X19500Y-14500D03*
X13000Y-17000D03*
X09000Y-17000D03*
X09000Y-15750D03*
X13000Y-15750D03*
X12250Y-01000D03*
X08250Y-01000D03*
X08250Y-02250D03*
X12250Y-02250D03*
X23500Y-01000D03*
X19500Y-01000D03*
X19500Y-02250D03*
X23500Y-02250D03*
X23500Y-17000D03*
X19500Y-17000D03*
X19500Y-15750D03*
X23500Y-15750D03*
X28750Y-13250D03*
X24750Y-13250D03*
X28750Y-12000D03*
X24750Y-12000D03*
X40500Y-05250D03*
X44500Y-05250D03*
X42750Y-03750D03*
X46750Y-03750D03*
X23500Y-03500D03*
X19500Y-03500D03*
X13000Y-14500D03*
X09000Y-14500D03*
X28750Y-14500D03*
X24750Y-14500D03*
G54D14*
X38250Y-03000D03*
G54D15*
X39250Y-03000D03*
X40250Y-03000D03*
G54D17*
X15000Y-04750D03*
G54D16*
X16000Y-04750D03*
X17000Y-04750D03*
X18000Y-04750D03*
G54D17*
X43500Y-02000D03*
G54D16*
X44500Y-02000D03*
X45500Y-02000D03*
G54D22*
X01500Y-01500D03*
X53500Y-01500D03*
X53500Y-16500D03*
X01500Y-16500D03*
M02*
