M48
;DRILL file {Pcbnew (2012-01-19 BZR 3256)-stable} date 4/5/2012 1:39:28 AM
;FORMAT={-:-/ absolute / inch / decimal}
FMAT,2
INCH,TZ
T1C0.025
T2C0.028
T3C0.032
T4C0.033
T5C0.035
T6C0.040
T7C0.045
T8C0.120
T9C0.128
%
G90
G05
M72
T1
X2.231Y1.014
X2.380Y0.530
X3.837Y0.761
X3.888Y1.071
T2
X3.950Y1.550
X3.950Y1.500
X3.950Y1.450
T3
X0.150Y0.400
X0.200Y0.700
X0.200Y0.600
X0.250Y0.400
X0.300Y0.700
X0.450Y0.700
X0.450Y0.550
X0.450Y0.400
X0.650Y1.400
X0.650Y0.900
X0.750Y0.700
X0.750Y0.550
X0.750Y0.400
X0.900Y0.100
X0.950Y0.400
X0.950Y0.300
X1.000Y0.100
X1.050Y0.400
X1.200Y0.400
X1.200Y0.250
X1.200Y0.100
X1.400Y1.100
X1.400Y0.600
X1.500Y0.400
X1.500Y0.250
X1.500Y0.100
X1.700Y0.400
X1.700Y0.300
X1.700Y0.100
X1.800Y0.400
X1.800Y0.100
X1.950Y0.400
X1.950Y0.250
X1.950Y0.100
X2.150Y1.100
X2.150Y0.600
X2.250Y0.400
X2.250Y0.250
X2.250Y0.100
X2.450Y1.450
X2.450Y0.400
X2.450Y0.300
X2.450Y0.100
X2.550Y1.450
X2.550Y0.400
X2.550Y0.100
X2.700Y0.400
X2.700Y0.250
X2.700Y0.100
X2.750Y1.450
X2.850Y1.450
X2.900Y1.100
X2.900Y0.600
X3.000Y0.400
X3.000Y0.250
X3.000Y0.100
X3.200Y0.400
X3.200Y0.300
X3.300Y0.400
X3.450Y0.400
X3.450Y0.250
X3.450Y0.100
X3.650Y1.600
X3.650Y1.300
X3.650Y1.100
X3.650Y0.600
X3.750Y0.400
X3.750Y0.250
X3.750Y0.100
X3.950Y0.400
X3.950Y0.300
X4.050Y0.400
X4.200Y1.600
X4.200Y1.450
X4.350Y1.250
X4.400Y1.100
X4.400Y0.600
X4.450Y1.250
X4.500Y1.600
X4.500Y1.450
X4.600Y1.500
X4.600Y1.400
X4.600Y1.300
X4.600Y1.200
X4.600Y1.100
X4.600Y1.000
X4.600Y0.900
X4.600Y0.800
X4.600Y0.700
X4.600Y0.600
X4.600Y0.500
X4.600Y0.400
X4.600Y0.300
X4.600Y0.200
X4.900Y1.500
X4.900Y1.400
X4.900Y1.300
X4.900Y1.200
X4.900Y1.100
X4.900Y1.000
X4.900Y0.900
X4.900Y0.800
X4.900Y0.700
X4.900Y0.600
X4.900Y0.500
X4.900Y0.400
X4.900Y0.300
X4.900Y0.200
X5.150Y0.975
X5.150Y0.850
X5.150Y0.725
X5.450Y0.975
X5.450Y0.850
X5.450Y0.725
X5.500Y1.200
X5.600Y1.200
X5.650Y1.000
X5.650Y0.700
X5.750Y1.000
X5.750Y0.700
X5.850Y1.200
X5.850Y1.000
X5.850Y0.700
X5.950Y1.000
X5.950Y0.700
X6.175Y0.925
X6.175Y0.825
X6.350Y1.200
T4
X1.746Y0.562
X3.273Y0.574
X3.968Y0.573
T5
X5.175Y0.400
X5.225Y0.500
X5.275Y0.400
X5.325Y0.500
X5.375Y0.400
X5.425Y0.500
X5.475Y0.400
X5.525Y0.500
X5.825Y0.400
X5.875Y0.500
X5.925Y0.400
X5.975Y0.500
X6.025Y0.400
X6.075Y0.500
X6.125Y0.400
X6.175Y0.500
T6
X0.200Y1.300
X0.300Y1.300
X0.400Y1.300
X0.850Y1.550
X0.850Y1.450
X0.950Y1.550
X0.950Y1.450
X0.950Y1.000
X1.050Y1.550
X1.050Y1.450
X1.050Y1.000
X1.150Y1.550
X1.150Y1.450
X1.150Y1.000
X1.400Y1.550
X1.400Y1.450
X1.500Y1.550
X1.500Y1.450
X1.600Y1.550
X1.600Y1.450
X1.700Y1.550
X1.700Y1.450
X1.700Y1.000
X1.800Y1.550
X1.800Y1.450
X1.800Y1.000
X1.900Y1.550
X1.900Y1.450
X1.900Y1.000
X2.100Y1.550
X2.100Y1.350
X2.200Y1.550
X2.200Y1.350
X2.450Y1.000
X2.550Y1.000
X2.650Y1.000
X3.200Y1.500
X3.200Y1.000
X3.300Y1.500
X3.300Y1.000
X3.400Y1.500
X3.400Y1.000
X3.950Y1.250
X3.950Y1.000
X4.050Y1.250
X4.050Y1.000
X4.150Y1.000
X5.050Y1.300
X5.050Y1.200
X5.050Y1.100
X5.100Y1.550
X5.200Y1.550
X5.300Y1.550
X5.400Y1.550
X5.500Y1.550
X5.600Y1.550
X5.850Y1.550
X5.850Y1.450
X5.950Y1.550
X5.950Y1.450
X6.050Y1.550
X6.050Y1.450
X6.375Y0.925
X6.375Y0.825
T7
X0.202Y1.000
X0.300Y1.000
X0.398Y1.000
X0.952Y0.700
X1.050Y0.700
X1.148Y0.700
X1.702Y0.700
X1.800Y0.700
X1.898Y0.700
X2.452Y0.700
X2.550Y0.700
X2.648Y0.700
X3.202Y0.700
X3.300Y0.700
X3.398Y0.700
X3.952Y0.700
X4.050Y0.700
X4.148Y0.700
T8
X0.150Y1.550
X0.150Y0.150
X6.450Y1.550
X6.450Y0.150
T9
X5.125Y0.150
X5.575Y0.150
X5.775Y0.150
X6.225Y0.150
T0
M30
