M48
;DRILL file {Pcbnew (2012-01-19 BZR 3256)-stable} date 4/14/2012 10:51:37 AM
;FORMAT={-:-/ absolute / metric / decimal}
FMAT,2
METRIC,TZ
T1C0.635
T2C0.711
T3C0.813
T4C0.838
T5C0.899
T6C1.016
T7C1.143
T8C3.048
T9C3.251
%
G90
G05
M71
T1
X48.405Y-30.833
X55.222Y-30.704
X68.326Y-26.157
X77.589Y-29.677
X80.879Y-34.379
X82.725Y-27.087
X95.227Y-14.171
T2
X122.555Y-19.050
X122.555Y-20.320
X122.555Y-21.590
T3
X3.810Y-23.495
X4.445Y-12.065
X4.445Y-18.415
X6.985Y-15.875
X6.985Y-18.415
X14.605Y-17.145
X14.605Y-19.685
X16.510Y-23.495
X17.145Y-12.065
X17.145Y-17.145
X20.955Y-2.540
X20.955Y-5.715
X20.955Y-8.890
X21.590Y-17.145
X21.590Y-24.130
X22.225Y-29.210
X22.860Y-36.830
X22.860Y-40.005
X22.860Y-43.180
X24.130Y-21.590
X24.130Y-24.130
X26.670Y-33.655
X29.210Y-33.655
X31.115Y-2.540
X31.115Y-5.715
X31.115Y-8.890
X31.750Y-22.225
X31.750Y-24.765
X33.020Y-36.830
X33.020Y-40.005
X33.020Y-43.180
X34.290Y-2.540
X34.290Y-5.080
X34.290Y-17.145
X34.290Y-22.225
X34.925Y-29.210
X39.370Y-17.145
X39.370Y-23.495
X39.370Y-29.210
X41.910Y-20.955
X41.910Y-23.495
X49.530Y-2.540
X49.530Y-5.715
X49.530Y-8.890
X49.530Y-22.225
X49.530Y-24.765
X49.530Y-36.830
X49.530Y-40.005
X49.530Y-43.180
X52.070Y-17.145
X52.070Y-22.225
X52.070Y-29.210
X59.055Y-31.115
X59.055Y-33.655
X59.690Y-2.540
X59.690Y-5.715
X59.690Y-8.890
X59.690Y-36.830
X59.690Y-40.005
X59.690Y-43.180
X62.230Y-2.540
X62.230Y-5.080
X62.865Y-30.480
X62.865Y-33.655
X62.865Y-36.830
X73.025Y-30.480
X73.025Y-33.655
X73.025Y-36.830
X76.835Y-32.385
X76.835Y-42.545
X80.645Y-9.525
X80.645Y-32.385
X80.645Y-42.545
X81.280Y-16.510
X81.280Y-24.130
X83.820Y-16.510
X83.820Y-24.130
X84.455Y-29.845
X84.455Y-42.545
X86.360Y-16.510
X86.360Y-24.130
X88.265Y-9.525
X88.900Y-16.510
X88.900Y-24.130
X91.440Y-16.510
X91.440Y-24.130
X93.980Y-2.540
X93.980Y-16.510
X93.980Y-24.130
X96.520Y-13.335
X96.520Y-16.510
X96.520Y-24.130
X99.060Y-2.540
X99.060Y-13.335
X99.060Y-16.510
X99.060Y-24.130
X101.600Y-16.510
X101.600Y-24.130
X102.870Y-2.540
X102.870Y-13.335
X104.140Y-16.510
X104.140Y-24.130
X105.410Y-2.540
X106.680Y-16.510
X106.680Y-24.130
X108.585Y-9.525
X109.220Y-16.510
X109.220Y-24.130
X111.760Y-16.510
X111.760Y-24.130
X113.030Y-13.335
X114.300Y-16.510
X114.300Y-24.130
X114.935Y-27.940
X117.475Y-27.940
X118.745Y-9.525
X121.920Y-9.525
X128.905Y-13.335
X128.905Y-20.955
X131.445Y-13.335
X131.445Y-20.955
X131.445Y-24.130
X132.080Y-9.525
X133.985Y-13.335
X133.985Y-20.955
X133.985Y-24.130
X136.525Y-13.335
X136.525Y-20.955
T4
X32.253Y-18.590
X35.156Y-35.969
X54.148Y-25.550
X73.012Y-16.106
T5
X90.805Y-34.925
X92.075Y-32.385
X93.345Y-34.925
X94.615Y-32.385
X95.885Y-34.925
X97.155Y-32.385
X98.425Y-34.925
X99.695Y-32.385
X109.220Y-34.925
X110.490Y-32.385
X111.760Y-34.925
X113.030Y-32.385
X114.300Y-34.925
X115.570Y-32.385
X116.840Y-34.925
X118.110Y-32.385
T6
X10.795Y-3.175
X10.795Y-42.545
X13.335Y-3.175
X13.335Y-42.545
X15.875Y-3.175
X15.875Y-42.545
X38.100Y-12.065
X39.370Y-3.175
X39.370Y-42.545
X40.640Y-12.065
X41.910Y-3.175
X41.910Y-42.545
X43.180Y-12.065
X44.450Y-3.175
X44.450Y-42.545
X45.720Y-12.065
X59.055Y-18.415
X59.055Y-20.955
X61.595Y-18.415
X61.595Y-20.955
X64.135Y-18.415
X64.135Y-20.955
X66.675Y-18.415
X66.675Y-20.955
X66.675Y-42.545
X67.945Y-3.175
X69.215Y-18.415
X69.215Y-20.955
X69.215Y-42.545
X70.485Y-3.175
X71.755Y-18.415
X71.755Y-20.955
X71.755Y-42.545
X73.025Y-3.175
X80.645Y-2.540
X80.645Y-5.080
X87.630Y-13.335
X88.265Y-2.540
X88.265Y-5.080
X88.900Y-27.940
X90.170Y-13.335
X91.440Y-27.940
X92.710Y-13.335
X93.980Y-27.940
X96.520Y-27.940
X97.155Y-7.620
X99.060Y-27.940
X99.695Y-7.620
X101.600Y-27.940
X102.235Y-7.620
X107.315Y-27.940
X109.855Y-27.940
X110.490Y-5.080
X113.030Y-5.080
X115.570Y-5.080
X124.460Y-2.540
X124.460Y-5.080
X127.000Y-2.540
X127.000Y-5.080
X129.540Y-2.540
X129.540Y-5.080
T7
X10.836Y-33.020
X13.335Y-33.020
X15.834Y-33.020
T8
X3.810Y-3.810
X3.810Y-41.910
X135.890Y-3.810
X135.890Y-41.910
T9
X89.535Y-41.275
X100.965Y-41.275
X107.950Y-41.275
X119.380Y-41.275
T0
M30
