G04 (created by PCBNEW-RS274X (2012-01-19 BZR 3256)-stable) date 4/5/2012 1:39:19 AM*
G01*
G70*
G90*
%MOIN*%
G04 Gerber Fmt 3.4, Leading zero omitted, Abs format*
%FSLAX34Y34*%
G04 APERTURE LIST*
%ADD10C,0.006000*%
%ADD11R,0.055000X0.055000*%
%ADD12C,0.055000*%
%ADD13R,0.070000X0.070000*%
%ADD14C,0.070000*%
%ADD15C,0.060000*%
%ADD16R,0.060000X0.060000*%
%ADD17C,0.040000*%
%ADD18C,0.160000*%
%ADD19C,0.143700*%
%ADD20R,0.059100X0.059100*%
%ADD21C,0.059100*%
%ADD22C,0.035000*%
%ADD23C,0.050000*%
%ADD24C,0.008000*%
%ADD25C,0.010000*%
G04 APERTURE END LIST*
G54D10*
G54D11*
X25500Y04000D03*
G54D12*
X24500Y04000D03*
X24500Y03000D03*
G54D11*
X03000Y07000D03*
G54D12*
X02000Y07000D03*
X02000Y06000D03*
G54D11*
X40500Y04000D03*
G54D12*
X39500Y04000D03*
X39500Y03000D03*
G54D11*
X10500Y04000D03*
G54D12*
X09500Y04000D03*
X09500Y03000D03*
G54D11*
X18000Y04000D03*
G54D12*
X17000Y04000D03*
X17000Y03000D03*
G54D11*
X33000Y04000D03*
G54D12*
X32000Y04000D03*
X32000Y03000D03*
G54D13*
X24500Y10000D03*
G54D14*
X25500Y10000D03*
X26500Y10000D03*
G54D13*
X02000Y13000D03*
G54D14*
X03000Y13000D03*
X04000Y13000D03*
G54D13*
X09500Y10000D03*
G54D14*
X10500Y10000D03*
X11500Y10000D03*
G54D13*
X32000Y10000D03*
G54D14*
X33000Y10000D03*
X34000Y10000D03*
G54D13*
X39500Y10000D03*
G54D14*
X40500Y10000D03*
X41500Y10000D03*
G54D13*
X17000Y10000D03*
G54D14*
X18000Y10000D03*
X19000Y10000D03*
G54D13*
X32000Y15000D03*
G54D14*
X33000Y15000D03*
X34000Y15000D03*
G54D15*
X36500Y06000D03*
X36500Y11000D03*
X14000Y06000D03*
X14000Y11000D03*
X21500Y06000D03*
X21500Y11000D03*
X44000Y06000D03*
X44000Y11000D03*
X58500Y12000D03*
X63500Y12000D03*
X06500Y09000D03*
X06500Y14000D03*
X29000Y06000D03*
X29000Y11000D03*
G54D12*
X04500Y05500D03*
X07500Y05500D03*
X07500Y07000D03*
X04500Y07000D03*
X54500Y08500D03*
X51500Y08500D03*
X30000Y04000D03*
X27000Y04000D03*
X04500Y04000D03*
X07500Y04000D03*
X45000Y16000D03*
X42000Y16000D03*
X12000Y01000D03*
X15000Y01000D03*
X12000Y02500D03*
X15000Y02500D03*
X19500Y01000D03*
X22500Y01000D03*
X19500Y02500D03*
X22500Y02500D03*
X27000Y01000D03*
X30000Y01000D03*
X27000Y02500D03*
X30000Y02500D03*
X15000Y04000D03*
X12000Y04000D03*
X37500Y04000D03*
X34500Y04000D03*
X51500Y09750D03*
X54500Y09750D03*
X54500Y07250D03*
X51500Y07250D03*
X45000Y14500D03*
X42000Y14500D03*
X22500Y04000D03*
X19500Y04000D03*
X34500Y02500D03*
X37500Y02500D03*
X37500Y01000D03*
X34500Y01000D03*
G54D14*
X02016Y10000D03*
X03000Y10000D03*
G54D13*
X03984Y10000D03*
G54D14*
X24516Y07000D03*
X25500Y07000D03*
G54D13*
X26484Y07000D03*
G54D14*
X09516Y07000D03*
X10500Y07000D03*
G54D13*
X11484Y07000D03*
G54D14*
X32016Y07000D03*
X33000Y07000D03*
G54D13*
X33984Y07000D03*
G54D14*
X17016Y07000D03*
X18000Y07000D03*
G54D13*
X18984Y07000D03*
G54D14*
X39516Y07000D03*
X40500Y07000D03*
G54D13*
X41484Y07000D03*
G54D16*
X14000Y14500D03*
G54D15*
X14000Y15500D03*
X15000Y14500D03*
X15000Y15500D03*
X16000Y14500D03*
X16000Y15500D03*
X17000Y14500D03*
X17000Y15500D03*
X18000Y14500D03*
X18000Y15500D03*
X19000Y14500D03*
X19000Y15500D03*
G54D16*
X08500Y14500D03*
G54D15*
X08500Y15500D03*
X09500Y14500D03*
X09500Y15500D03*
X10500Y14500D03*
X10500Y15500D03*
X11500Y14500D03*
X11500Y15500D03*
G54D16*
X58500Y14500D03*
G54D15*
X58500Y15500D03*
X59500Y14500D03*
X59500Y15500D03*
X60500Y14500D03*
X60500Y15500D03*
G54D16*
X50500Y13000D03*
G54D15*
X50500Y12000D03*
X50500Y11000D03*
G54D16*
X22000Y15500D03*
G54D15*
X21000Y15500D03*
G54D16*
X22000Y13500D03*
G54D15*
X21000Y13500D03*
G54D16*
X63750Y09250D03*
G54D15*
X63750Y08250D03*
G54D16*
X51000Y15500D03*
G54D15*
X52000Y15500D03*
X53000Y15500D03*
X54000Y15500D03*
X55000Y15500D03*
X56000Y15500D03*
G54D11*
X59500Y10000D03*
G54D12*
X58500Y10000D03*
X57500Y10000D03*
X56500Y10000D03*
X56500Y07000D03*
X57500Y07000D03*
X58500Y07000D03*
X59500Y07000D03*
X49000Y03000D03*
X49000Y04000D03*
X49000Y05000D03*
X49000Y06000D03*
X49000Y07000D03*
X49000Y08000D03*
X49000Y09000D03*
X49000Y10000D03*
X49000Y11000D03*
X49000Y12000D03*
X49000Y13000D03*
X49000Y14000D03*
X49000Y15000D03*
G54D11*
X49000Y02000D03*
G54D12*
X46000Y15000D03*
X46000Y14000D03*
X46000Y13000D03*
X46000Y12000D03*
X46000Y11000D03*
X46000Y10000D03*
X46000Y09000D03*
X46000Y08000D03*
X46000Y07000D03*
X46000Y06000D03*
X46000Y05000D03*
X46000Y04000D03*
X46000Y03000D03*
X46000Y02000D03*
G54D11*
X36500Y13000D03*
G54D12*
X36500Y16000D03*
G54D16*
X25500Y14500D03*
G54D15*
X24500Y14500D03*
G54D16*
X27500Y14500D03*
G54D15*
X28500Y14500D03*
G54D12*
X55000Y12000D03*
X56000Y12000D03*
X24500Y01000D03*
X25500Y01000D03*
X17000Y01000D03*
X18000Y01000D03*
X09000Y01000D03*
X10000Y01000D03*
X01500Y04000D03*
X02500Y04000D03*
X61750Y09250D03*
X61750Y08250D03*
X43500Y12500D03*
X44500Y12500D03*
G54D17*
X39500Y14500D03*
X39500Y15500D03*
X39500Y15000D03*
G54D16*
X39500Y12500D03*
G54D15*
X40500Y12500D03*
G54D18*
X01500Y15500D03*
X01500Y01500D03*
X64500Y01500D03*
X64500Y15500D03*
G54D19*
X62250Y01500D03*
X57750Y01500D03*
G54D20*
X58250Y04000D03*
G54D21*
X58750Y05000D03*
X59250Y04000D03*
X59750Y05000D03*
X60250Y04000D03*
X60750Y05000D03*
X61250Y04000D03*
X61750Y05000D03*
G54D19*
X55750Y01500D03*
X51250Y01500D03*
G54D20*
X51750Y04000D03*
G54D21*
X52250Y05000D03*
X52750Y04000D03*
X53250Y05000D03*
X53750Y04000D03*
X54250Y05000D03*
X54750Y04000D03*
X55250Y05000D03*
G54D22*
X23803Y05303D03*
X38370Y07609D03*
X38883Y10708D03*
X22308Y10139D03*
G54D17*
X39675Y05726D03*
X17463Y05622D03*
X32728Y05735D03*
G54D23*
X21000Y13500D02*
X21000Y15500D01*
G54D24*
X56000Y08500D02*
X54500Y08500D01*
X57500Y10000D02*
X56000Y08500D01*
X56439Y09348D02*
X54902Y09348D01*
X57088Y10434D02*
X57066Y10412D01*
X58066Y10434D02*
X57088Y10434D01*
X58500Y10000D02*
X58066Y10434D01*
X57066Y10412D02*
X57066Y09975D01*
X54902Y09348D02*
X54500Y09750D01*
X57066Y09975D02*
X56439Y09348D01*
X46418Y09582D02*
X46418Y12173D01*
X46418Y12173D02*
X46157Y12434D01*
X49000Y07000D02*
X46418Y09582D01*
X45645Y12434D02*
X45000Y13079D01*
X45000Y13079D02*
X45000Y14500D01*
X46157Y12434D02*
X45645Y12434D01*
X22500Y04000D02*
X23803Y05303D01*
X38370Y04870D02*
X37500Y04000D01*
X38370Y07609D02*
X38370Y04870D01*
X34500Y02500D02*
X37264Y05264D01*
X37264Y05264D02*
X37264Y09089D01*
X37264Y09089D02*
X38883Y10708D01*
G54D23*
X10500Y10791D02*
X10500Y10000D01*
X15000Y14500D02*
X15000Y14203D01*
X15000Y14203D02*
X11733Y10936D01*
X11733Y10936D02*
X10645Y10936D01*
X10645Y10936D02*
X10500Y10791D01*
X19787Y15011D02*
X19276Y14500D01*
X19787Y15751D02*
X19787Y15011D01*
X19276Y14500D02*
X19000Y14500D01*
X20411Y16375D02*
X19787Y15751D01*
X34719Y16375D02*
X20411Y16375D01*
X40500Y10000D02*
X40500Y10692D01*
X39208Y11366D02*
X37859Y12715D01*
X40500Y10692D02*
X39826Y11366D01*
X39826Y11366D02*
X39208Y11366D01*
X37859Y13235D02*
X34719Y16375D01*
X37859Y12715D02*
X37859Y13235D01*
G54D24*
X45000Y15386D02*
X45000Y16000D01*
X49000Y05000D02*
X49419Y05419D01*
X49419Y05419D02*
X49419Y07220D01*
X46804Y14229D02*
X46599Y14434D01*
X46804Y09595D02*
X46804Y14229D01*
X48965Y07434D02*
X46804Y09595D01*
X49205Y07434D02*
X48965Y07434D01*
X49419Y07220D02*
X49205Y07434D01*
X46599Y14434D02*
X45952Y14434D01*
X45952Y14434D02*
X45000Y15386D01*
X49000Y02000D02*
X49000Y02418D01*
X57454Y12069D02*
X56069Y12069D01*
X56069Y12069D02*
X56000Y12000D01*
X59820Y10501D02*
X59022Y10501D01*
X59971Y13971D02*
X59356Y13971D01*
X60500Y14500D02*
X59971Y13971D01*
X59356Y13971D02*
X57454Y12069D01*
X59919Y10402D02*
X59820Y10501D01*
X59022Y10501D02*
X57454Y12069D01*
X49000Y02418D02*
X49011Y02418D01*
X54446Y07853D02*
X58173Y07853D01*
X59919Y09599D02*
X59919Y10402D01*
X58173Y07853D02*
X59919Y09599D01*
X49011Y02418D02*
X54446Y07853D01*
X57174Y08081D02*
X59093Y10000D01*
X54081Y08081D02*
X57174Y08081D01*
X49000Y03000D02*
X54081Y08081D01*
X59500Y10000D02*
X59297Y10000D01*
X59105Y10000D02*
X59093Y10000D01*
X59297Y10000D02*
X59105Y10000D01*
X54747Y16247D02*
X54000Y15500D01*
X55885Y16247D02*
X54747Y16247D01*
X56616Y15516D02*
X55885Y16247D01*
X56616Y15484D02*
X56616Y15516D01*
X55566Y14434D02*
X56616Y15484D01*
X55566Y11590D02*
X55566Y14434D01*
X55588Y11568D02*
X55566Y11590D01*
X57537Y11568D02*
X55588Y11568D01*
X59105Y10000D02*
X57537Y11568D01*
X10000Y01000D02*
X11500Y02500D01*
X11500Y02500D02*
X12000Y02500D01*
X18000Y01000D02*
X19500Y02500D01*
X25500Y01000D02*
X27000Y02500D01*
X05946Y11503D02*
X08500Y14057D01*
X08500Y14500D02*
X08500Y14057D01*
X07500Y04000D02*
X07500Y05500D01*
X07500Y05500D02*
X05946Y07054D01*
X05946Y07054D02*
X05946Y11503D01*
X15000Y02500D02*
X15000Y01000D01*
X08577Y13577D02*
X09500Y14500D01*
X08577Y09372D02*
X08577Y13577D01*
X10348Y07601D02*
X08577Y09372D01*
X12075Y07601D02*
X10348Y07601D01*
X12097Y07579D02*
X12075Y07601D01*
X12097Y05403D02*
X12097Y07579D01*
X15000Y02500D02*
X12097Y05403D01*
X08761Y09449D02*
X09568Y08642D01*
X10500Y14500D02*
X08761Y12761D01*
X16085Y02328D02*
X18180Y02328D01*
X18180Y02328D02*
X18770Y02918D01*
X15615Y02798D02*
X16085Y02328D01*
X09568Y08642D02*
X12326Y08642D01*
X08761Y12761D02*
X08761Y09449D01*
X15615Y05353D02*
X15615Y02798D01*
X22500Y02500D02*
X22500Y01000D01*
X12326Y08642D02*
X15615Y05353D01*
X22082Y02918D02*
X22500Y02500D01*
X18770Y02918D02*
X22082Y02918D01*
X08980Y11980D02*
X11500Y14500D01*
X16881Y02512D02*
X16126Y03267D01*
X08980Y09618D02*
X08980Y11980D01*
X09312Y09286D02*
X08980Y09618D01*
X11954Y09286D02*
X09312Y09286D01*
X16126Y05114D02*
X11954Y09286D01*
X16126Y03267D02*
X16126Y05114D01*
X30000Y01000D02*
X30000Y02500D01*
X18836Y03280D02*
X18068Y02512D01*
X30000Y02500D02*
X29250Y03250D01*
X24297Y02569D02*
X23586Y03280D01*
X18068Y02512D02*
X16881Y02512D01*
X26843Y03250D02*
X26162Y02569D01*
X23586Y03280D02*
X18836Y03280D01*
X26162Y02569D02*
X24297Y02569D01*
X29250Y03250D02*
X26843Y03250D01*
X54072Y09964D02*
X54277Y10169D01*
X54277Y10169D02*
X54277Y14777D01*
X54277Y14777D02*
X55000Y15500D01*
X54277Y10169D02*
X56331Y10169D01*
X56331Y10169D02*
X56500Y10000D01*
X49000Y04000D02*
X54072Y09072D01*
X54072Y09072D02*
X54072Y09964D01*
G54D23*
X40500Y07000D02*
X40500Y04000D01*
X24861Y15254D02*
X28000Y15254D01*
X27872Y06000D02*
X26228Y04356D01*
X24500Y14500D02*
X24500Y14893D01*
X28000Y15254D02*
X28500Y14754D01*
X29000Y06000D02*
X27872Y06000D01*
X24500Y14893D02*
X24861Y15254D01*
X26228Y04356D02*
X26228Y04000D01*
X49330Y00959D02*
X45979Y00959D01*
X07516Y09000D02*
X06500Y09000D01*
X09516Y07000D02*
X07516Y09000D01*
X23197Y11550D02*
X22000Y12747D01*
X23197Y08319D02*
X23197Y11550D01*
X24516Y07000D02*
X23197Y08319D01*
X22000Y13500D02*
X22000Y12747D01*
X22000Y15500D02*
X22000Y14500D01*
X22000Y14500D02*
X22000Y13500D01*
X28500Y14754D02*
X28500Y14500D01*
X33000Y04000D02*
X33000Y04728D01*
X29000Y06000D02*
X31016Y06000D01*
X25500Y04000D02*
X26228Y04000D01*
X31016Y06000D02*
X32016Y07000D01*
X33000Y07000D02*
X32016Y07000D01*
X61750Y08250D02*
X61750Y05000D01*
X62628Y11128D02*
X63500Y12000D01*
X49787Y01416D02*
X49330Y00959D01*
X21500Y06000D02*
X18211Y06000D01*
X18000Y06211D02*
X18000Y07000D01*
X18211Y06000D02*
X18000Y06211D01*
X18211Y04939D02*
X18211Y06000D01*
X18000Y04728D02*
X18211Y04939D01*
X18000Y04000D02*
X18000Y04728D01*
X62628Y08889D02*
X62628Y11128D01*
X33431Y05159D02*
X33431Y06000D01*
X36500Y06000D02*
X33431Y06000D01*
X44000Y04000D02*
X41228Y04000D01*
X61989Y08250D02*
X62628Y08889D01*
X33000Y06588D02*
X33000Y07000D01*
X61750Y08250D02*
X61989Y08250D01*
X40500Y04000D02*
X41228Y04000D01*
X22000Y14500D02*
X24500Y14500D01*
X30951Y14754D02*
X31197Y15000D01*
X49787Y02351D02*
X49787Y01416D01*
X50222Y02786D02*
X49787Y02351D01*
X60536Y02786D02*
X50222Y02786D01*
X61250Y03500D02*
X60536Y02786D01*
X61250Y04000D02*
X61250Y03500D01*
X44000Y04000D02*
X44000Y06000D01*
X40500Y07783D02*
X40500Y07000D01*
X42366Y09649D02*
X40500Y07783D01*
X40500Y12500D02*
X42366Y10634D01*
X28500Y14754D02*
X30951Y14754D01*
X32000Y15000D02*
X31197Y15000D01*
X42366Y10634D02*
X42366Y09649D01*
X45979Y00959D02*
X44000Y02938D01*
X33431Y06000D02*
X33431Y06157D01*
X61750Y04500D02*
X61250Y04000D01*
X44000Y02938D02*
X44000Y04000D01*
X33431Y06157D02*
X33000Y06588D01*
X61750Y05000D02*
X61750Y04500D01*
X33000Y04728D02*
X33431Y05159D01*
G54D24*
X51000Y12500D02*
X51000Y15500D01*
X50944Y11556D02*
X50500Y12000D01*
X50944Y09000D02*
X50944Y11556D01*
X49000Y09000D02*
X50944Y09000D01*
X50944Y09000D02*
X51000Y09000D01*
X51000Y09000D02*
X51500Y08500D01*
X50500Y12000D02*
X51000Y12500D01*
X02566Y05066D02*
X01500Y04000D01*
X04934Y05066D02*
X02566Y05066D01*
X04934Y11532D02*
X04934Y05066D01*
X07175Y13773D02*
X04934Y11532D01*
X07175Y14175D02*
X07175Y13773D01*
X08500Y15500D02*
X07175Y14175D01*
X04934Y05066D02*
X09000Y01000D01*
X17000Y00511D02*
X17000Y01000D01*
X09489Y00511D02*
X17000Y00511D01*
X44544Y11456D02*
X44544Y09456D01*
X24011Y00511D02*
X24500Y01000D01*
X39500Y12500D02*
X39500Y12943D01*
X44544Y09456D02*
X46000Y08000D01*
X43500Y12500D02*
X44544Y11456D01*
X09000Y01000D02*
X09489Y00511D01*
X39145Y13298D02*
X39500Y12943D01*
X17000Y00511D02*
X24011Y00511D01*
X39145Y14645D02*
X39145Y13298D01*
X39500Y15000D02*
X39145Y14645D01*
G54D23*
X02000Y07213D02*
X02000Y07000D01*
X03984Y09197D02*
X02000Y07213D01*
X03984Y10000D02*
X03984Y09197D01*
X05500Y13000D02*
X06500Y14000D01*
X04000Y13000D02*
X05500Y13000D01*
G54D24*
X11000Y03000D02*
X09500Y03000D01*
X12000Y04000D02*
X11000Y03000D01*
G54D23*
X09500Y04213D02*
X09500Y04000D01*
X11484Y06197D02*
X09500Y04213D01*
X11484Y07000D02*
X11484Y06197D01*
X13000Y10000D02*
X14000Y11000D01*
X11500Y10000D02*
X13000Y10000D01*
G54D24*
X22308Y07299D02*
X22308Y10139D01*
X26000Y03000D02*
X24500Y03000D01*
X27000Y04000D02*
X26000Y03000D01*
X24167Y05440D02*
X22308Y07299D01*
X24167Y04579D02*
X24167Y05440D01*
X23981Y04393D02*
X24167Y04579D01*
X24500Y03000D02*
X23981Y03519D01*
X23981Y03519D02*
X23981Y04393D01*
G54D23*
X27500Y11000D02*
X26500Y10000D01*
X26484Y07000D02*
X26484Y06197D01*
X26484Y06197D02*
X24500Y04213D01*
X29000Y11000D02*
X27500Y11000D01*
X26484Y07260D02*
X26484Y07803D01*
X26484Y07260D02*
X26484Y07000D01*
X24500Y04213D02*
X24500Y04000D01*
X26484Y07803D02*
X26500Y07819D01*
X26500Y07819D02*
X26500Y10000D01*
X41484Y07000D02*
X44000Y09516D01*
X39675Y05726D02*
X39500Y05551D01*
X44000Y09516D02*
X44000Y11000D01*
X39500Y05551D02*
X39500Y04000D01*
G54D24*
X17000Y10000D02*
X17000Y09507D01*
X16422Y08929D02*
X17000Y09507D01*
X16422Y03578D02*
X16422Y08929D01*
X17000Y03000D02*
X16422Y03578D01*
X18241Y03000D02*
X17000Y03000D01*
X19241Y04000D02*
X18241Y03000D01*
X19500Y04000D02*
X19241Y04000D01*
G54D23*
X17000Y05159D02*
X17000Y04000D01*
X18984Y07000D02*
X18984Y07803D01*
X19000Y07819D02*
X19000Y10000D01*
X18984Y07803D02*
X19000Y07819D01*
X17463Y05622D02*
X17000Y05159D01*
G54D24*
X33500Y03000D02*
X34500Y04000D01*
X32000Y03000D02*
X33500Y03000D01*
X33671Y11671D02*
X32000Y10000D01*
X36845Y11671D02*
X33671Y11671D01*
X37081Y11435D02*
X36845Y11671D01*
X37081Y05772D02*
X37081Y11435D01*
X35309Y04000D02*
X37081Y05772D01*
X34500Y04000D02*
X35309Y04000D01*
G54D23*
X34000Y07819D02*
X34000Y10000D01*
X33984Y07803D02*
X34000Y07819D01*
X33984Y07000D02*
X33984Y07803D01*
X35500Y10000D02*
X34000Y10000D01*
X36500Y11000D02*
X35500Y10000D01*
X32000Y05007D02*
X32000Y04000D01*
X32728Y05735D02*
X32000Y05007D01*
X55250Y04500D02*
X54750Y04000D01*
X55250Y05000D02*
X55250Y04500D01*
G54D24*
X52810Y05560D02*
X52810Y04900D01*
X54500Y07250D02*
X52810Y05560D01*
X57500Y07000D02*
X57023Y07477D01*
X57023Y07477D02*
X54727Y07477D01*
X54727Y07477D02*
X54500Y07250D01*
X52810Y04900D02*
X52189Y04279D01*
X52189Y04279D02*
X52189Y04000D01*
X58250Y04000D02*
X57812Y04000D01*
X51750Y04000D02*
X52189Y04000D01*
X57500Y04312D02*
X57500Y07000D01*
X57812Y04000D02*
X57500Y04312D01*
X55000Y14500D02*
X56000Y15500D01*
X55000Y12000D02*
X55000Y14500D01*
X50079Y12557D02*
X50500Y12557D01*
X50057Y12535D02*
X50079Y12557D01*
X50057Y12057D02*
X50057Y12535D01*
X49000Y11000D02*
X50057Y12057D01*
X50500Y13000D02*
X50500Y12557D01*
X49500Y10000D02*
X50500Y11000D01*
X49000Y10000D02*
X49500Y10000D01*
X03500Y06000D02*
X04500Y07000D01*
X02000Y06000D02*
X03500Y06000D01*
X02160Y13000D02*
X02000Y13000D01*
X04578Y10582D02*
X02160Y13000D01*
X04578Y07078D02*
X04578Y10582D01*
X04500Y07000D02*
X04578Y07078D01*
X37838Y02500D02*
X38919Y03581D01*
X37500Y02500D02*
X37838Y02500D01*
X39500Y10000D02*
X39500Y09507D01*
X38919Y03581D02*
X39500Y03000D01*
X38919Y08926D02*
X38919Y03581D01*
X39500Y09507D02*
X38919Y08926D01*
X41500Y15500D02*
X42000Y16000D01*
X39500Y15500D02*
X41500Y15500D01*
G54D23*
X25500Y14500D02*
X26253Y14500D01*
X34536Y14236D02*
X34000Y14236D01*
X35772Y13000D02*
X34536Y14236D01*
X33429Y13665D02*
X34000Y14236D01*
X27088Y13665D02*
X33429Y13665D01*
X26253Y14500D02*
X27088Y13665D01*
X34000Y14236D02*
X34000Y15000D01*
X36500Y13000D02*
X35772Y13000D01*
G54D24*
X58500Y15500D02*
X59000Y15000D01*
X60945Y15000D02*
X61750Y14195D01*
X46000Y10000D02*
X45236Y10764D01*
X45236Y11764D02*
X44500Y12500D01*
X59000Y15000D02*
X60945Y15000D01*
X59500Y07000D02*
X61750Y09250D01*
X45236Y10764D02*
X45236Y11764D01*
X61750Y14195D02*
X61750Y09250D01*
X51500Y09750D02*
X53000Y11250D01*
X53000Y11250D02*
X53000Y15500D01*
G54D10*
G36*
X04288Y07481D02*
X04203Y07445D01*
X04055Y07298D01*
X03975Y07105D01*
X03975Y06896D01*
X03978Y06889D01*
X03525Y06436D01*
X03525Y06888D01*
X03463Y06950D01*
X03050Y06950D01*
X03050Y06537D01*
X03112Y06475D01*
X03324Y06476D01*
X03416Y06514D01*
X03486Y06584D01*
X03524Y06675D01*
X03524Y06774D01*
X03525Y06888D01*
X03525Y06436D01*
X03380Y06290D01*
X02447Y06290D01*
X02445Y06297D01*
X02298Y06445D01*
X02164Y06501D01*
X02297Y06555D01*
X02445Y06702D01*
X02475Y06777D01*
X02476Y06774D01*
X02476Y06675D01*
X02514Y06584D01*
X02584Y06514D01*
X02676Y06476D01*
X02888Y06475D01*
X02950Y06537D01*
X02950Y06900D01*
X02950Y06950D01*
X02950Y07050D01*
X03050Y07050D01*
X03100Y07050D01*
X03463Y07050D01*
X03525Y07112D01*
X03524Y07226D01*
X03524Y07325D01*
X03486Y07416D01*
X03416Y07486D01*
X03324Y07524D01*
X03112Y07525D01*
X03100Y07513D01*
X03100Y07525D01*
X03019Y07525D01*
X04288Y08794D01*
X04288Y07481D01*
X04288Y07481D01*
G37*
G54D25*
X04288Y07481D02*
X04203Y07445D01*
X04055Y07298D01*
X03975Y07105D01*
X03975Y06896D01*
X03978Y06889D01*
X03525Y06436D01*
X03525Y06888D01*
X03463Y06950D01*
X03050Y06950D01*
X03050Y06537D01*
X03112Y06475D01*
X03324Y06476D01*
X03416Y06514D01*
X03486Y06584D01*
X03524Y06675D01*
X03524Y06774D01*
X03525Y06888D01*
X03525Y06436D01*
X03380Y06290D01*
X02447Y06290D01*
X02445Y06297D01*
X02298Y06445D01*
X02164Y06501D01*
X02297Y06555D01*
X02445Y06702D01*
X02475Y06777D01*
X02476Y06774D01*
X02476Y06675D01*
X02514Y06584D01*
X02584Y06514D01*
X02676Y06476D01*
X02888Y06475D01*
X02950Y06537D01*
X02950Y06900D01*
X02950Y06950D01*
X02950Y07050D01*
X03050Y07050D01*
X03100Y07050D01*
X03463Y07050D01*
X03525Y07112D01*
X03524Y07226D01*
X03524Y07325D01*
X03486Y07416D01*
X03416Y07486D01*
X03324Y07524D01*
X03112Y07525D01*
X03100Y07513D01*
X03100Y07525D01*
X03019Y07525D01*
X04288Y08794D01*
X04288Y07481D01*
G54D10*
G36*
X14710Y01448D02*
X14703Y01445D01*
X14555Y01298D01*
X14475Y01105D01*
X14475Y00896D01*
X14514Y00801D01*
X12486Y00801D01*
X12525Y00895D01*
X12525Y01104D01*
X12445Y01297D01*
X12298Y01445D01*
X12105Y01525D01*
X11896Y01525D01*
X11703Y01445D01*
X11555Y01298D01*
X11475Y01105D01*
X11475Y00896D01*
X11514Y00801D01*
X10486Y00801D01*
X10525Y00895D01*
X10525Y01104D01*
X10521Y01112D01*
X11583Y02174D01*
X11702Y02055D01*
X11895Y01975D01*
X12104Y01975D01*
X12297Y02055D01*
X12445Y02202D01*
X12525Y02395D01*
X12525Y02604D01*
X12445Y02797D01*
X12298Y02945D01*
X12105Y03025D01*
X11896Y03025D01*
X11703Y02945D01*
X11555Y02798D01*
X11551Y02790D01*
X11500Y02790D01*
X11389Y02768D01*
X11295Y02705D01*
X10112Y01523D01*
X10105Y01525D01*
X09896Y01525D01*
X09703Y01445D01*
X09555Y01298D01*
X09499Y01165D01*
X09445Y01297D01*
X09298Y01445D01*
X09105Y01525D01*
X08896Y01525D01*
X08888Y01522D01*
X05224Y05186D01*
X05224Y11412D01*
X07380Y13568D01*
X07443Y13662D01*
X07465Y13773D01*
X07465Y14055D01*
X07951Y14541D01*
X07951Y14151D01*
X07989Y14059D01*
X08040Y14008D01*
X05741Y11708D01*
X05678Y11614D01*
X05656Y11503D01*
X05656Y07054D01*
X05678Y06943D01*
X05741Y06849D01*
X06977Y05612D01*
X06975Y05605D01*
X06975Y05396D01*
X07055Y05203D01*
X07202Y05055D01*
X07210Y05052D01*
X07210Y04448D01*
X07203Y04445D01*
X07055Y04298D01*
X06975Y04105D01*
X06975Y03896D01*
X07055Y03703D01*
X07202Y03555D01*
X07395Y03475D01*
X07604Y03475D01*
X07797Y03555D01*
X07945Y03702D01*
X08025Y03895D01*
X08025Y04104D01*
X07945Y04297D01*
X07798Y04445D01*
X07790Y04449D01*
X07790Y05053D01*
X07797Y05055D01*
X07945Y05202D01*
X08025Y05395D01*
X08025Y05604D01*
X08025Y06895D01*
X08025Y07104D01*
X07945Y07297D01*
X07798Y07445D01*
X07605Y07525D01*
X07396Y07525D01*
X07203Y07445D01*
X07055Y07298D01*
X07043Y07270D01*
X07043Y08921D01*
X07032Y09134D01*
X06972Y09281D01*
X06878Y09308D01*
X06571Y09000D01*
X06878Y08692D01*
X06972Y08719D01*
X07043Y08921D01*
X07043Y07270D01*
X06975Y07105D01*
X06975Y06896D01*
X07055Y06703D01*
X07202Y06555D01*
X07395Y06475D01*
X07604Y06475D01*
X07797Y06555D01*
X07945Y06702D01*
X08025Y06895D01*
X08025Y05604D01*
X07945Y05797D01*
X07798Y05945D01*
X07605Y06025D01*
X07396Y06025D01*
X07388Y06023D01*
X06236Y07175D01*
X06236Y08523D01*
X06421Y08457D01*
X06634Y08468D01*
X06781Y08528D01*
X06808Y08622D01*
X06535Y08894D01*
X06500Y08929D01*
X06429Y09000D01*
X06500Y09071D01*
X06535Y09106D01*
X06808Y09378D01*
X06781Y09472D01*
X06579Y09543D01*
X06366Y09532D01*
X06236Y09479D01*
X06236Y11383D01*
X08287Y13434D01*
X08287Y09372D01*
X08309Y09261D01*
X08372Y09167D01*
X10143Y07396D01*
X10237Y07333D01*
X10238Y07333D01*
X10465Y07106D01*
X10500Y07071D01*
X10571Y07000D01*
X10500Y06929D01*
X10465Y06894D01*
X10429Y06858D01*
X10429Y07000D01*
X10086Y07343D01*
X10008Y07317D01*
X09930Y07343D01*
X09859Y07272D01*
X09859Y07414D01*
X09826Y07513D01*
X09607Y07593D01*
X09372Y07582D01*
X09206Y07513D01*
X09173Y07414D01*
X09516Y07071D01*
X09859Y07414D01*
X09859Y07272D01*
X09587Y07000D01*
X09930Y06657D01*
X10008Y06683D01*
X10086Y06657D01*
X10429Y07000D01*
X10429Y06858D01*
X10157Y06586D01*
X10190Y06487D01*
X10409Y06407D01*
X10644Y06418D01*
X10810Y06487D01*
X10825Y06534D01*
X10843Y06516D01*
X10861Y06498D01*
X10908Y06546D01*
X10923Y06509D01*
X10984Y06448D01*
X10984Y06405D01*
X10843Y06264D01*
X09859Y05280D01*
X09859Y06586D01*
X09516Y06929D01*
X09445Y06858D01*
X09445Y07000D01*
X09102Y07343D01*
X09003Y07310D01*
X08923Y07091D01*
X08934Y06856D01*
X09003Y06690D01*
X09102Y06657D01*
X09445Y07000D01*
X09445Y06858D01*
X09173Y06586D01*
X09206Y06487D01*
X09425Y06407D01*
X09660Y06418D01*
X09826Y06487D01*
X09859Y06586D01*
X09859Y05280D01*
X09146Y04567D01*
X09038Y04405D01*
X08999Y04213D01*
X09000Y04209D01*
X09000Y04166D01*
X08975Y04105D01*
X08975Y03896D01*
X09055Y03703D01*
X09202Y03555D01*
X09335Y03500D01*
X09203Y03445D01*
X09055Y03298D01*
X08975Y03105D01*
X08975Y02896D01*
X09055Y02703D01*
X09202Y02555D01*
X09395Y02475D01*
X09604Y02475D01*
X09797Y02555D01*
X09945Y02702D01*
X09948Y02710D01*
X11000Y02710D01*
X11111Y02732D01*
X11205Y02795D01*
X11887Y03478D01*
X11895Y03475D01*
X12104Y03475D01*
X12297Y03555D01*
X12445Y03702D01*
X12525Y03895D01*
X12525Y04104D01*
X12445Y04297D01*
X12298Y04445D01*
X12105Y04525D01*
X11896Y04525D01*
X11703Y04445D01*
X11555Y04298D01*
X11475Y04105D01*
X11475Y03896D01*
X11478Y03889D01*
X11025Y03436D01*
X11025Y03888D01*
X10963Y03950D01*
X10550Y03950D01*
X10550Y03537D01*
X10612Y03475D01*
X10824Y03476D01*
X10916Y03514D01*
X10986Y03584D01*
X11024Y03675D01*
X11024Y03774D01*
X11025Y03888D01*
X11025Y03436D01*
X10880Y03290D01*
X09947Y03290D01*
X09945Y03297D01*
X09798Y03445D01*
X09664Y03501D01*
X09797Y03555D01*
X09945Y03702D01*
X09975Y03777D01*
X09976Y03774D01*
X09976Y03675D01*
X10014Y03584D01*
X10084Y03514D01*
X10176Y03476D01*
X10388Y03475D01*
X10450Y03537D01*
X10450Y03900D01*
X10450Y03950D01*
X10450Y04050D01*
X10550Y04050D01*
X10600Y04050D01*
X10963Y04050D01*
X11025Y04112D01*
X11024Y04226D01*
X11024Y04325D01*
X10986Y04416D01*
X10916Y04486D01*
X10824Y04524D01*
X10612Y04525D01*
X10600Y04513D01*
X10600Y04525D01*
X10519Y04525D01*
X11807Y05813D01*
X11807Y05403D01*
X11829Y05292D01*
X11892Y05198D01*
X14477Y02613D01*
X14475Y02605D01*
X14475Y02396D01*
X14555Y02203D01*
X14702Y02055D01*
X14710Y02052D01*
X14710Y01448D01*
X14710Y01448D01*
G37*
G54D25*
X14710Y01448D02*
X14703Y01445D01*
X14555Y01298D01*
X14475Y01105D01*
X14475Y00896D01*
X14514Y00801D01*
X12486Y00801D01*
X12525Y00895D01*
X12525Y01104D01*
X12445Y01297D01*
X12298Y01445D01*
X12105Y01525D01*
X11896Y01525D01*
X11703Y01445D01*
X11555Y01298D01*
X11475Y01105D01*
X11475Y00896D01*
X11514Y00801D01*
X10486Y00801D01*
X10525Y00895D01*
X10525Y01104D01*
X10521Y01112D01*
X11583Y02174D01*
X11702Y02055D01*
X11895Y01975D01*
X12104Y01975D01*
X12297Y02055D01*
X12445Y02202D01*
X12525Y02395D01*
X12525Y02604D01*
X12445Y02797D01*
X12298Y02945D01*
X12105Y03025D01*
X11896Y03025D01*
X11703Y02945D01*
X11555Y02798D01*
X11551Y02790D01*
X11500Y02790D01*
X11389Y02768D01*
X11295Y02705D01*
X10112Y01523D01*
X10105Y01525D01*
X09896Y01525D01*
X09703Y01445D01*
X09555Y01298D01*
X09499Y01165D01*
X09445Y01297D01*
X09298Y01445D01*
X09105Y01525D01*
X08896Y01525D01*
X08888Y01522D01*
X05224Y05186D01*
X05224Y11412D01*
X07380Y13568D01*
X07443Y13662D01*
X07465Y13773D01*
X07465Y14055D01*
X07951Y14541D01*
X07951Y14151D01*
X07989Y14059D01*
X08040Y14008D01*
X05741Y11708D01*
X05678Y11614D01*
X05656Y11503D01*
X05656Y07054D01*
X05678Y06943D01*
X05741Y06849D01*
X06977Y05612D01*
X06975Y05605D01*
X06975Y05396D01*
X07055Y05203D01*
X07202Y05055D01*
X07210Y05052D01*
X07210Y04448D01*
X07203Y04445D01*
X07055Y04298D01*
X06975Y04105D01*
X06975Y03896D01*
X07055Y03703D01*
X07202Y03555D01*
X07395Y03475D01*
X07604Y03475D01*
X07797Y03555D01*
X07945Y03702D01*
X08025Y03895D01*
X08025Y04104D01*
X07945Y04297D01*
X07798Y04445D01*
X07790Y04449D01*
X07790Y05053D01*
X07797Y05055D01*
X07945Y05202D01*
X08025Y05395D01*
X08025Y05604D01*
X08025Y06895D01*
X08025Y07104D01*
X07945Y07297D01*
X07798Y07445D01*
X07605Y07525D01*
X07396Y07525D01*
X07203Y07445D01*
X07055Y07298D01*
X07043Y07270D01*
X07043Y08921D01*
X07032Y09134D01*
X06972Y09281D01*
X06878Y09308D01*
X06571Y09000D01*
X06878Y08692D01*
X06972Y08719D01*
X07043Y08921D01*
X07043Y07270D01*
X06975Y07105D01*
X06975Y06896D01*
X07055Y06703D01*
X07202Y06555D01*
X07395Y06475D01*
X07604Y06475D01*
X07797Y06555D01*
X07945Y06702D01*
X08025Y06895D01*
X08025Y05604D01*
X07945Y05797D01*
X07798Y05945D01*
X07605Y06025D01*
X07396Y06025D01*
X07388Y06023D01*
X06236Y07175D01*
X06236Y08523D01*
X06421Y08457D01*
X06634Y08468D01*
X06781Y08528D01*
X06808Y08622D01*
X06535Y08894D01*
X06500Y08929D01*
X06429Y09000D01*
X06500Y09071D01*
X06535Y09106D01*
X06808Y09378D01*
X06781Y09472D01*
X06579Y09543D01*
X06366Y09532D01*
X06236Y09479D01*
X06236Y11383D01*
X08287Y13434D01*
X08287Y09372D01*
X08309Y09261D01*
X08372Y09167D01*
X10143Y07396D01*
X10237Y07333D01*
X10238Y07333D01*
X10465Y07106D01*
X10500Y07071D01*
X10571Y07000D01*
X10500Y06929D01*
X10465Y06894D01*
X10429Y06858D01*
X10429Y07000D01*
X10086Y07343D01*
X10008Y07317D01*
X09930Y07343D01*
X09859Y07272D01*
X09859Y07414D01*
X09826Y07513D01*
X09607Y07593D01*
X09372Y07582D01*
X09206Y07513D01*
X09173Y07414D01*
X09516Y07071D01*
X09859Y07414D01*
X09859Y07272D01*
X09587Y07000D01*
X09930Y06657D01*
X10008Y06683D01*
X10086Y06657D01*
X10429Y07000D01*
X10429Y06858D01*
X10157Y06586D01*
X10190Y06487D01*
X10409Y06407D01*
X10644Y06418D01*
X10810Y06487D01*
X10825Y06534D01*
X10843Y06516D01*
X10861Y06498D01*
X10908Y06546D01*
X10923Y06509D01*
X10984Y06448D01*
X10984Y06405D01*
X10843Y06264D01*
X09859Y05280D01*
X09859Y06586D01*
X09516Y06929D01*
X09445Y06858D01*
X09445Y07000D01*
X09102Y07343D01*
X09003Y07310D01*
X08923Y07091D01*
X08934Y06856D01*
X09003Y06690D01*
X09102Y06657D01*
X09445Y07000D01*
X09445Y06858D01*
X09173Y06586D01*
X09206Y06487D01*
X09425Y06407D01*
X09660Y06418D01*
X09826Y06487D01*
X09859Y06586D01*
X09859Y05280D01*
X09146Y04567D01*
X09038Y04405D01*
X08999Y04213D01*
X09000Y04209D01*
X09000Y04166D01*
X08975Y04105D01*
X08975Y03896D01*
X09055Y03703D01*
X09202Y03555D01*
X09335Y03500D01*
X09203Y03445D01*
X09055Y03298D01*
X08975Y03105D01*
X08975Y02896D01*
X09055Y02703D01*
X09202Y02555D01*
X09395Y02475D01*
X09604Y02475D01*
X09797Y02555D01*
X09945Y02702D01*
X09948Y02710D01*
X11000Y02710D01*
X11111Y02732D01*
X11205Y02795D01*
X11887Y03478D01*
X11895Y03475D01*
X12104Y03475D01*
X12297Y03555D01*
X12445Y03702D01*
X12525Y03895D01*
X12525Y04104D01*
X12445Y04297D01*
X12298Y04445D01*
X12105Y04525D01*
X11896Y04525D01*
X11703Y04445D01*
X11555Y04298D01*
X11475Y04105D01*
X11475Y03896D01*
X11478Y03889D01*
X11025Y03436D01*
X11025Y03888D01*
X10963Y03950D01*
X10550Y03950D01*
X10550Y03537D01*
X10612Y03475D01*
X10824Y03476D01*
X10916Y03514D01*
X10986Y03584D01*
X11024Y03675D01*
X11024Y03774D01*
X11025Y03888D01*
X11025Y03436D01*
X10880Y03290D01*
X09947Y03290D01*
X09945Y03297D01*
X09798Y03445D01*
X09664Y03501D01*
X09797Y03555D01*
X09945Y03702D01*
X09975Y03777D01*
X09976Y03774D01*
X09976Y03675D01*
X10014Y03584D01*
X10084Y03514D01*
X10176Y03476D01*
X10388Y03475D01*
X10450Y03537D01*
X10450Y03900D01*
X10450Y03950D01*
X10450Y04050D01*
X10550Y04050D01*
X10600Y04050D01*
X10963Y04050D01*
X11025Y04112D01*
X11024Y04226D01*
X11024Y04325D01*
X10986Y04416D01*
X10916Y04486D01*
X10824Y04524D01*
X10612Y04525D01*
X10600Y04513D01*
X10600Y04525D01*
X10519Y04525D01*
X11807Y05813D01*
X11807Y05403D01*
X11829Y05292D01*
X11892Y05198D01*
X14477Y02613D01*
X14475Y02605D01*
X14475Y02396D01*
X14555Y02203D01*
X14702Y02055D01*
X14710Y02052D01*
X14710Y01448D01*
G54D10*
G36*
X15325Y02918D02*
X15298Y02945D01*
X15105Y03025D01*
X14896Y03025D01*
X14888Y03022D01*
X14308Y03602D01*
X14308Y05622D01*
X14000Y05929D01*
X13929Y05859D01*
X13929Y06000D01*
X13622Y06308D01*
X13528Y06281D01*
X13457Y06079D01*
X13468Y05866D01*
X13528Y05719D01*
X13622Y05692D01*
X13929Y06000D01*
X13929Y05859D01*
X13692Y05622D01*
X13719Y05528D01*
X13921Y05457D01*
X14134Y05468D01*
X14281Y05528D01*
X14308Y05622D01*
X14308Y03602D01*
X12387Y05523D01*
X12387Y07579D01*
X12365Y07690D01*
X12302Y07784D01*
X12280Y07806D01*
X12186Y07869D01*
X12075Y07891D01*
X10468Y07891D01*
X10007Y08352D01*
X12206Y08352D01*
X14018Y06540D01*
X13866Y06532D01*
X13719Y06472D01*
X13692Y06378D01*
X13965Y06106D01*
X14000Y06071D01*
X14071Y06000D01*
X14106Y05965D01*
X14378Y05692D01*
X14472Y05719D01*
X14543Y05921D01*
X14537Y06021D01*
X15325Y05233D01*
X15325Y04418D01*
X15298Y04445D01*
X15105Y04525D01*
X14896Y04525D01*
X14703Y04445D01*
X14555Y04298D01*
X14475Y04105D01*
X14475Y03896D01*
X14555Y03703D01*
X14702Y03555D01*
X14895Y03475D01*
X15104Y03475D01*
X15297Y03555D01*
X15325Y03583D01*
X15325Y02918D01*
X15325Y02918D01*
G37*
G54D25*
X15325Y02918D02*
X15298Y02945D01*
X15105Y03025D01*
X14896Y03025D01*
X14888Y03022D01*
X14308Y03602D01*
X14308Y05622D01*
X14000Y05929D01*
X13929Y05859D01*
X13929Y06000D01*
X13622Y06308D01*
X13528Y06281D01*
X13457Y06079D01*
X13468Y05866D01*
X13528Y05719D01*
X13622Y05692D01*
X13929Y06000D01*
X13929Y05859D01*
X13692Y05622D01*
X13719Y05528D01*
X13921Y05457D01*
X14134Y05468D01*
X14281Y05528D01*
X14308Y05622D01*
X14308Y03602D01*
X12387Y05523D01*
X12387Y07579D01*
X12365Y07690D01*
X12302Y07784D01*
X12280Y07806D01*
X12186Y07869D01*
X12075Y07891D01*
X10468Y07891D01*
X10007Y08352D01*
X12206Y08352D01*
X14018Y06540D01*
X13866Y06532D01*
X13719Y06472D01*
X13692Y06378D01*
X13965Y06106D01*
X14000Y06071D01*
X14071Y06000D01*
X14106Y05965D01*
X14378Y05692D01*
X14472Y05719D01*
X14543Y05921D01*
X14537Y06021D01*
X15325Y05233D01*
X15325Y04418D01*
X15298Y04445D01*
X15105Y04525D01*
X14896Y04525D01*
X14703Y04445D01*
X14555Y04298D01*
X14475Y04105D01*
X14475Y03896D01*
X14555Y03703D01*
X14702Y03555D01*
X14895Y03475D01*
X15104Y03475D01*
X15297Y03555D01*
X15325Y03583D01*
X15325Y02918D01*
G54D10*
G36*
X20003Y16675D02*
X19433Y16105D01*
X19328Y15948D01*
X19311Y15965D01*
X19109Y16049D01*
X18891Y16049D01*
X18689Y15965D01*
X18535Y15811D01*
X18500Y15727D01*
X18465Y15811D01*
X18311Y15965D01*
X18109Y16049D01*
X17891Y16049D01*
X17689Y15965D01*
X17535Y15811D01*
X17500Y15727D01*
X17465Y15811D01*
X17311Y15965D01*
X17109Y16049D01*
X16891Y16049D01*
X16689Y15965D01*
X16535Y15811D01*
X16500Y15727D01*
X16465Y15811D01*
X16311Y15965D01*
X16109Y16049D01*
X15891Y16049D01*
X15689Y15965D01*
X15535Y15811D01*
X15500Y15727D01*
X15465Y15811D01*
X15311Y15965D01*
X15109Y16049D01*
X14891Y16049D01*
X14689Y15965D01*
X14535Y15811D01*
X14500Y15727D01*
X14465Y15811D01*
X14311Y15965D01*
X14109Y16049D01*
X13891Y16049D01*
X13689Y15965D01*
X13535Y15811D01*
X13451Y15609D01*
X13451Y15391D01*
X13535Y15189D01*
X13675Y15049D01*
X13651Y15049D01*
X13559Y15011D01*
X13489Y14941D01*
X13451Y14850D01*
X13451Y14751D01*
X13451Y14151D01*
X13489Y14059D01*
X13559Y13989D01*
X13650Y13951D01*
X13749Y13951D01*
X14040Y13951D01*
X11525Y11436D01*
X10649Y11436D01*
X10645Y11437D01*
X10453Y11398D01*
X10291Y11290D01*
X10146Y11145D01*
X10038Y10983D01*
X09999Y10791D01*
X10000Y10787D01*
X10000Y10552D01*
X09991Y10561D01*
X09900Y10599D01*
X09801Y10599D01*
X09270Y10599D01*
X09270Y11860D01*
X11369Y13960D01*
X11391Y13951D01*
X11609Y13951D01*
X11811Y14035D01*
X11965Y14189D01*
X12049Y14391D01*
X12049Y14609D01*
X11965Y14811D01*
X11811Y14965D01*
X11726Y15000D01*
X11811Y15035D01*
X11965Y15189D01*
X12049Y15391D01*
X12049Y15609D01*
X11965Y15811D01*
X11811Y15965D01*
X11609Y16049D01*
X11391Y16049D01*
X11189Y15965D01*
X11035Y15811D01*
X11000Y15727D01*
X10965Y15811D01*
X10811Y15965D01*
X10609Y16049D01*
X10391Y16049D01*
X10189Y15965D01*
X10035Y15811D01*
X10000Y15727D01*
X09965Y15811D01*
X09811Y15965D01*
X09609Y16049D01*
X09391Y16049D01*
X09189Y15965D01*
X09035Y15811D01*
X09000Y15727D01*
X08965Y15811D01*
X08811Y15965D01*
X08609Y16049D01*
X08391Y16049D01*
X08189Y15965D01*
X08035Y15811D01*
X07951Y15609D01*
X07951Y15391D01*
X07959Y15370D01*
X06970Y14380D01*
X06940Y14336D01*
X06811Y14465D01*
X06609Y14549D01*
X06391Y14549D01*
X06189Y14465D01*
X06035Y14311D01*
X05985Y14194D01*
X05292Y13500D01*
X04347Y13500D01*
X04339Y13508D01*
X04119Y13599D01*
X03881Y13599D01*
X03661Y13508D01*
X03500Y13347D01*
X03339Y13508D01*
X03119Y13599D01*
X02881Y13599D01*
X02661Y13508D01*
X02585Y13433D01*
X02561Y13491D01*
X02550Y13502D01*
X02550Y15290D01*
X02550Y15708D01*
X02390Y16094D01*
X02095Y16390D01*
X01710Y16550D01*
X01292Y16550D01*
X00906Y16390D01*
X00610Y16095D01*
X00450Y15710D01*
X00450Y15292D01*
X00610Y14906D01*
X00905Y14610D01*
X01290Y14450D01*
X01708Y14450D01*
X02094Y14610D01*
X02390Y14905D01*
X02550Y15290D01*
X02550Y13502D01*
X02491Y13561D01*
X02400Y13599D01*
X02301Y13599D01*
X01601Y13599D01*
X01509Y13561D01*
X01439Y13491D01*
X01401Y13400D01*
X01401Y13301D01*
X01401Y12601D01*
X01439Y12509D01*
X01509Y12439D01*
X01600Y12401D01*
X01699Y12401D01*
X02349Y12401D01*
X04151Y10599D01*
X03585Y10599D01*
X03493Y10561D01*
X03423Y10491D01*
X03407Y10456D01*
X03361Y10502D01*
X03325Y10467D01*
X03310Y10513D01*
X03091Y10593D01*
X02856Y10582D01*
X02690Y10513D01*
X02657Y10414D01*
X02965Y10106D01*
X03000Y10071D01*
X03071Y10000D01*
X03000Y09929D01*
X02965Y09894D01*
X02929Y09858D01*
X02929Y10000D01*
X02586Y10343D01*
X02508Y10317D01*
X02430Y10343D01*
X02359Y10272D01*
X02359Y10414D01*
X02326Y10513D01*
X02107Y10593D01*
X01872Y10582D01*
X01706Y10513D01*
X01673Y10414D01*
X02016Y10071D01*
X02359Y10414D01*
X02359Y10272D01*
X02087Y10000D01*
X02430Y09657D01*
X02508Y09683D01*
X02586Y09657D01*
X02929Y10000D01*
X02929Y09858D01*
X02657Y09586D01*
X02690Y09487D01*
X02909Y09407D01*
X03144Y09418D01*
X03310Y09487D01*
X03325Y09534D01*
X03343Y09516D01*
X03361Y09498D01*
X03408Y09546D01*
X03423Y09509D01*
X03484Y09448D01*
X03484Y09405D01*
X03343Y09264D01*
X02359Y08280D01*
X02359Y09586D01*
X02016Y09929D01*
X01945Y09858D01*
X01945Y10000D01*
X01602Y10343D01*
X01503Y10310D01*
X01423Y10091D01*
X01434Y09856D01*
X01503Y09690D01*
X01602Y09657D01*
X01945Y10000D01*
X01945Y09858D01*
X01673Y09586D01*
X01706Y09487D01*
X01925Y09407D01*
X02160Y09418D01*
X02326Y09487D01*
X02359Y09586D01*
X02359Y08280D01*
X01646Y07567D01*
X01538Y07405D01*
X01499Y07213D01*
X01500Y07209D01*
X01500Y07166D01*
X01475Y07105D01*
X01475Y06896D01*
X01555Y06703D01*
X01702Y06555D01*
X01835Y06500D01*
X01703Y06445D01*
X01555Y06298D01*
X01475Y06105D01*
X01475Y05896D01*
X01555Y05703D01*
X01702Y05555D01*
X01895Y05475D01*
X02104Y05475D01*
X02297Y05555D01*
X02445Y05702D01*
X02448Y05710D01*
X03500Y05710D01*
X03611Y05732D01*
X03705Y05795D01*
X04387Y06478D01*
X04395Y06475D01*
X04604Y06475D01*
X04644Y06492D01*
X04644Y06009D01*
X04605Y06025D01*
X04396Y06025D01*
X04203Y05945D01*
X04055Y05798D01*
X03975Y05605D01*
X03975Y05396D01*
X03991Y05356D01*
X02566Y05356D01*
X02455Y05334D01*
X02361Y05271D01*
X01612Y04523D01*
X01605Y04525D01*
X01396Y04525D01*
X01203Y04445D01*
X01055Y04298D01*
X00975Y04105D01*
X00975Y03896D01*
X01055Y03703D01*
X01202Y03555D01*
X01395Y03475D01*
X01604Y03475D01*
X01797Y03555D01*
X01945Y03702D01*
X02000Y03836D01*
X02055Y03703D01*
X02202Y03555D01*
X02395Y03475D01*
X02604Y03475D01*
X02797Y03555D01*
X02945Y03702D01*
X03025Y03895D01*
X03025Y04104D01*
X02945Y04297D01*
X02798Y04445D01*
X02605Y04525D01*
X02435Y04525D01*
X02686Y04776D01*
X04814Y04776D01*
X08477Y01113D01*
X08475Y01105D01*
X08475Y00896D01*
X08555Y00703D01*
X08702Y00555D01*
X08895Y00475D01*
X09104Y00475D01*
X09111Y00479D01*
X09265Y00325D01*
X05025Y00325D01*
X05025Y03895D01*
X05025Y04104D01*
X04945Y04297D01*
X04798Y04445D01*
X04605Y04525D01*
X04396Y04525D01*
X04203Y04445D01*
X04055Y04298D01*
X03975Y04105D01*
X03975Y03896D01*
X04055Y03703D01*
X04202Y03555D01*
X04395Y03475D01*
X04604Y03475D01*
X04797Y03555D01*
X04945Y03702D01*
X05025Y03895D01*
X05025Y00325D01*
X02550Y00325D01*
X02550Y01290D01*
X02550Y01708D01*
X02390Y02094D01*
X02095Y02390D01*
X01710Y02550D01*
X01292Y02550D01*
X00906Y02390D01*
X00610Y02095D01*
X00450Y01710D01*
X00450Y01292D01*
X00610Y00906D01*
X00905Y00610D01*
X01290Y00450D01*
X01708Y00450D01*
X02094Y00610D01*
X02390Y00905D01*
X02550Y01290D01*
X02550Y00325D01*
X00325Y00325D01*
X00325Y16675D01*
X20003Y16675D01*
X20003Y16675D01*
G37*
G54D25*
X20003Y16675D02*
X19433Y16105D01*
X19328Y15948D01*
X19311Y15965D01*
X19109Y16049D01*
X18891Y16049D01*
X18689Y15965D01*
X18535Y15811D01*
X18500Y15727D01*
X18465Y15811D01*
X18311Y15965D01*
X18109Y16049D01*
X17891Y16049D01*
X17689Y15965D01*
X17535Y15811D01*
X17500Y15727D01*
X17465Y15811D01*
X17311Y15965D01*
X17109Y16049D01*
X16891Y16049D01*
X16689Y15965D01*
X16535Y15811D01*
X16500Y15727D01*
X16465Y15811D01*
X16311Y15965D01*
X16109Y16049D01*
X15891Y16049D01*
X15689Y15965D01*
X15535Y15811D01*
X15500Y15727D01*
X15465Y15811D01*
X15311Y15965D01*
X15109Y16049D01*
X14891Y16049D01*
X14689Y15965D01*
X14535Y15811D01*
X14500Y15727D01*
X14465Y15811D01*
X14311Y15965D01*
X14109Y16049D01*
X13891Y16049D01*
X13689Y15965D01*
X13535Y15811D01*
X13451Y15609D01*
X13451Y15391D01*
X13535Y15189D01*
X13675Y15049D01*
X13651Y15049D01*
X13559Y15011D01*
X13489Y14941D01*
X13451Y14850D01*
X13451Y14751D01*
X13451Y14151D01*
X13489Y14059D01*
X13559Y13989D01*
X13650Y13951D01*
X13749Y13951D01*
X14040Y13951D01*
X11525Y11436D01*
X10649Y11436D01*
X10645Y11437D01*
X10453Y11398D01*
X10291Y11290D01*
X10146Y11145D01*
X10038Y10983D01*
X09999Y10791D01*
X10000Y10787D01*
X10000Y10552D01*
X09991Y10561D01*
X09900Y10599D01*
X09801Y10599D01*
X09270Y10599D01*
X09270Y11860D01*
X11369Y13960D01*
X11391Y13951D01*
X11609Y13951D01*
X11811Y14035D01*
X11965Y14189D01*
X12049Y14391D01*
X12049Y14609D01*
X11965Y14811D01*
X11811Y14965D01*
X11726Y15000D01*
X11811Y15035D01*
X11965Y15189D01*
X12049Y15391D01*
X12049Y15609D01*
X11965Y15811D01*
X11811Y15965D01*
X11609Y16049D01*
X11391Y16049D01*
X11189Y15965D01*
X11035Y15811D01*
X11000Y15727D01*
X10965Y15811D01*
X10811Y15965D01*
X10609Y16049D01*
X10391Y16049D01*
X10189Y15965D01*
X10035Y15811D01*
X10000Y15727D01*
X09965Y15811D01*
X09811Y15965D01*
X09609Y16049D01*
X09391Y16049D01*
X09189Y15965D01*
X09035Y15811D01*
X09000Y15727D01*
X08965Y15811D01*
X08811Y15965D01*
X08609Y16049D01*
X08391Y16049D01*
X08189Y15965D01*
X08035Y15811D01*
X07951Y15609D01*
X07951Y15391D01*
X07959Y15370D01*
X06970Y14380D01*
X06940Y14336D01*
X06811Y14465D01*
X06609Y14549D01*
X06391Y14549D01*
X06189Y14465D01*
X06035Y14311D01*
X05985Y14194D01*
X05292Y13500D01*
X04347Y13500D01*
X04339Y13508D01*
X04119Y13599D01*
X03881Y13599D01*
X03661Y13508D01*
X03500Y13347D01*
X03339Y13508D01*
X03119Y13599D01*
X02881Y13599D01*
X02661Y13508D01*
X02585Y13433D01*
X02561Y13491D01*
X02550Y13502D01*
X02550Y15290D01*
X02550Y15708D01*
X02390Y16094D01*
X02095Y16390D01*
X01710Y16550D01*
X01292Y16550D01*
X00906Y16390D01*
X00610Y16095D01*
X00450Y15710D01*
X00450Y15292D01*
X00610Y14906D01*
X00905Y14610D01*
X01290Y14450D01*
X01708Y14450D01*
X02094Y14610D01*
X02390Y14905D01*
X02550Y15290D01*
X02550Y13502D01*
X02491Y13561D01*
X02400Y13599D01*
X02301Y13599D01*
X01601Y13599D01*
X01509Y13561D01*
X01439Y13491D01*
X01401Y13400D01*
X01401Y13301D01*
X01401Y12601D01*
X01439Y12509D01*
X01509Y12439D01*
X01600Y12401D01*
X01699Y12401D01*
X02349Y12401D01*
X04151Y10599D01*
X03585Y10599D01*
X03493Y10561D01*
X03423Y10491D01*
X03407Y10456D01*
X03361Y10502D01*
X03325Y10467D01*
X03310Y10513D01*
X03091Y10593D01*
X02856Y10582D01*
X02690Y10513D01*
X02657Y10414D01*
X02965Y10106D01*
X03000Y10071D01*
X03071Y10000D01*
X03000Y09929D01*
X02965Y09894D01*
X02929Y09858D01*
X02929Y10000D01*
X02586Y10343D01*
X02508Y10317D01*
X02430Y10343D01*
X02359Y10272D01*
X02359Y10414D01*
X02326Y10513D01*
X02107Y10593D01*
X01872Y10582D01*
X01706Y10513D01*
X01673Y10414D01*
X02016Y10071D01*
X02359Y10414D01*
X02359Y10272D01*
X02087Y10000D01*
X02430Y09657D01*
X02508Y09683D01*
X02586Y09657D01*
X02929Y10000D01*
X02929Y09858D01*
X02657Y09586D01*
X02690Y09487D01*
X02909Y09407D01*
X03144Y09418D01*
X03310Y09487D01*
X03325Y09534D01*
X03343Y09516D01*
X03361Y09498D01*
X03408Y09546D01*
X03423Y09509D01*
X03484Y09448D01*
X03484Y09405D01*
X03343Y09264D01*
X02359Y08280D01*
X02359Y09586D01*
X02016Y09929D01*
X01945Y09858D01*
X01945Y10000D01*
X01602Y10343D01*
X01503Y10310D01*
X01423Y10091D01*
X01434Y09856D01*
X01503Y09690D01*
X01602Y09657D01*
X01945Y10000D01*
X01945Y09858D01*
X01673Y09586D01*
X01706Y09487D01*
X01925Y09407D01*
X02160Y09418D01*
X02326Y09487D01*
X02359Y09586D01*
X02359Y08280D01*
X01646Y07567D01*
X01538Y07405D01*
X01499Y07213D01*
X01500Y07209D01*
X01500Y07166D01*
X01475Y07105D01*
X01475Y06896D01*
X01555Y06703D01*
X01702Y06555D01*
X01835Y06500D01*
X01703Y06445D01*
X01555Y06298D01*
X01475Y06105D01*
X01475Y05896D01*
X01555Y05703D01*
X01702Y05555D01*
X01895Y05475D01*
X02104Y05475D01*
X02297Y05555D01*
X02445Y05702D01*
X02448Y05710D01*
X03500Y05710D01*
X03611Y05732D01*
X03705Y05795D01*
X04387Y06478D01*
X04395Y06475D01*
X04604Y06475D01*
X04644Y06492D01*
X04644Y06009D01*
X04605Y06025D01*
X04396Y06025D01*
X04203Y05945D01*
X04055Y05798D01*
X03975Y05605D01*
X03975Y05396D01*
X03991Y05356D01*
X02566Y05356D01*
X02455Y05334D01*
X02361Y05271D01*
X01612Y04523D01*
X01605Y04525D01*
X01396Y04525D01*
X01203Y04445D01*
X01055Y04298D01*
X00975Y04105D01*
X00975Y03896D01*
X01055Y03703D01*
X01202Y03555D01*
X01395Y03475D01*
X01604Y03475D01*
X01797Y03555D01*
X01945Y03702D01*
X02000Y03836D01*
X02055Y03703D01*
X02202Y03555D01*
X02395Y03475D01*
X02604Y03475D01*
X02797Y03555D01*
X02945Y03702D01*
X03025Y03895D01*
X03025Y04104D01*
X02945Y04297D01*
X02798Y04445D01*
X02605Y04525D01*
X02435Y04525D01*
X02686Y04776D01*
X04814Y04776D01*
X08477Y01113D01*
X08475Y01105D01*
X08475Y00896D01*
X08555Y00703D01*
X08702Y00555D01*
X08895Y00475D01*
X09104Y00475D01*
X09111Y00479D01*
X09265Y00325D01*
X05025Y00325D01*
X05025Y03895D01*
X05025Y04104D01*
X04945Y04297D01*
X04798Y04445D01*
X04605Y04525D01*
X04396Y04525D01*
X04203Y04445D01*
X04055Y04298D01*
X03975Y04105D01*
X03975Y03896D01*
X04055Y03703D01*
X04202Y03555D01*
X04395Y03475D01*
X04604Y03475D01*
X04797Y03555D01*
X04945Y03702D01*
X05025Y03895D01*
X05025Y00325D01*
X02550Y00325D01*
X02550Y01290D01*
X02550Y01708D01*
X02390Y02094D01*
X02095Y02390D01*
X01710Y02550D01*
X01292Y02550D01*
X00906Y02390D01*
X00610Y02095D01*
X00450Y01710D01*
X00450Y01292D01*
X00610Y00906D01*
X00905Y00610D01*
X01290Y00450D01*
X01708Y00450D01*
X02094Y00610D01*
X02390Y00905D01*
X02550Y01290D01*
X02550Y00325D01*
X00325Y00325D01*
X00325Y16675D01*
X20003Y16675D01*
G54D10*
G36*
X65675Y00325D02*
X65550Y00325D01*
X65550Y01290D01*
X65550Y01708D01*
X65550Y15290D01*
X65550Y15708D01*
X65390Y16094D01*
X65095Y16390D01*
X64710Y16550D01*
X64292Y16550D01*
X63906Y16390D01*
X63610Y16095D01*
X63450Y15710D01*
X63450Y15292D01*
X63610Y14906D01*
X63905Y14610D01*
X64290Y14450D01*
X64708Y14450D01*
X65094Y14610D01*
X65390Y14905D01*
X65550Y15290D01*
X65550Y01708D01*
X65390Y02094D01*
X65095Y02390D01*
X64710Y02550D01*
X64299Y02550D01*
X64299Y08141D01*
X64299Y08359D01*
X64215Y08561D01*
X64075Y08701D01*
X64099Y08701D01*
X64191Y08739D01*
X64261Y08809D01*
X64299Y08900D01*
X64299Y08999D01*
X64299Y09599D01*
X64261Y09691D01*
X64191Y09761D01*
X64100Y09799D01*
X64043Y09799D01*
X64043Y11921D01*
X64032Y12134D01*
X63972Y12281D01*
X63878Y12308D01*
X63808Y12238D01*
X63808Y12378D01*
X63781Y12472D01*
X63579Y12543D01*
X63366Y12532D01*
X63219Y12472D01*
X63192Y12378D01*
X63500Y12071D01*
X63808Y12378D01*
X63808Y12238D01*
X63571Y12000D01*
X63878Y11692D01*
X63972Y11719D01*
X64043Y11921D01*
X64043Y09799D01*
X64001Y09799D01*
X63808Y09799D01*
X63808Y11622D01*
X63500Y11929D01*
X63429Y11859D01*
X63429Y12000D01*
X63122Y12308D01*
X63028Y12281D01*
X62957Y12079D01*
X62968Y11866D01*
X63028Y11719D01*
X63122Y11692D01*
X63429Y12000D01*
X63429Y11859D01*
X63192Y11622D01*
X63219Y11528D01*
X63421Y11457D01*
X63634Y11468D01*
X63781Y11528D01*
X63808Y11622D01*
X63808Y09799D01*
X63401Y09799D01*
X63309Y09761D01*
X63239Y09691D01*
X63201Y09600D01*
X63201Y09501D01*
X63201Y08901D01*
X63239Y08809D01*
X63309Y08739D01*
X63400Y08701D01*
X63425Y08701D01*
X63285Y08561D01*
X63201Y08359D01*
X63201Y08141D01*
X63285Y07939D01*
X63439Y07785D01*
X63641Y07701D01*
X63859Y07701D01*
X64061Y07785D01*
X64215Y07939D01*
X64299Y08141D01*
X64299Y02550D01*
X64292Y02550D01*
X63906Y02390D01*
X63610Y02095D01*
X63450Y01710D01*
X63450Y01292D01*
X63610Y00906D01*
X63905Y00610D01*
X64290Y00450D01*
X64708Y00450D01*
X65094Y00610D01*
X65390Y00905D01*
X65550Y01290D01*
X65550Y00325D01*
X65000Y00325D01*
X63217Y00325D01*
X63217Y01307D01*
X63217Y01692D01*
X63070Y02047D01*
X62798Y02320D01*
X62443Y02467D01*
X62290Y02467D01*
X62290Y04922D01*
X62278Y05134D01*
X62275Y05142D01*
X62275Y09145D01*
X62275Y09354D01*
X62195Y09547D01*
X62048Y09695D01*
X62040Y09699D01*
X62040Y14195D01*
X62018Y14306D01*
X61955Y14400D01*
X61150Y15205D01*
X61056Y15268D01*
X61002Y15279D01*
X61049Y15391D01*
X61049Y15609D01*
X60965Y15811D01*
X60811Y15965D01*
X60609Y16049D01*
X60391Y16049D01*
X60189Y15965D01*
X60035Y15811D01*
X60000Y15727D01*
X59965Y15811D01*
X59811Y15965D01*
X59609Y16049D01*
X59391Y16049D01*
X59189Y15965D01*
X59035Y15811D01*
X59000Y15727D01*
X58965Y15811D01*
X58811Y15965D01*
X58609Y16049D01*
X58391Y16049D01*
X58189Y15965D01*
X58035Y15811D01*
X57951Y15609D01*
X57951Y15391D01*
X58035Y15189D01*
X58175Y15049D01*
X58151Y15049D01*
X58059Y15011D01*
X57989Y14941D01*
X57951Y14850D01*
X57951Y14751D01*
X57951Y14151D01*
X57989Y14059D01*
X58059Y13989D01*
X58150Y13951D01*
X58249Y13951D01*
X58849Y13951D01*
X58941Y13989D01*
X59011Y14059D01*
X59049Y14150D01*
X59049Y14175D01*
X59099Y14125D01*
X57334Y12359D01*
X56383Y12359D01*
X56298Y12445D01*
X56105Y12525D01*
X55896Y12525D01*
X55856Y12509D01*
X55856Y14314D01*
X56820Y15278D01*
X56820Y15279D01*
X56821Y15279D01*
X56883Y15372D01*
X56884Y15373D01*
X56905Y15483D01*
X56906Y15484D01*
X56906Y15516D01*
X56905Y15517D01*
X56884Y15627D01*
X56883Y15628D01*
X56862Y15659D01*
X56821Y15721D01*
X56821Y15722D01*
X56090Y16452D01*
X55996Y16515D01*
X55885Y16537D01*
X54747Y16537D01*
X54636Y16515D01*
X54542Y16452D01*
X54130Y16041D01*
X54109Y16049D01*
X53891Y16049D01*
X53689Y15965D01*
X53535Y15811D01*
X53500Y15727D01*
X53465Y15811D01*
X53311Y15965D01*
X53109Y16049D01*
X52891Y16049D01*
X52689Y15965D01*
X52535Y15811D01*
X52500Y15727D01*
X52465Y15811D01*
X52311Y15965D01*
X52109Y16049D01*
X51891Y16049D01*
X51689Y15965D01*
X51549Y15825D01*
X51549Y15849D01*
X51511Y15941D01*
X51441Y16011D01*
X51350Y16049D01*
X51251Y16049D01*
X50651Y16049D01*
X50559Y16011D01*
X50489Y15941D01*
X50451Y15850D01*
X50451Y15751D01*
X50451Y15151D01*
X50489Y15059D01*
X50559Y14989D01*
X50650Y14951D01*
X50710Y14951D01*
X50710Y13549D01*
X50151Y13549D01*
X50059Y13511D01*
X49989Y13441D01*
X49951Y13350D01*
X49951Y13251D01*
X49951Y12814D01*
X49874Y12762D01*
X49852Y12740D01*
X49789Y12646D01*
X49767Y12535D01*
X49767Y12177D01*
X49525Y11935D01*
X49525Y12104D01*
X49445Y12297D01*
X49298Y12445D01*
X49164Y12501D01*
X49297Y12555D01*
X49445Y12702D01*
X49525Y12895D01*
X49525Y13104D01*
X49445Y13297D01*
X49298Y13445D01*
X49164Y13501D01*
X49297Y13555D01*
X49445Y13702D01*
X49525Y13895D01*
X49525Y14104D01*
X49445Y14297D01*
X49298Y14445D01*
X49164Y14501D01*
X49297Y14555D01*
X49445Y14702D01*
X49525Y14895D01*
X49525Y15104D01*
X49445Y15297D01*
X49298Y15445D01*
X49105Y15525D01*
X48896Y15525D01*
X48703Y15445D01*
X48555Y15298D01*
X48475Y15105D01*
X48475Y14896D01*
X48555Y14703D01*
X48702Y14555D01*
X48835Y14500D01*
X48703Y14445D01*
X48555Y14298D01*
X48475Y14105D01*
X48475Y13896D01*
X48555Y13703D01*
X48702Y13555D01*
X48835Y13500D01*
X48703Y13445D01*
X48555Y13298D01*
X48475Y13105D01*
X48475Y12896D01*
X48555Y12703D01*
X48702Y12555D01*
X48835Y12500D01*
X48703Y12445D01*
X48555Y12298D01*
X48475Y12105D01*
X48475Y11896D01*
X48555Y11703D01*
X48702Y11555D01*
X48835Y11500D01*
X48703Y11445D01*
X48555Y11298D01*
X48475Y11105D01*
X48475Y10896D01*
X48555Y10703D01*
X48702Y10555D01*
X48835Y10500D01*
X48703Y10445D01*
X48555Y10298D01*
X48475Y10105D01*
X48475Y09896D01*
X48555Y09703D01*
X48702Y09555D01*
X48835Y09500D01*
X48703Y09445D01*
X48555Y09298D01*
X48475Y09105D01*
X48475Y08896D01*
X48555Y08703D01*
X48702Y08555D01*
X48835Y08500D01*
X48703Y08445D01*
X48555Y08298D01*
X48542Y08267D01*
X47094Y09715D01*
X47094Y14229D01*
X47093Y14230D01*
X47072Y14340D01*
X47071Y14341D01*
X47009Y14434D01*
X47008Y14435D01*
X46804Y14639D01*
X46710Y14702D01*
X46599Y14724D01*
X46454Y14724D01*
X46525Y14895D01*
X46525Y15104D01*
X46445Y15297D01*
X46298Y15445D01*
X46105Y15525D01*
X45896Y15525D01*
X45703Y15445D01*
X45555Y15298D01*
X45538Y15258D01*
X45290Y15506D01*
X45290Y15553D01*
X45297Y15555D01*
X45445Y15702D01*
X45525Y15895D01*
X45525Y16104D01*
X45445Y16297D01*
X45298Y16445D01*
X45105Y16525D01*
X44896Y16525D01*
X44703Y16445D01*
X44555Y16298D01*
X44475Y16105D01*
X44475Y15896D01*
X44555Y15703D01*
X44702Y15555D01*
X44710Y15552D01*
X44710Y15386D01*
X44732Y15275D01*
X44795Y15181D01*
X44951Y15025D01*
X44896Y15025D01*
X44703Y14945D01*
X44555Y14798D01*
X44475Y14605D01*
X44475Y14396D01*
X44555Y14203D01*
X44702Y14055D01*
X44710Y14052D01*
X44710Y13079D01*
X44731Y12973D01*
X44605Y13025D01*
X44396Y13025D01*
X44203Y12945D01*
X44055Y12798D01*
X43999Y12665D01*
X43945Y12797D01*
X43798Y12945D01*
X43605Y13025D01*
X43396Y13025D01*
X43203Y12945D01*
X43055Y12798D01*
X42975Y12605D01*
X42975Y12396D01*
X43055Y12203D01*
X43202Y12055D01*
X43395Y11975D01*
X43604Y11975D01*
X43611Y11979D01*
X44041Y11549D01*
X43891Y11549D01*
X43689Y11465D01*
X43535Y11311D01*
X43451Y11109D01*
X43451Y10891D01*
X43500Y10774D01*
X43500Y09724D01*
X42525Y08749D01*
X42525Y14395D01*
X42525Y14604D01*
X42445Y14797D01*
X42298Y14945D01*
X42105Y15025D01*
X41896Y15025D01*
X41703Y14945D01*
X41555Y14798D01*
X41475Y14605D01*
X41475Y14396D01*
X41555Y14203D01*
X41702Y14055D01*
X41895Y13975D01*
X42104Y13975D01*
X42297Y14055D01*
X42445Y14202D01*
X42525Y14395D01*
X42525Y08749D01*
X41375Y07599D01*
X41085Y07599D01*
X40993Y07561D01*
X40923Y07491D01*
X40907Y07456D01*
X40861Y07502D01*
X40825Y07467D01*
X40810Y07513D01*
X40591Y07593D01*
X40356Y07582D01*
X40190Y07513D01*
X40157Y07414D01*
X40465Y07106D01*
X40500Y07071D01*
X40571Y07000D01*
X40500Y06929D01*
X40465Y06894D01*
X40429Y06858D01*
X40429Y07000D01*
X40086Y07343D01*
X40008Y07317D01*
X39930Y07343D01*
X39587Y07000D01*
X39930Y06657D01*
X40008Y06683D01*
X40086Y06657D01*
X40429Y07000D01*
X40429Y06858D01*
X40157Y06586D01*
X40190Y06487D01*
X40409Y06407D01*
X40644Y06418D01*
X40810Y06487D01*
X40825Y06534D01*
X40843Y06516D01*
X40861Y06498D01*
X40908Y06546D01*
X40923Y06509D01*
X40993Y06439D01*
X41084Y06401D01*
X41183Y06401D01*
X41883Y06401D01*
X41975Y06439D01*
X42045Y06509D01*
X42083Y06600D01*
X42083Y06699D01*
X42083Y06892D01*
X44351Y09161D01*
X44353Y09162D01*
X44354Y09162D01*
X44383Y09207D01*
X45477Y08113D01*
X45475Y08105D01*
X45475Y07896D01*
X45555Y07703D01*
X45702Y07555D01*
X45835Y07500D01*
X45703Y07445D01*
X45555Y07298D01*
X45475Y07105D01*
X45475Y06896D01*
X45555Y06703D01*
X45702Y06555D01*
X45835Y06500D01*
X45703Y06445D01*
X45555Y06298D01*
X45475Y06105D01*
X45475Y05896D01*
X45555Y05703D01*
X45702Y05555D01*
X45835Y05500D01*
X45703Y05445D01*
X45555Y05298D01*
X45475Y05105D01*
X45475Y04896D01*
X45555Y04703D01*
X45702Y04555D01*
X45835Y04500D01*
X45703Y04445D01*
X45555Y04298D01*
X45475Y04105D01*
X45475Y03896D01*
X45555Y03703D01*
X45702Y03555D01*
X45835Y03500D01*
X45703Y03445D01*
X45555Y03298D01*
X45475Y03105D01*
X45475Y02896D01*
X45555Y02703D01*
X45702Y02555D01*
X45835Y02500D01*
X45703Y02445D01*
X45555Y02298D01*
X45475Y02105D01*
X45475Y01896D01*
X45555Y01703D01*
X45702Y01555D01*
X45895Y01475D01*
X46104Y01475D01*
X46297Y01555D01*
X46445Y01702D01*
X46525Y01895D01*
X46525Y02104D01*
X46445Y02297D01*
X46298Y02445D01*
X46164Y02501D01*
X46297Y02555D01*
X46445Y02702D01*
X46525Y02895D01*
X46525Y03104D01*
X46445Y03297D01*
X46298Y03445D01*
X46164Y03501D01*
X46297Y03555D01*
X46445Y03702D01*
X46525Y03895D01*
X46525Y04104D01*
X46445Y04297D01*
X46298Y04445D01*
X46164Y04501D01*
X46297Y04555D01*
X46445Y04702D01*
X46525Y04895D01*
X46525Y05104D01*
X46445Y05297D01*
X46298Y05445D01*
X46164Y05501D01*
X46297Y05555D01*
X46445Y05702D01*
X46525Y05895D01*
X46525Y06104D01*
X46445Y06297D01*
X46298Y06445D01*
X46164Y06501D01*
X46297Y06555D01*
X46445Y06702D01*
X46525Y06895D01*
X46525Y07104D01*
X46445Y07297D01*
X46298Y07445D01*
X46164Y07501D01*
X46297Y07555D01*
X46445Y07702D01*
X46525Y07895D01*
X46525Y08104D01*
X46445Y08297D01*
X46298Y08445D01*
X46164Y08501D01*
X46297Y08555D01*
X46445Y08702D01*
X46525Y08895D01*
X46525Y09065D01*
X48477Y07113D01*
X48475Y07105D01*
X48475Y06896D01*
X48555Y06703D01*
X48702Y06555D01*
X48835Y06500D01*
X48703Y06445D01*
X48555Y06298D01*
X48475Y06105D01*
X48475Y05896D01*
X48555Y05703D01*
X48702Y05555D01*
X48835Y05500D01*
X48703Y05445D01*
X48555Y05298D01*
X48475Y05105D01*
X48475Y04896D01*
X48555Y04703D01*
X48702Y04555D01*
X48835Y04500D01*
X48703Y04445D01*
X48555Y04298D01*
X48475Y04105D01*
X48475Y03896D01*
X48555Y03703D01*
X48702Y03555D01*
X48835Y03500D01*
X48703Y03445D01*
X48555Y03298D01*
X48475Y03105D01*
X48475Y02896D01*
X48555Y02703D01*
X48702Y02555D01*
X48739Y02540D01*
X48732Y02529D01*
X48731Y02524D01*
X48676Y02524D01*
X48584Y02486D01*
X48514Y02416D01*
X48476Y02325D01*
X48476Y02226D01*
X48476Y01676D01*
X48514Y01584D01*
X48584Y01514D01*
X48675Y01476D01*
X48774Y01476D01*
X49324Y01476D01*
X49416Y01514D01*
X49486Y01584D01*
X49524Y01675D01*
X49524Y01774D01*
X49524Y02324D01*
X49486Y02416D01*
X49452Y02450D01*
X51206Y04203D01*
X51206Y03656D01*
X51244Y03564D01*
X51314Y03494D01*
X51405Y03456D01*
X51504Y03456D01*
X52094Y03456D01*
X52186Y03494D01*
X52256Y03564D01*
X52294Y03655D01*
X52294Y03687D01*
X52442Y03539D01*
X52642Y03456D01*
X52858Y03456D01*
X53058Y03539D01*
X53211Y03692D01*
X53250Y03786D01*
X53289Y03692D01*
X53442Y03539D01*
X53642Y03456D01*
X53858Y03456D01*
X54058Y03539D01*
X54211Y03692D01*
X54250Y03786D01*
X54289Y03692D01*
X54442Y03539D01*
X54642Y03456D01*
X54858Y03456D01*
X55058Y03539D01*
X55211Y03692D01*
X55254Y03797D01*
X55601Y04145D01*
X55603Y04146D01*
X55604Y04146D01*
X55668Y04244D01*
X55712Y04308D01*
X55712Y04309D01*
X55750Y04500D01*
X55751Y04500D01*
X55750Y04505D01*
X55750Y04786D01*
X55794Y04892D01*
X55794Y05108D01*
X55711Y05308D01*
X55558Y05461D01*
X55358Y05544D01*
X55142Y05544D01*
X54942Y05461D01*
X54789Y05308D01*
X54750Y05215D01*
X54711Y05308D01*
X54558Y05461D01*
X54358Y05544D01*
X54142Y05544D01*
X53942Y05461D01*
X53789Y05308D01*
X53750Y05215D01*
X53711Y05308D01*
X53558Y05461D01*
X53358Y05544D01*
X53204Y05544D01*
X54387Y06728D01*
X54395Y06725D01*
X54604Y06725D01*
X54797Y06805D01*
X54945Y06952D01*
X55025Y07145D01*
X55025Y07187D01*
X56008Y07187D01*
X55975Y07105D01*
X55975Y06896D01*
X56055Y06703D01*
X56202Y06555D01*
X56395Y06475D01*
X56604Y06475D01*
X56797Y06555D01*
X56945Y06702D01*
X57000Y06836D01*
X57055Y06703D01*
X57202Y06555D01*
X57210Y06552D01*
X57210Y04312D01*
X57232Y04201D01*
X57295Y04107D01*
X57607Y03795D01*
X57701Y03732D01*
X57706Y03732D01*
X57706Y03656D01*
X57744Y03564D01*
X57814Y03494D01*
X57905Y03456D01*
X58004Y03456D01*
X58594Y03456D01*
X58686Y03494D01*
X58756Y03564D01*
X58794Y03655D01*
X58794Y03687D01*
X58942Y03539D01*
X59142Y03456D01*
X59358Y03456D01*
X59558Y03539D01*
X59711Y03692D01*
X59750Y03786D01*
X59789Y03692D01*
X59942Y03539D01*
X60142Y03456D01*
X60358Y03456D01*
X60558Y03539D01*
X60711Y03692D01*
X60752Y03793D01*
X60782Y03721D01*
X60875Y03696D01*
X61179Y04000D01*
X60875Y04304D01*
X60782Y04279D01*
X60754Y04203D01*
X60711Y04308D01*
X60558Y04461D01*
X60358Y04544D01*
X60142Y04544D01*
X59942Y04461D01*
X59789Y04308D01*
X59750Y04215D01*
X59711Y04308D01*
X59558Y04461D01*
X59358Y04544D01*
X59142Y04544D01*
X58942Y04461D01*
X58794Y04313D01*
X58794Y04344D01*
X58756Y04436D01*
X58736Y04456D01*
X58858Y04456D01*
X59058Y04539D01*
X59211Y04692D01*
X59250Y04786D01*
X59289Y04692D01*
X59442Y04539D01*
X59642Y04456D01*
X59858Y04456D01*
X60058Y04539D01*
X60211Y04692D01*
X60250Y04786D01*
X60289Y04692D01*
X60442Y04539D01*
X60642Y04456D01*
X60858Y04456D01*
X61058Y04539D01*
X61211Y04692D01*
X61252Y04793D01*
X61282Y04721D01*
X61375Y04696D01*
X61679Y05000D01*
X61375Y05304D01*
X61282Y05279D01*
X61254Y05203D01*
X61211Y05308D01*
X61058Y05461D01*
X60858Y05544D01*
X60642Y05544D01*
X60442Y05461D01*
X60289Y05308D01*
X60250Y05215D01*
X60211Y05308D01*
X60058Y05461D01*
X59858Y05544D01*
X59642Y05544D01*
X59442Y05461D01*
X59289Y05308D01*
X59250Y05215D01*
X59211Y05308D01*
X59058Y05461D01*
X58858Y05544D01*
X58642Y05544D01*
X58442Y05461D01*
X58289Y05308D01*
X58206Y05108D01*
X58206Y04892D01*
X58289Y04692D01*
X58437Y04544D01*
X57906Y04544D01*
X57814Y04506D01*
X57790Y04482D01*
X57790Y06553D01*
X57797Y06555D01*
X57945Y06702D01*
X58000Y06836D01*
X58055Y06703D01*
X58202Y06555D01*
X58395Y06475D01*
X58604Y06475D01*
X58797Y06555D01*
X58945Y06702D01*
X59000Y06836D01*
X59055Y06703D01*
X59202Y06555D01*
X59395Y06475D01*
X59604Y06475D01*
X59797Y06555D01*
X59945Y06702D01*
X60025Y06895D01*
X60025Y07104D01*
X60021Y07112D01*
X61231Y08322D01*
X61242Y08120D01*
X61298Y07983D01*
X61389Y07960D01*
X61644Y08215D01*
X61679Y08250D01*
X61750Y08321D01*
X61785Y08356D01*
X62040Y08611D01*
X62017Y08702D01*
X61898Y08744D01*
X62047Y08805D01*
X62195Y08952D01*
X62275Y09145D01*
X62275Y05142D01*
X62269Y05156D01*
X62269Y08176D01*
X62258Y08380D01*
X62202Y08517D01*
X62111Y08540D01*
X61821Y08250D01*
X62111Y07960D01*
X62202Y07983D01*
X62269Y08176D01*
X62269Y05156D01*
X62218Y05279D01*
X62125Y05304D01*
X62054Y05233D01*
X62054Y05375D01*
X62040Y05428D01*
X62040Y07889D01*
X61750Y08179D01*
X61460Y07889D01*
X61483Y07798D01*
X61676Y07731D01*
X61880Y07742D01*
X62017Y07798D01*
X62040Y07889D01*
X62040Y05428D01*
X62029Y05468D01*
X61828Y05540D01*
X61616Y05528D01*
X61471Y05468D01*
X61446Y05375D01*
X61750Y05071D01*
X62054Y05375D01*
X62054Y05233D01*
X61821Y05000D01*
X62125Y04696D01*
X62218Y04721D01*
X62290Y04922D01*
X62290Y02467D01*
X62058Y02467D01*
X62054Y02466D01*
X62054Y04625D01*
X61750Y04929D01*
X61446Y04625D01*
X61471Y04532D01*
X61672Y04460D01*
X61884Y04472D01*
X62029Y04532D01*
X62054Y04625D01*
X62054Y02466D01*
X61790Y02357D01*
X61790Y03922D01*
X61778Y04134D01*
X61718Y04279D01*
X61625Y04304D01*
X61554Y04233D01*
X61554Y04375D01*
X61529Y04468D01*
X61328Y04540D01*
X61116Y04528D01*
X60971Y04468D01*
X60946Y04375D01*
X61250Y04071D01*
X61554Y04375D01*
X61554Y04233D01*
X61321Y04000D01*
X61625Y03696D01*
X61718Y03721D01*
X61790Y03922D01*
X61790Y02357D01*
X61703Y02320D01*
X61554Y02172D01*
X61554Y03625D01*
X61250Y03929D01*
X60946Y03625D01*
X60971Y03532D01*
X61172Y03460D01*
X61384Y03472D01*
X61529Y03532D01*
X61554Y03625D01*
X61554Y02172D01*
X61430Y02048D01*
X61283Y01693D01*
X61283Y01308D01*
X61430Y00953D01*
X61702Y00680D01*
X62057Y00533D01*
X62442Y00533D01*
X62797Y00680D01*
X63070Y00952D01*
X63217Y01307D01*
X63217Y00325D01*
X58717Y00325D01*
X58717Y01307D01*
X58717Y01692D01*
X58570Y02047D01*
X58298Y02320D01*
X57943Y02467D01*
X57558Y02467D01*
X57203Y02320D01*
X56930Y02048D01*
X56783Y01693D01*
X56783Y01308D01*
X56930Y00953D01*
X57202Y00680D01*
X57557Y00533D01*
X57942Y00533D01*
X58297Y00680D01*
X58570Y00952D01*
X58717Y01307D01*
X58717Y00325D01*
X56717Y00325D01*
X56717Y01307D01*
X56717Y01692D01*
X56570Y02047D01*
X56298Y02320D01*
X55943Y02467D01*
X55558Y02467D01*
X55203Y02320D01*
X54930Y02048D01*
X54783Y01693D01*
X54783Y01308D01*
X54930Y00953D01*
X55202Y00680D01*
X55557Y00533D01*
X55942Y00533D01*
X56297Y00680D01*
X56570Y00952D01*
X56717Y01307D01*
X56717Y00325D01*
X52217Y00325D01*
X52217Y01307D01*
X52217Y01692D01*
X52070Y02047D01*
X51798Y02320D01*
X51443Y02467D01*
X51058Y02467D01*
X50703Y02320D01*
X50430Y02048D01*
X50283Y01693D01*
X50283Y01308D01*
X50430Y00953D01*
X50702Y00680D01*
X51057Y00533D01*
X51442Y00533D01*
X51797Y00680D01*
X52070Y00952D01*
X52217Y01307D01*
X52217Y00325D01*
X44543Y00325D01*
X44543Y05921D01*
X44532Y06134D01*
X44472Y06281D01*
X44378Y06308D01*
X44308Y06238D01*
X44308Y06378D01*
X44281Y06472D01*
X44079Y06543D01*
X43866Y06532D01*
X43719Y06472D01*
X43692Y06378D01*
X44000Y06071D01*
X44308Y06378D01*
X44308Y06238D01*
X44071Y06000D01*
X44378Y05692D01*
X44472Y05719D01*
X44543Y05921D01*
X44543Y00325D01*
X44308Y00325D01*
X44308Y05622D01*
X44000Y05929D01*
X43929Y05859D01*
X43929Y06000D01*
X43622Y06308D01*
X43528Y06281D01*
X43457Y06079D01*
X43468Y05866D01*
X43528Y05719D01*
X43622Y05692D01*
X43929Y06000D01*
X43929Y05859D01*
X43692Y05622D01*
X43719Y05528D01*
X43921Y05457D01*
X44134Y05468D01*
X44281Y05528D01*
X44308Y05622D01*
X44308Y00325D01*
X41025Y00325D01*
X41025Y03888D01*
X41025Y04112D01*
X41024Y04226D01*
X41024Y04325D01*
X40986Y04416D01*
X40916Y04486D01*
X40843Y04517D01*
X40824Y04524D01*
X40612Y04525D01*
X40550Y04463D01*
X40550Y04050D01*
X40963Y04050D01*
X41025Y04112D01*
X41025Y03888D01*
X40963Y03950D01*
X40550Y03950D01*
X40550Y03537D01*
X40612Y03475D01*
X40824Y03476D01*
X40916Y03514D01*
X40986Y03584D01*
X41024Y03675D01*
X41024Y03774D01*
X41025Y03888D01*
X41025Y00325D01*
X38025Y00325D01*
X38025Y00895D01*
X38025Y01104D01*
X37945Y01297D01*
X37798Y01445D01*
X37605Y01525D01*
X37396Y01525D01*
X37203Y01445D01*
X37055Y01298D01*
X36975Y01105D01*
X36975Y00896D01*
X37055Y00703D01*
X37202Y00555D01*
X37395Y00475D01*
X37604Y00475D01*
X37797Y00555D01*
X37945Y00702D01*
X38025Y00895D01*
X38025Y00325D01*
X35025Y00325D01*
X35025Y00895D01*
X35025Y01104D01*
X34945Y01297D01*
X34798Y01445D01*
X34605Y01525D01*
X34396Y01525D01*
X34203Y01445D01*
X34055Y01298D01*
X33975Y01105D01*
X33975Y00896D01*
X34055Y00703D01*
X34202Y00555D01*
X34395Y00475D01*
X34604Y00475D01*
X34797Y00555D01*
X34945Y00702D01*
X35025Y00895D01*
X35025Y00325D01*
X27525Y00325D01*
X27525Y00895D01*
X27525Y01104D01*
X27445Y01297D01*
X27298Y01445D01*
X27105Y01525D01*
X26896Y01525D01*
X26703Y01445D01*
X26555Y01298D01*
X26475Y01105D01*
X26475Y00896D01*
X26555Y00703D01*
X26702Y00555D01*
X26895Y00475D01*
X27104Y00475D01*
X27297Y00555D01*
X27445Y00702D01*
X27525Y00895D01*
X27525Y00325D01*
X24235Y00325D01*
X24387Y00478D01*
X24395Y00475D01*
X24604Y00475D01*
X24797Y00555D01*
X24945Y00702D01*
X25000Y00836D01*
X25055Y00703D01*
X25202Y00555D01*
X25395Y00475D01*
X25604Y00475D01*
X25797Y00555D01*
X25945Y00702D01*
X26025Y00895D01*
X26025Y01104D01*
X26021Y01112D01*
X26887Y01978D01*
X26895Y01975D01*
X27104Y01975D01*
X27297Y02055D01*
X27445Y02202D01*
X27525Y02395D01*
X27525Y02604D01*
X27445Y02797D01*
X27298Y02945D01*
X27261Y02960D01*
X29129Y02960D01*
X29477Y02612D01*
X29475Y02605D01*
X29475Y02396D01*
X29555Y02203D01*
X29702Y02055D01*
X29710Y02052D01*
X29710Y01448D01*
X29703Y01445D01*
X29555Y01298D01*
X29475Y01105D01*
X29475Y00896D01*
X29555Y00703D01*
X29702Y00555D01*
X29895Y00475D01*
X30104Y00475D01*
X30297Y00555D01*
X30445Y00702D01*
X30525Y00895D01*
X30525Y01104D01*
X30445Y01297D01*
X30298Y01445D01*
X30290Y01449D01*
X30290Y02053D01*
X30297Y02055D01*
X30445Y02202D01*
X30525Y02395D01*
X30525Y02604D01*
X30525Y03895D01*
X30525Y04104D01*
X30445Y04297D01*
X30298Y04445D01*
X30105Y04525D01*
X29896Y04525D01*
X29703Y04445D01*
X29555Y04298D01*
X29543Y04270D01*
X29543Y05921D01*
X29532Y06134D01*
X29472Y06281D01*
X29378Y06308D01*
X29308Y06238D01*
X29308Y06378D01*
X29281Y06472D01*
X29079Y06543D01*
X28866Y06532D01*
X28719Y06472D01*
X28692Y06378D01*
X29000Y06071D01*
X29308Y06378D01*
X29308Y06238D01*
X29071Y06000D01*
X29378Y05692D01*
X29472Y05719D01*
X29543Y05921D01*
X29543Y04270D01*
X29475Y04105D01*
X29475Y03896D01*
X29555Y03703D01*
X29702Y03555D01*
X29895Y03475D01*
X30104Y03475D01*
X30297Y03555D01*
X30445Y03702D01*
X30525Y03895D01*
X30525Y02604D01*
X30445Y02797D01*
X30298Y02945D01*
X30105Y03025D01*
X29896Y03025D01*
X29888Y03022D01*
X29455Y03455D01*
X29361Y03518D01*
X29308Y03529D01*
X29308Y05622D01*
X29000Y05929D01*
X28929Y05859D01*
X28929Y06000D01*
X28622Y06308D01*
X28528Y06281D01*
X28457Y06079D01*
X28468Y05866D01*
X28528Y05719D01*
X28622Y05692D01*
X28929Y06000D01*
X28929Y05859D01*
X28692Y05622D01*
X28719Y05528D01*
X28921Y05457D01*
X29134Y05468D01*
X29281Y05528D01*
X29308Y05622D01*
X29308Y03529D01*
X29250Y03540D01*
X27260Y03540D01*
X27297Y03555D01*
X27445Y03702D01*
X27525Y03895D01*
X27525Y04104D01*
X27445Y04297D01*
X27298Y04445D01*
X27105Y04525D01*
X26896Y04525D01*
X26703Y04445D01*
X26555Y04298D01*
X26475Y04105D01*
X26475Y03896D01*
X26478Y03889D01*
X26025Y03436D01*
X26025Y03888D01*
X25963Y03950D01*
X25550Y03950D01*
X25550Y03537D01*
X25612Y03475D01*
X25824Y03476D01*
X25916Y03514D01*
X25986Y03584D01*
X26024Y03675D01*
X26024Y03774D01*
X26025Y03888D01*
X26025Y03436D01*
X25880Y03290D01*
X24947Y03290D01*
X24945Y03297D01*
X24798Y03445D01*
X24664Y03501D01*
X24797Y03555D01*
X24945Y03702D01*
X24975Y03777D01*
X24976Y03774D01*
X24976Y03675D01*
X25014Y03584D01*
X25084Y03514D01*
X25176Y03476D01*
X25388Y03475D01*
X25450Y03537D01*
X25450Y03900D01*
X25450Y03950D01*
X25450Y04050D01*
X25550Y04050D01*
X25600Y04050D01*
X25963Y04050D01*
X26025Y04112D01*
X26024Y04226D01*
X26024Y04325D01*
X25986Y04416D01*
X25916Y04486D01*
X25824Y04524D01*
X25612Y04525D01*
X25600Y04513D01*
X25600Y04525D01*
X25518Y04525D01*
X26835Y05842D01*
X26837Y05843D01*
X26838Y05843D01*
X26945Y06005D01*
X26946Y06006D01*
X26976Y06158D01*
X26984Y06196D01*
X26983Y06197D01*
X26984Y06197D01*
X26984Y06448D01*
X27045Y06509D01*
X27083Y06600D01*
X27083Y06699D01*
X27083Y07399D01*
X27045Y07491D01*
X26984Y07552D01*
X26984Y07739D01*
X26984Y07741D01*
X27000Y07819D01*
X27000Y09653D01*
X27008Y09661D01*
X27099Y09881D01*
X27099Y09892D01*
X27707Y10500D01*
X28773Y10500D01*
X28891Y10451D01*
X29109Y10451D01*
X29311Y10535D01*
X29465Y10689D01*
X29549Y10891D01*
X29549Y11109D01*
X29465Y11311D01*
X29311Y11465D01*
X29109Y11549D01*
X28891Y11549D01*
X28773Y11500D01*
X27500Y11500D01*
X27308Y11462D01*
X27243Y11419D01*
X27146Y11354D01*
X27144Y11352D01*
X26391Y10599D01*
X26381Y10599D01*
X26161Y10508D01*
X26000Y10347D01*
X25839Y10508D01*
X25619Y10599D01*
X25381Y10599D01*
X25161Y10508D01*
X25085Y10433D01*
X25061Y10491D01*
X24991Y10561D01*
X24900Y10599D01*
X24808Y10599D01*
X24808Y14122D01*
X24500Y14429D01*
X24429Y14359D01*
X24429Y14500D01*
X24122Y14808D01*
X24028Y14781D01*
X23957Y14579D01*
X23968Y14366D01*
X24028Y14219D01*
X24122Y14192D01*
X24429Y14500D01*
X24429Y14359D01*
X24192Y14122D01*
X24219Y14028D01*
X24421Y13957D01*
X24634Y13968D01*
X24781Y14028D01*
X24808Y14122D01*
X24808Y10599D01*
X24801Y10599D01*
X24101Y10599D01*
X24009Y10561D01*
X23939Y10491D01*
X23901Y10400D01*
X23901Y10301D01*
X23901Y09601D01*
X23939Y09509D01*
X24009Y09439D01*
X24100Y09401D01*
X24199Y09401D01*
X24899Y09401D01*
X24991Y09439D01*
X25061Y09509D01*
X25085Y09568D01*
X25161Y09492D01*
X25381Y09401D01*
X25619Y09401D01*
X25839Y09492D01*
X26000Y09653D01*
X26000Y07887D01*
X25983Y07803D01*
X25984Y07799D01*
X25984Y07552D01*
X25923Y07491D01*
X25907Y07456D01*
X25861Y07502D01*
X25825Y07467D01*
X25810Y07513D01*
X25591Y07593D01*
X25356Y07582D01*
X25190Y07513D01*
X25157Y07414D01*
X25465Y07106D01*
X25500Y07071D01*
X25571Y07000D01*
X25500Y06929D01*
X25465Y06894D01*
X25429Y06858D01*
X25429Y07000D01*
X25086Y07343D01*
X25008Y07317D01*
X24930Y07343D01*
X24859Y07272D01*
X24859Y07414D01*
X24826Y07513D01*
X24607Y07593D01*
X24372Y07582D01*
X24206Y07513D01*
X24173Y07414D01*
X24516Y07071D01*
X24859Y07414D01*
X24859Y07272D01*
X24587Y07000D01*
X24930Y06657D01*
X25008Y06683D01*
X25086Y06657D01*
X25429Y07000D01*
X25429Y06858D01*
X25157Y06586D01*
X25190Y06487D01*
X25409Y06407D01*
X25644Y06418D01*
X25810Y06487D01*
X25825Y06534D01*
X25843Y06516D01*
X25861Y06498D01*
X25908Y06546D01*
X25923Y06509D01*
X25984Y06448D01*
X25984Y06405D01*
X25843Y06264D01*
X24859Y05280D01*
X24859Y06586D01*
X24516Y06929D01*
X24445Y06858D01*
X24445Y07000D01*
X24102Y07343D01*
X24003Y07310D01*
X23923Y07091D01*
X23934Y06856D01*
X24003Y06690D01*
X24102Y06657D01*
X24445Y07000D01*
X24445Y06858D01*
X24173Y06586D01*
X24206Y06487D01*
X24425Y06407D01*
X24660Y06418D01*
X24826Y06487D01*
X24859Y06586D01*
X24859Y05280D01*
X24457Y04878D01*
X24457Y05440D01*
X24435Y05551D01*
X24372Y05645D01*
X22598Y07419D01*
X22598Y09828D01*
X22668Y09898D01*
X22733Y10054D01*
X22733Y10223D01*
X22669Y10379D01*
X22550Y10498D01*
X22550Y13388D01*
X22550Y13612D01*
X22550Y15388D01*
X22488Y15450D01*
X22050Y15450D01*
X22050Y15012D01*
X22112Y14950D01*
X22349Y14951D01*
X22441Y14989D01*
X22511Y15059D01*
X22549Y15150D01*
X22549Y15249D01*
X22550Y15388D01*
X22550Y13612D01*
X22549Y13751D01*
X22549Y13850D01*
X22511Y13941D01*
X22441Y14011D01*
X22349Y14049D01*
X22112Y14050D01*
X22050Y13988D01*
X22050Y13550D01*
X22488Y13550D01*
X22550Y13612D01*
X22550Y13388D01*
X22488Y13450D01*
X22050Y13450D01*
X22050Y13012D01*
X22112Y12950D01*
X22349Y12951D01*
X22441Y12989D01*
X22511Y13059D01*
X22549Y13150D01*
X22549Y13249D01*
X22550Y13388D01*
X22550Y10498D01*
X22549Y10499D01*
X22393Y10564D01*
X22224Y10564D01*
X22068Y10500D01*
X22049Y10481D01*
X22049Y10891D01*
X22049Y11109D01*
X21965Y11311D01*
X21811Y11465D01*
X21609Y11549D01*
X21391Y11549D01*
X21189Y11465D01*
X21035Y11311D01*
X20951Y11109D01*
X20951Y10891D01*
X21035Y10689D01*
X21189Y10535D01*
X21391Y10451D01*
X21609Y10451D01*
X21811Y10535D01*
X21965Y10689D01*
X22049Y10891D01*
X22049Y10481D01*
X21948Y10380D01*
X21883Y10224D01*
X21883Y10055D01*
X21947Y09899D01*
X22018Y09828D01*
X22018Y07299D01*
X22040Y07188D01*
X22103Y07094D01*
X23548Y05649D01*
X23443Y05544D01*
X23378Y05388D01*
X23378Y05289D01*
X22611Y04523D01*
X22605Y04525D01*
X22396Y04525D01*
X22203Y04445D01*
X22055Y04298D01*
X22043Y04270D01*
X22043Y05921D01*
X22032Y06134D01*
X21972Y06281D01*
X21878Y06308D01*
X21808Y06238D01*
X21808Y06378D01*
X21781Y06472D01*
X21579Y06543D01*
X21366Y06532D01*
X21219Y06472D01*
X21192Y06378D01*
X21500Y06071D01*
X21808Y06378D01*
X21808Y06238D01*
X21571Y06000D01*
X21878Y05692D01*
X21972Y05719D01*
X22043Y05921D01*
X22043Y04270D01*
X21975Y04105D01*
X21975Y03896D01*
X22055Y03703D01*
X22187Y03570D01*
X21808Y03570D01*
X21808Y05622D01*
X21500Y05929D01*
X21429Y05859D01*
X21429Y06000D01*
X21122Y06308D01*
X21028Y06281D01*
X20957Y06079D01*
X20968Y05866D01*
X21028Y05719D01*
X21122Y05692D01*
X21429Y06000D01*
X21429Y05859D01*
X21192Y05622D01*
X21219Y05528D01*
X21421Y05457D01*
X21634Y05468D01*
X21781Y05528D01*
X21808Y05622D01*
X21808Y03570D01*
X19812Y03570D01*
X19945Y03702D01*
X20025Y03895D01*
X20025Y04104D01*
X19945Y04297D01*
X19798Y04445D01*
X19605Y04525D01*
X19396Y04525D01*
X19203Y04445D01*
X19055Y04298D01*
X19002Y04172D01*
X18524Y03693D01*
X18524Y03774D01*
X18525Y03888D01*
X18525Y04112D01*
X18524Y04226D01*
X18524Y04325D01*
X18486Y04416D01*
X18416Y04486D01*
X18343Y04517D01*
X18324Y04524D01*
X18112Y04525D01*
X18050Y04463D01*
X18050Y04050D01*
X18463Y04050D01*
X18525Y04112D01*
X18525Y03888D01*
X18463Y03950D01*
X18050Y03950D01*
X18050Y03537D01*
X18112Y03475D01*
X18306Y03476D01*
X18121Y03290D01*
X17447Y03290D01*
X17445Y03297D01*
X17298Y03445D01*
X17164Y03501D01*
X17297Y03555D01*
X17445Y03702D01*
X17475Y03777D01*
X17476Y03774D01*
X17476Y03675D01*
X17514Y03584D01*
X17584Y03514D01*
X17676Y03476D01*
X17888Y03475D01*
X17950Y03537D01*
X17950Y03900D01*
X17950Y03950D01*
X17950Y04050D01*
X17950Y04100D01*
X17950Y04463D01*
X17888Y04525D01*
X17676Y04524D01*
X17584Y04486D01*
X17514Y04416D01*
X17500Y04383D01*
X17500Y04952D01*
X17816Y05268D01*
X17924Y05430D01*
X17963Y05621D01*
X17924Y05813D01*
X17816Y05975D01*
X17654Y06083D01*
X17462Y06122D01*
X17271Y06083D01*
X17109Y05975D01*
X16712Y05579D01*
X16712Y06485D01*
X16925Y06407D01*
X17160Y06418D01*
X17326Y06487D01*
X17359Y06586D01*
X17051Y06894D01*
X17016Y06929D01*
X16945Y07000D01*
X17016Y07071D01*
X17051Y07106D01*
X17359Y07414D01*
X17326Y07513D01*
X17107Y07593D01*
X16872Y07582D01*
X16712Y07516D01*
X16712Y08809D01*
X17205Y09302D01*
X17268Y09396D01*
X17268Y09401D01*
X17399Y09401D01*
X17491Y09439D01*
X17561Y09509D01*
X17585Y09568D01*
X17661Y09492D01*
X17881Y09401D01*
X18119Y09401D01*
X18339Y09492D01*
X18500Y09653D01*
X18500Y07887D01*
X18483Y07803D01*
X18484Y07799D01*
X18484Y07552D01*
X18423Y07491D01*
X18407Y07456D01*
X18361Y07502D01*
X18325Y07467D01*
X18310Y07513D01*
X18091Y07593D01*
X17856Y07582D01*
X17690Y07513D01*
X17657Y07414D01*
X17965Y07106D01*
X18000Y07071D01*
X18071Y07000D01*
X18000Y06929D01*
X17965Y06894D01*
X17929Y06858D01*
X17929Y07000D01*
X17586Y07343D01*
X17508Y07317D01*
X17430Y07343D01*
X17087Y07000D01*
X17430Y06657D01*
X17508Y06683D01*
X17586Y06657D01*
X17929Y07000D01*
X17929Y06858D01*
X17657Y06586D01*
X17690Y06487D01*
X17909Y06407D01*
X18144Y06418D01*
X18310Y06487D01*
X18325Y06534D01*
X18343Y06516D01*
X18361Y06498D01*
X18408Y06546D01*
X18423Y06509D01*
X18493Y06439D01*
X18584Y06401D01*
X18683Y06401D01*
X19383Y06401D01*
X19475Y06439D01*
X19545Y06509D01*
X19583Y06600D01*
X19583Y06699D01*
X19583Y07399D01*
X19545Y07491D01*
X19484Y07552D01*
X19484Y07739D01*
X19484Y07741D01*
X19500Y07819D01*
X19500Y09653D01*
X19508Y09661D01*
X19599Y09881D01*
X19599Y10119D01*
X19508Y10339D01*
X19339Y10508D01*
X19119Y10599D01*
X18881Y10599D01*
X18661Y10508D01*
X18500Y10347D01*
X18339Y10508D01*
X18119Y10599D01*
X17881Y10599D01*
X17661Y10508D01*
X17585Y10433D01*
X17561Y10491D01*
X17491Y10561D01*
X17400Y10599D01*
X17301Y10599D01*
X16601Y10599D01*
X16509Y10561D01*
X16439Y10491D01*
X16401Y10400D01*
X16401Y10301D01*
X16401Y09601D01*
X16439Y09509D01*
X16509Y09439D01*
X16518Y09436D01*
X16217Y09134D01*
X16154Y09040D01*
X16132Y08929D01*
X16132Y05518D01*
X12159Y09491D01*
X12145Y09500D01*
X12995Y09500D01*
X13000Y09499D01*
X13000Y09500D01*
X13191Y09538D01*
X13192Y09538D01*
X13354Y09646D01*
X14193Y10486D01*
X14311Y10535D01*
X14465Y10689D01*
X14549Y10891D01*
X14549Y11109D01*
X14465Y11311D01*
X14311Y11465D01*
X14109Y11549D01*
X13891Y11549D01*
X13689Y11465D01*
X13535Y11311D01*
X13485Y11194D01*
X12792Y10500D01*
X11964Y10500D01*
X12087Y10582D01*
X15351Y13848D01*
X15353Y13849D01*
X15354Y13849D01*
X15418Y13947D01*
X15462Y14011D01*
X15462Y14012D01*
X15500Y14203D01*
X15500Y14274D01*
X15535Y14189D01*
X15689Y14035D01*
X15891Y13951D01*
X16109Y13951D01*
X16311Y14035D01*
X16465Y14189D01*
X16500Y14274D01*
X16535Y14189D01*
X16689Y14035D01*
X16891Y13951D01*
X17109Y13951D01*
X17311Y14035D01*
X17465Y14189D01*
X17500Y14274D01*
X17535Y14189D01*
X17689Y14035D01*
X17891Y13951D01*
X18109Y13951D01*
X18311Y14035D01*
X18465Y14189D01*
X18500Y14274D01*
X18535Y14189D01*
X18689Y14035D01*
X18891Y13951D01*
X19109Y13951D01*
X19226Y14000D01*
X19271Y14000D01*
X19276Y13999D01*
X19276Y14000D01*
X19467Y14038D01*
X19468Y14038D01*
X19630Y14146D01*
X20138Y14656D01*
X20140Y14657D01*
X20141Y14657D01*
X20248Y14819D01*
X20249Y14820D01*
X20287Y15011D01*
X20287Y15544D01*
X20521Y15778D01*
X20451Y15609D01*
X20451Y15391D01*
X20500Y15274D01*
X20500Y13727D01*
X20451Y13609D01*
X20451Y13391D01*
X20535Y13189D01*
X20689Y13035D01*
X20891Y12951D01*
X21109Y12951D01*
X21311Y13035D01*
X21451Y13175D01*
X21451Y13150D01*
X21489Y13059D01*
X21559Y12989D01*
X21651Y12951D01*
X21888Y12950D01*
X21950Y13012D01*
X21950Y13400D01*
X21950Y13450D01*
X21950Y13550D01*
X21950Y13600D01*
X21950Y13988D01*
X21888Y14050D01*
X21651Y14049D01*
X21559Y14011D01*
X21500Y13952D01*
X21500Y15048D01*
X21559Y14989D01*
X21651Y14951D01*
X21888Y14950D01*
X21950Y15012D01*
X21950Y15400D01*
X21950Y15450D01*
X21950Y15550D01*
X22050Y15550D01*
X22100Y15550D01*
X22488Y15550D01*
X22550Y15612D01*
X22549Y15751D01*
X22549Y15850D01*
X22538Y15875D01*
X34511Y15875D01*
X36889Y13497D01*
X36825Y13524D01*
X36726Y13524D01*
X36176Y13524D01*
X36117Y13500D01*
X35979Y13500D01*
X34890Y14590D01*
X34728Y14698D01*
X34539Y14737D01*
X34599Y14881D01*
X34599Y15119D01*
X34508Y15339D01*
X34339Y15508D01*
X34119Y15599D01*
X33881Y15599D01*
X33661Y15508D01*
X33500Y15347D01*
X33339Y15508D01*
X33119Y15599D01*
X32881Y15599D01*
X32661Y15508D01*
X32585Y15433D01*
X32561Y15491D01*
X32491Y15561D01*
X32400Y15599D01*
X32301Y15599D01*
X32112Y15600D01*
X32050Y15538D01*
X32050Y15100D01*
X32050Y15050D01*
X32050Y14950D01*
X32050Y14900D01*
X32050Y14462D01*
X32112Y14400D01*
X32301Y14401D01*
X32400Y14401D01*
X32491Y14439D01*
X32561Y14509D01*
X32585Y14568D01*
X32661Y14492D01*
X32881Y14401D01*
X33119Y14401D01*
X33339Y14492D01*
X33500Y14653D01*
X33500Y14444D01*
X33221Y14165D01*
X31950Y14165D01*
X31950Y14462D01*
X31950Y14950D01*
X31950Y15050D01*
X31950Y15538D01*
X31888Y15600D01*
X31699Y15599D01*
X31600Y15599D01*
X31509Y15561D01*
X31439Y15491D01*
X31401Y15399D01*
X31400Y15112D01*
X31462Y15050D01*
X31950Y15050D01*
X31950Y14950D01*
X31462Y14950D01*
X31400Y14888D01*
X31401Y14601D01*
X31439Y14509D01*
X31509Y14439D01*
X31600Y14401D01*
X31699Y14401D01*
X31888Y14400D01*
X31950Y14462D01*
X31950Y14165D01*
X29043Y14165D01*
X28956Y14165D01*
X28966Y14175D01*
X28933Y14208D01*
X28972Y14219D01*
X29043Y14421D01*
X29032Y14634D01*
X28972Y14781D01*
X28878Y14808D01*
X28808Y14738D01*
X28808Y14878D01*
X28781Y14972D01*
X28579Y15043D01*
X28366Y15032D01*
X28219Y14972D01*
X28192Y14878D01*
X28500Y14571D01*
X28808Y14878D01*
X28808Y14738D01*
X28571Y14500D01*
X28500Y14429D01*
X28429Y14500D01*
X28394Y14535D01*
X28122Y14808D01*
X28049Y14788D01*
X28049Y14849D01*
X28011Y14941D01*
X27941Y15011D01*
X27850Y15049D01*
X27751Y15049D01*
X27151Y15049D01*
X27059Y15011D01*
X26989Y14941D01*
X26951Y14850D01*
X26951Y14751D01*
X26951Y14510D01*
X26607Y14854D01*
X26445Y14962D01*
X26253Y15001D01*
X26248Y15000D01*
X25952Y15000D01*
X25941Y15011D01*
X25850Y15049D01*
X25751Y15049D01*
X25151Y15049D01*
X25059Y15011D01*
X24989Y14941D01*
X24951Y14850D01*
X24951Y14788D01*
X24878Y14808D01*
X24808Y14738D01*
X24808Y14878D01*
X24781Y14972D01*
X24579Y15043D01*
X24366Y15032D01*
X24219Y14972D01*
X24192Y14878D01*
X24500Y14571D01*
X24808Y14878D01*
X24808Y14738D01*
X24571Y14500D01*
X24878Y14192D01*
X24951Y14213D01*
X24951Y14151D01*
X24989Y14059D01*
X25059Y13989D01*
X25150Y13951D01*
X25249Y13951D01*
X25849Y13951D01*
X25941Y13989D01*
X25952Y14000D01*
X26045Y14000D01*
X26732Y13314D01*
X26734Y13311D01*
X26896Y13204D01*
X26897Y13203D01*
X27049Y13173D01*
X27087Y13165D01*
X27087Y13166D01*
X27088Y13165D01*
X33424Y13165D01*
X33429Y13164D01*
X33429Y13165D01*
X33620Y13203D01*
X33621Y13203D01*
X33783Y13311D01*
X34207Y13736D01*
X34328Y13736D01*
X35416Y12649D01*
X35418Y12646D01*
X35580Y12539D01*
X35581Y12538D01*
X35733Y12508D01*
X35771Y12500D01*
X35771Y12501D01*
X35772Y12500D01*
X36117Y12500D01*
X36175Y12476D01*
X36274Y12476D01*
X36824Y12476D01*
X36916Y12514D01*
X36986Y12584D01*
X37024Y12675D01*
X37024Y12774D01*
X37024Y13324D01*
X36996Y13391D01*
X37359Y13028D01*
X37359Y12720D01*
X37358Y12715D01*
X37397Y12523D01*
X37505Y12361D01*
X38752Y11115D01*
X38643Y11069D01*
X38523Y10949D01*
X38458Y10793D01*
X38458Y10693D01*
X37371Y09606D01*
X37371Y11435D01*
X37370Y11436D01*
X37349Y11546D01*
X37348Y11547D01*
X37327Y11578D01*
X37286Y11640D01*
X37286Y11641D01*
X37050Y11876D01*
X36956Y11939D01*
X36845Y11961D01*
X33671Y11961D01*
X33560Y11939D01*
X33466Y11876D01*
X32189Y10599D01*
X31601Y10599D01*
X31509Y10561D01*
X31439Y10491D01*
X31401Y10400D01*
X31401Y10301D01*
X31401Y09601D01*
X31439Y09509D01*
X31509Y09439D01*
X31600Y09401D01*
X31699Y09401D01*
X32399Y09401D01*
X32491Y09439D01*
X32561Y09509D01*
X32585Y09568D01*
X32661Y09492D01*
X32881Y09401D01*
X33119Y09401D01*
X33339Y09492D01*
X33500Y09653D01*
X33500Y07887D01*
X33483Y07803D01*
X33484Y07799D01*
X33484Y07552D01*
X33423Y07491D01*
X33407Y07456D01*
X33361Y07502D01*
X33325Y07467D01*
X33310Y07513D01*
X33091Y07593D01*
X32856Y07582D01*
X32690Y07513D01*
X32657Y07414D01*
X32965Y07106D01*
X33000Y07071D01*
X33071Y07000D01*
X33000Y06929D01*
X32965Y06894D01*
X32929Y06858D01*
X32929Y07000D01*
X32586Y07343D01*
X32508Y07317D01*
X32430Y07343D01*
X32359Y07272D01*
X32359Y07414D01*
X32326Y07513D01*
X32107Y07593D01*
X31872Y07582D01*
X31706Y07513D01*
X31673Y07414D01*
X32016Y07071D01*
X32359Y07414D01*
X32359Y07272D01*
X32087Y07000D01*
X32430Y06657D01*
X32508Y06683D01*
X32586Y06657D01*
X32929Y07000D01*
X32929Y06858D01*
X32657Y06586D01*
X32690Y06487D01*
X32909Y06407D01*
X33144Y06418D01*
X33310Y06487D01*
X33325Y06534D01*
X33343Y06516D01*
X33361Y06498D01*
X33408Y06546D01*
X33423Y06509D01*
X33493Y06439D01*
X33584Y06401D01*
X33683Y06401D01*
X34383Y06401D01*
X34475Y06439D01*
X34545Y06509D01*
X34583Y06600D01*
X34583Y06699D01*
X34583Y07399D01*
X34545Y07491D01*
X34484Y07552D01*
X34484Y07739D01*
X34484Y07741D01*
X34500Y07819D01*
X34500Y09500D01*
X35495Y09500D01*
X35500Y09499D01*
X35500Y09500D01*
X35691Y09538D01*
X35692Y09538D01*
X35854Y09646D01*
X36693Y10486D01*
X36791Y10527D01*
X36791Y06438D01*
X36781Y06472D01*
X36579Y06543D01*
X36366Y06532D01*
X36219Y06472D01*
X36192Y06378D01*
X36465Y06106D01*
X36500Y06071D01*
X36571Y06000D01*
X36500Y05929D01*
X36429Y05859D01*
X36429Y06000D01*
X36122Y06308D01*
X36028Y06281D01*
X35957Y06079D01*
X35968Y05866D01*
X36028Y05719D01*
X36122Y05692D01*
X36429Y06000D01*
X36429Y05859D01*
X36192Y05622D01*
X36219Y05528D01*
X36372Y05474D01*
X35189Y04290D01*
X34947Y04290D01*
X34945Y04297D01*
X34798Y04445D01*
X34605Y04525D01*
X34396Y04525D01*
X34203Y04445D01*
X34055Y04298D01*
X33975Y04105D01*
X33975Y03896D01*
X33978Y03889D01*
X33525Y03436D01*
X33525Y03888D01*
X33525Y04112D01*
X33524Y04226D01*
X33524Y04325D01*
X33486Y04416D01*
X33416Y04486D01*
X33343Y04517D01*
X33324Y04524D01*
X33112Y04525D01*
X33050Y04463D01*
X33050Y04050D01*
X33463Y04050D01*
X33525Y04112D01*
X33525Y03888D01*
X33463Y03950D01*
X33050Y03950D01*
X33050Y03537D01*
X33112Y03475D01*
X33324Y03476D01*
X33416Y03514D01*
X33486Y03584D01*
X33524Y03675D01*
X33524Y03774D01*
X33525Y03888D01*
X33525Y03436D01*
X33380Y03290D01*
X32447Y03290D01*
X32445Y03297D01*
X32298Y03445D01*
X32164Y03501D01*
X32297Y03555D01*
X32445Y03702D01*
X32475Y03777D01*
X32476Y03774D01*
X32476Y03675D01*
X32514Y03584D01*
X32584Y03514D01*
X32676Y03476D01*
X32888Y03475D01*
X32950Y03537D01*
X32950Y03900D01*
X32950Y03950D01*
X32950Y04050D01*
X32950Y04100D01*
X32950Y04463D01*
X32888Y04525D01*
X32676Y04524D01*
X32584Y04486D01*
X32514Y04416D01*
X32500Y04383D01*
X32500Y04800D01*
X33081Y05381D01*
X33189Y05543D01*
X33228Y05735D01*
X33189Y05926D01*
X33081Y06088D01*
X32919Y06196D01*
X32728Y06235D01*
X32536Y06196D01*
X32374Y06088D01*
X32359Y06074D01*
X32359Y06586D01*
X32016Y06929D01*
X31945Y06858D01*
X31945Y07000D01*
X31602Y07343D01*
X31503Y07310D01*
X31423Y07091D01*
X31434Y06856D01*
X31503Y06690D01*
X31602Y06657D01*
X31945Y07000D01*
X31945Y06858D01*
X31673Y06586D01*
X31706Y06487D01*
X31925Y06407D01*
X32160Y06418D01*
X32326Y06487D01*
X32359Y06586D01*
X32359Y06074D01*
X31646Y05361D01*
X31538Y05199D01*
X31499Y05007D01*
X31500Y05003D01*
X31500Y04166D01*
X31475Y04105D01*
X31475Y03896D01*
X31555Y03703D01*
X31702Y03555D01*
X31835Y03500D01*
X31703Y03445D01*
X31555Y03298D01*
X31475Y03105D01*
X31475Y02896D01*
X31555Y02703D01*
X31702Y02555D01*
X31895Y02475D01*
X32104Y02475D01*
X32297Y02555D01*
X32445Y02702D01*
X32448Y02710D01*
X33500Y02710D01*
X33611Y02732D01*
X33705Y02795D01*
X34387Y03478D01*
X34395Y03475D01*
X34604Y03475D01*
X34797Y03555D01*
X34945Y03702D01*
X34948Y03710D01*
X35300Y03710D01*
X34612Y03023D01*
X34605Y03025D01*
X34396Y03025D01*
X34203Y02945D01*
X34055Y02798D01*
X33975Y02605D01*
X33975Y02396D01*
X34055Y02203D01*
X34202Y02055D01*
X34395Y01975D01*
X34604Y01975D01*
X34797Y02055D01*
X34945Y02202D01*
X35025Y02395D01*
X35025Y02604D01*
X35021Y02612D01*
X37468Y05058D01*
X37468Y05059D01*
X37469Y05059D01*
X37531Y05152D01*
X37532Y05153D01*
X37553Y05263D01*
X37554Y05264D01*
X37554Y08969D01*
X38868Y10283D01*
X38901Y10283D01*
X38901Y09601D01*
X38939Y09509D01*
X39009Y09439D01*
X39017Y09436D01*
X38714Y09131D01*
X38651Y09037D01*
X38629Y08926D01*
X38629Y07951D01*
X38611Y07969D01*
X38455Y08034D01*
X38286Y08034D01*
X38130Y07970D01*
X38010Y07850D01*
X37945Y07694D01*
X37945Y07525D01*
X38009Y07369D01*
X38080Y07298D01*
X38080Y04990D01*
X37612Y04523D01*
X37605Y04525D01*
X37396Y04525D01*
X37203Y04445D01*
X37055Y04298D01*
X36975Y04105D01*
X36975Y03896D01*
X37055Y03703D01*
X37202Y03555D01*
X37395Y03475D01*
X37604Y03475D01*
X37797Y03555D01*
X37945Y03702D01*
X38025Y03895D01*
X38025Y04104D01*
X38021Y04112D01*
X38575Y04665D01*
X38629Y04746D01*
X38629Y03702D01*
X37835Y02908D01*
X37798Y02945D01*
X37605Y03025D01*
X37396Y03025D01*
X37203Y02945D01*
X37055Y02798D01*
X36975Y02605D01*
X36975Y02396D01*
X37055Y02203D01*
X37202Y02055D01*
X37395Y01975D01*
X37604Y01975D01*
X37797Y02055D01*
X37945Y02202D01*
X37960Y02240D01*
X38043Y02295D01*
X38919Y03171D01*
X38977Y03112D01*
X38975Y03105D01*
X38975Y02896D01*
X39055Y02703D01*
X39202Y02555D01*
X39395Y02475D01*
X39604Y02475D01*
X39797Y02555D01*
X39945Y02702D01*
X40025Y02895D01*
X40025Y03104D01*
X39945Y03297D01*
X39798Y03445D01*
X39664Y03501D01*
X39797Y03555D01*
X39945Y03702D01*
X39975Y03777D01*
X39976Y03774D01*
X39976Y03675D01*
X40014Y03584D01*
X40084Y03514D01*
X40176Y03476D01*
X40388Y03475D01*
X40450Y03537D01*
X40450Y03900D01*
X40450Y03950D01*
X40450Y04050D01*
X40450Y04100D01*
X40450Y04463D01*
X40388Y04525D01*
X40176Y04524D01*
X40084Y04486D01*
X40014Y04416D01*
X40000Y04383D01*
X40000Y05344D01*
X40028Y05372D01*
X40136Y05534D01*
X40175Y05726D01*
X40136Y05917D01*
X40028Y06079D01*
X39866Y06187D01*
X39675Y06226D01*
X39483Y06187D01*
X39321Y06079D01*
X39209Y05968D01*
X39209Y06486D01*
X39425Y06407D01*
X39660Y06418D01*
X39826Y06487D01*
X39859Y06586D01*
X39551Y06894D01*
X39516Y06929D01*
X39445Y07000D01*
X39516Y07071D01*
X39551Y07106D01*
X39859Y07414D01*
X39826Y07513D01*
X39607Y07593D01*
X39372Y07582D01*
X39209Y07515D01*
X39209Y08806D01*
X39705Y09301D01*
X39705Y09302D01*
X39768Y09396D01*
X39768Y09401D01*
X39899Y09401D01*
X39991Y09439D01*
X40061Y09509D01*
X40085Y09568D01*
X40161Y09492D01*
X40381Y09401D01*
X40619Y09401D01*
X40839Y09492D01*
X41000Y09653D01*
X41161Y09492D01*
X41381Y09401D01*
X41619Y09401D01*
X41839Y09492D01*
X42008Y09661D01*
X42099Y09881D01*
X42099Y10119D01*
X42008Y10339D01*
X41839Y10508D01*
X41619Y10599D01*
X41381Y10599D01*
X41161Y10508D01*
X41043Y10390D01*
X41043Y12421D01*
X41032Y12634D01*
X40972Y12781D01*
X40878Y12808D01*
X40808Y12738D01*
X40808Y12878D01*
X40781Y12972D01*
X40579Y13043D01*
X40366Y13032D01*
X40219Y12972D01*
X40192Y12878D01*
X40500Y12571D01*
X40808Y12878D01*
X40808Y12738D01*
X40571Y12500D01*
X40878Y12192D01*
X40972Y12219D01*
X41043Y12421D01*
X41043Y10390D01*
X41000Y10347D01*
X41000Y10688D01*
X41000Y10692D01*
X41001Y10692D01*
X40962Y10883D01*
X40962Y10884D01*
X40918Y10949D01*
X40854Y11046D01*
X40851Y11048D01*
X40808Y11092D01*
X40808Y12122D01*
X40500Y12429D01*
X40192Y12122D01*
X40219Y12028D01*
X40421Y11957D01*
X40634Y11968D01*
X40781Y12028D01*
X40808Y12122D01*
X40808Y11092D01*
X40180Y11720D01*
X40018Y11828D01*
X39826Y11867D01*
X39821Y11866D01*
X39415Y11866D01*
X39330Y11951D01*
X39849Y11951D01*
X39941Y11989D01*
X40011Y12059D01*
X40049Y12150D01*
X40049Y12213D01*
X40122Y12192D01*
X40429Y12500D01*
X40122Y12808D01*
X40049Y12788D01*
X40049Y12849D01*
X40011Y12941D01*
X39941Y13011D01*
X39850Y13049D01*
X39768Y13049D01*
X39768Y13054D01*
X39705Y13148D01*
X39435Y13418D01*
X39435Y14051D01*
X39589Y14051D01*
X39754Y14119D01*
X39880Y14245D01*
X39949Y14410D01*
X39949Y14589D01*
X39882Y14751D01*
X39949Y14910D01*
X39949Y15089D01*
X39899Y15210D01*
X41500Y15210D01*
X41611Y15232D01*
X41705Y15295D01*
X41887Y15478D01*
X41895Y15475D01*
X42104Y15475D01*
X42297Y15555D01*
X42445Y15702D01*
X42525Y15895D01*
X42525Y16104D01*
X42445Y16297D01*
X42298Y16445D01*
X42105Y16525D01*
X41896Y16525D01*
X41703Y16445D01*
X41555Y16298D01*
X41475Y16105D01*
X41475Y15896D01*
X41478Y15889D01*
X41380Y15790D01*
X39845Y15790D01*
X39755Y15880D01*
X39590Y15949D01*
X39411Y15949D01*
X39246Y15881D01*
X39120Y15755D01*
X39051Y15590D01*
X39051Y15411D01*
X39117Y15250D01*
X39051Y15090D01*
X39051Y14961D01*
X38940Y14850D01*
X38877Y14756D01*
X38855Y14645D01*
X38855Y13298D01*
X38877Y13187D01*
X38940Y13093D01*
X39040Y12993D01*
X38989Y12941D01*
X38951Y12850D01*
X38951Y12751D01*
X38951Y12331D01*
X38359Y12923D01*
X38359Y13235D01*
X38321Y13426D01*
X38320Y13427D01*
X38213Y13589D01*
X38210Y13591D01*
X36278Y15524D01*
X36395Y15475D01*
X36604Y15475D01*
X36797Y15555D01*
X36945Y15702D01*
X37025Y15895D01*
X37025Y16104D01*
X36945Y16297D01*
X36798Y16445D01*
X36605Y16525D01*
X36396Y16525D01*
X36203Y16445D01*
X36055Y16298D01*
X35975Y16105D01*
X35975Y15896D01*
X36024Y15778D01*
X35126Y16675D01*
X65000Y16675D01*
X65675Y16675D01*
X65675Y00325D01*
X65675Y00325D01*
G37*
G54D25*
X65675Y00325D02*
X65550Y00325D01*
X65550Y01290D01*
X65550Y01708D01*
X65550Y15290D01*
X65550Y15708D01*
X65390Y16094D01*
X65095Y16390D01*
X64710Y16550D01*
X64292Y16550D01*
X63906Y16390D01*
X63610Y16095D01*
X63450Y15710D01*
X63450Y15292D01*
X63610Y14906D01*
X63905Y14610D01*
X64290Y14450D01*
X64708Y14450D01*
X65094Y14610D01*
X65390Y14905D01*
X65550Y15290D01*
X65550Y01708D01*
X65390Y02094D01*
X65095Y02390D01*
X64710Y02550D01*
X64299Y02550D01*
X64299Y08141D01*
X64299Y08359D01*
X64215Y08561D01*
X64075Y08701D01*
X64099Y08701D01*
X64191Y08739D01*
X64261Y08809D01*
X64299Y08900D01*
X64299Y08999D01*
X64299Y09599D01*
X64261Y09691D01*
X64191Y09761D01*
X64100Y09799D01*
X64043Y09799D01*
X64043Y11921D01*
X64032Y12134D01*
X63972Y12281D01*
X63878Y12308D01*
X63808Y12238D01*
X63808Y12378D01*
X63781Y12472D01*
X63579Y12543D01*
X63366Y12532D01*
X63219Y12472D01*
X63192Y12378D01*
X63500Y12071D01*
X63808Y12378D01*
X63808Y12238D01*
X63571Y12000D01*
X63878Y11692D01*
X63972Y11719D01*
X64043Y11921D01*
X64043Y09799D01*
X64001Y09799D01*
X63808Y09799D01*
X63808Y11622D01*
X63500Y11929D01*
X63429Y11859D01*
X63429Y12000D01*
X63122Y12308D01*
X63028Y12281D01*
X62957Y12079D01*
X62968Y11866D01*
X63028Y11719D01*
X63122Y11692D01*
X63429Y12000D01*
X63429Y11859D01*
X63192Y11622D01*
X63219Y11528D01*
X63421Y11457D01*
X63634Y11468D01*
X63781Y11528D01*
X63808Y11622D01*
X63808Y09799D01*
X63401Y09799D01*
X63309Y09761D01*
X63239Y09691D01*
X63201Y09600D01*
X63201Y09501D01*
X63201Y08901D01*
X63239Y08809D01*
X63309Y08739D01*
X63400Y08701D01*
X63425Y08701D01*
X63285Y08561D01*
X63201Y08359D01*
X63201Y08141D01*
X63285Y07939D01*
X63439Y07785D01*
X63641Y07701D01*
X63859Y07701D01*
X64061Y07785D01*
X64215Y07939D01*
X64299Y08141D01*
X64299Y02550D01*
X64292Y02550D01*
X63906Y02390D01*
X63610Y02095D01*
X63450Y01710D01*
X63450Y01292D01*
X63610Y00906D01*
X63905Y00610D01*
X64290Y00450D01*
X64708Y00450D01*
X65094Y00610D01*
X65390Y00905D01*
X65550Y01290D01*
X65550Y00325D01*
X65000Y00325D01*
X63217Y00325D01*
X63217Y01307D01*
X63217Y01692D01*
X63070Y02047D01*
X62798Y02320D01*
X62443Y02467D01*
X62290Y02467D01*
X62290Y04922D01*
X62278Y05134D01*
X62275Y05142D01*
X62275Y09145D01*
X62275Y09354D01*
X62195Y09547D01*
X62048Y09695D01*
X62040Y09699D01*
X62040Y14195D01*
X62018Y14306D01*
X61955Y14400D01*
X61150Y15205D01*
X61056Y15268D01*
X61002Y15279D01*
X61049Y15391D01*
X61049Y15609D01*
X60965Y15811D01*
X60811Y15965D01*
X60609Y16049D01*
X60391Y16049D01*
X60189Y15965D01*
X60035Y15811D01*
X60000Y15727D01*
X59965Y15811D01*
X59811Y15965D01*
X59609Y16049D01*
X59391Y16049D01*
X59189Y15965D01*
X59035Y15811D01*
X59000Y15727D01*
X58965Y15811D01*
X58811Y15965D01*
X58609Y16049D01*
X58391Y16049D01*
X58189Y15965D01*
X58035Y15811D01*
X57951Y15609D01*
X57951Y15391D01*
X58035Y15189D01*
X58175Y15049D01*
X58151Y15049D01*
X58059Y15011D01*
X57989Y14941D01*
X57951Y14850D01*
X57951Y14751D01*
X57951Y14151D01*
X57989Y14059D01*
X58059Y13989D01*
X58150Y13951D01*
X58249Y13951D01*
X58849Y13951D01*
X58941Y13989D01*
X59011Y14059D01*
X59049Y14150D01*
X59049Y14175D01*
X59099Y14125D01*
X57334Y12359D01*
X56383Y12359D01*
X56298Y12445D01*
X56105Y12525D01*
X55896Y12525D01*
X55856Y12509D01*
X55856Y14314D01*
X56820Y15278D01*
X56820Y15279D01*
X56821Y15279D01*
X56883Y15372D01*
X56884Y15373D01*
X56905Y15483D01*
X56906Y15484D01*
X56906Y15516D01*
X56905Y15517D01*
X56884Y15627D01*
X56883Y15628D01*
X56862Y15659D01*
X56821Y15721D01*
X56821Y15722D01*
X56090Y16452D01*
X55996Y16515D01*
X55885Y16537D01*
X54747Y16537D01*
X54636Y16515D01*
X54542Y16452D01*
X54130Y16041D01*
X54109Y16049D01*
X53891Y16049D01*
X53689Y15965D01*
X53535Y15811D01*
X53500Y15727D01*
X53465Y15811D01*
X53311Y15965D01*
X53109Y16049D01*
X52891Y16049D01*
X52689Y15965D01*
X52535Y15811D01*
X52500Y15727D01*
X52465Y15811D01*
X52311Y15965D01*
X52109Y16049D01*
X51891Y16049D01*
X51689Y15965D01*
X51549Y15825D01*
X51549Y15849D01*
X51511Y15941D01*
X51441Y16011D01*
X51350Y16049D01*
X51251Y16049D01*
X50651Y16049D01*
X50559Y16011D01*
X50489Y15941D01*
X50451Y15850D01*
X50451Y15751D01*
X50451Y15151D01*
X50489Y15059D01*
X50559Y14989D01*
X50650Y14951D01*
X50710Y14951D01*
X50710Y13549D01*
X50151Y13549D01*
X50059Y13511D01*
X49989Y13441D01*
X49951Y13350D01*
X49951Y13251D01*
X49951Y12814D01*
X49874Y12762D01*
X49852Y12740D01*
X49789Y12646D01*
X49767Y12535D01*
X49767Y12177D01*
X49525Y11935D01*
X49525Y12104D01*
X49445Y12297D01*
X49298Y12445D01*
X49164Y12501D01*
X49297Y12555D01*
X49445Y12702D01*
X49525Y12895D01*
X49525Y13104D01*
X49445Y13297D01*
X49298Y13445D01*
X49164Y13501D01*
X49297Y13555D01*
X49445Y13702D01*
X49525Y13895D01*
X49525Y14104D01*
X49445Y14297D01*
X49298Y14445D01*
X49164Y14501D01*
X49297Y14555D01*
X49445Y14702D01*
X49525Y14895D01*
X49525Y15104D01*
X49445Y15297D01*
X49298Y15445D01*
X49105Y15525D01*
X48896Y15525D01*
X48703Y15445D01*
X48555Y15298D01*
X48475Y15105D01*
X48475Y14896D01*
X48555Y14703D01*
X48702Y14555D01*
X48835Y14500D01*
X48703Y14445D01*
X48555Y14298D01*
X48475Y14105D01*
X48475Y13896D01*
X48555Y13703D01*
X48702Y13555D01*
X48835Y13500D01*
X48703Y13445D01*
X48555Y13298D01*
X48475Y13105D01*
X48475Y12896D01*
X48555Y12703D01*
X48702Y12555D01*
X48835Y12500D01*
X48703Y12445D01*
X48555Y12298D01*
X48475Y12105D01*
X48475Y11896D01*
X48555Y11703D01*
X48702Y11555D01*
X48835Y11500D01*
X48703Y11445D01*
X48555Y11298D01*
X48475Y11105D01*
X48475Y10896D01*
X48555Y10703D01*
X48702Y10555D01*
X48835Y10500D01*
X48703Y10445D01*
X48555Y10298D01*
X48475Y10105D01*
X48475Y09896D01*
X48555Y09703D01*
X48702Y09555D01*
X48835Y09500D01*
X48703Y09445D01*
X48555Y09298D01*
X48475Y09105D01*
X48475Y08896D01*
X48555Y08703D01*
X48702Y08555D01*
X48835Y08500D01*
X48703Y08445D01*
X48555Y08298D01*
X48542Y08267D01*
X47094Y09715D01*
X47094Y14229D01*
X47093Y14230D01*
X47072Y14340D01*
X47071Y14341D01*
X47009Y14434D01*
X47008Y14435D01*
X46804Y14639D01*
X46710Y14702D01*
X46599Y14724D01*
X46454Y14724D01*
X46525Y14895D01*
X46525Y15104D01*
X46445Y15297D01*
X46298Y15445D01*
X46105Y15525D01*
X45896Y15525D01*
X45703Y15445D01*
X45555Y15298D01*
X45538Y15258D01*
X45290Y15506D01*
X45290Y15553D01*
X45297Y15555D01*
X45445Y15702D01*
X45525Y15895D01*
X45525Y16104D01*
X45445Y16297D01*
X45298Y16445D01*
X45105Y16525D01*
X44896Y16525D01*
X44703Y16445D01*
X44555Y16298D01*
X44475Y16105D01*
X44475Y15896D01*
X44555Y15703D01*
X44702Y15555D01*
X44710Y15552D01*
X44710Y15386D01*
X44732Y15275D01*
X44795Y15181D01*
X44951Y15025D01*
X44896Y15025D01*
X44703Y14945D01*
X44555Y14798D01*
X44475Y14605D01*
X44475Y14396D01*
X44555Y14203D01*
X44702Y14055D01*
X44710Y14052D01*
X44710Y13079D01*
X44731Y12973D01*
X44605Y13025D01*
X44396Y13025D01*
X44203Y12945D01*
X44055Y12798D01*
X43999Y12665D01*
X43945Y12797D01*
X43798Y12945D01*
X43605Y13025D01*
X43396Y13025D01*
X43203Y12945D01*
X43055Y12798D01*
X42975Y12605D01*
X42975Y12396D01*
X43055Y12203D01*
X43202Y12055D01*
X43395Y11975D01*
X43604Y11975D01*
X43611Y11979D01*
X44041Y11549D01*
X43891Y11549D01*
X43689Y11465D01*
X43535Y11311D01*
X43451Y11109D01*
X43451Y10891D01*
X43500Y10774D01*
X43500Y09724D01*
X42525Y08749D01*
X42525Y14395D01*
X42525Y14604D01*
X42445Y14797D01*
X42298Y14945D01*
X42105Y15025D01*
X41896Y15025D01*
X41703Y14945D01*
X41555Y14798D01*
X41475Y14605D01*
X41475Y14396D01*
X41555Y14203D01*
X41702Y14055D01*
X41895Y13975D01*
X42104Y13975D01*
X42297Y14055D01*
X42445Y14202D01*
X42525Y14395D01*
X42525Y08749D01*
X41375Y07599D01*
X41085Y07599D01*
X40993Y07561D01*
X40923Y07491D01*
X40907Y07456D01*
X40861Y07502D01*
X40825Y07467D01*
X40810Y07513D01*
X40591Y07593D01*
X40356Y07582D01*
X40190Y07513D01*
X40157Y07414D01*
X40465Y07106D01*
X40500Y07071D01*
X40571Y07000D01*
X40500Y06929D01*
X40465Y06894D01*
X40429Y06858D01*
X40429Y07000D01*
X40086Y07343D01*
X40008Y07317D01*
X39930Y07343D01*
X39587Y07000D01*
X39930Y06657D01*
X40008Y06683D01*
X40086Y06657D01*
X40429Y07000D01*
X40429Y06858D01*
X40157Y06586D01*
X40190Y06487D01*
X40409Y06407D01*
X40644Y06418D01*
X40810Y06487D01*
X40825Y06534D01*
X40843Y06516D01*
X40861Y06498D01*
X40908Y06546D01*
X40923Y06509D01*
X40993Y06439D01*
X41084Y06401D01*
X41183Y06401D01*
X41883Y06401D01*
X41975Y06439D01*
X42045Y06509D01*
X42083Y06600D01*
X42083Y06699D01*
X42083Y06892D01*
X44351Y09161D01*
X44353Y09162D01*
X44354Y09162D01*
X44383Y09207D01*
X45477Y08113D01*
X45475Y08105D01*
X45475Y07896D01*
X45555Y07703D01*
X45702Y07555D01*
X45835Y07500D01*
X45703Y07445D01*
X45555Y07298D01*
X45475Y07105D01*
X45475Y06896D01*
X45555Y06703D01*
X45702Y06555D01*
X45835Y06500D01*
X45703Y06445D01*
X45555Y06298D01*
X45475Y06105D01*
X45475Y05896D01*
X45555Y05703D01*
X45702Y05555D01*
X45835Y05500D01*
X45703Y05445D01*
X45555Y05298D01*
X45475Y05105D01*
X45475Y04896D01*
X45555Y04703D01*
X45702Y04555D01*
X45835Y04500D01*
X45703Y04445D01*
X45555Y04298D01*
X45475Y04105D01*
X45475Y03896D01*
X45555Y03703D01*
X45702Y03555D01*
X45835Y03500D01*
X45703Y03445D01*
X45555Y03298D01*
X45475Y03105D01*
X45475Y02896D01*
X45555Y02703D01*
X45702Y02555D01*
X45835Y02500D01*
X45703Y02445D01*
X45555Y02298D01*
X45475Y02105D01*
X45475Y01896D01*
X45555Y01703D01*
X45702Y01555D01*
X45895Y01475D01*
X46104Y01475D01*
X46297Y01555D01*
X46445Y01702D01*
X46525Y01895D01*
X46525Y02104D01*
X46445Y02297D01*
X46298Y02445D01*
X46164Y02501D01*
X46297Y02555D01*
X46445Y02702D01*
X46525Y02895D01*
X46525Y03104D01*
X46445Y03297D01*
X46298Y03445D01*
X46164Y03501D01*
X46297Y03555D01*
X46445Y03702D01*
X46525Y03895D01*
X46525Y04104D01*
X46445Y04297D01*
X46298Y04445D01*
X46164Y04501D01*
X46297Y04555D01*
X46445Y04702D01*
X46525Y04895D01*
X46525Y05104D01*
X46445Y05297D01*
X46298Y05445D01*
X46164Y05501D01*
X46297Y05555D01*
X46445Y05702D01*
X46525Y05895D01*
X46525Y06104D01*
X46445Y06297D01*
X46298Y06445D01*
X46164Y06501D01*
X46297Y06555D01*
X46445Y06702D01*
X46525Y06895D01*
X46525Y07104D01*
X46445Y07297D01*
X46298Y07445D01*
X46164Y07501D01*
X46297Y07555D01*
X46445Y07702D01*
X46525Y07895D01*
X46525Y08104D01*
X46445Y08297D01*
X46298Y08445D01*
X46164Y08501D01*
X46297Y08555D01*
X46445Y08702D01*
X46525Y08895D01*
X46525Y09065D01*
X48477Y07113D01*
X48475Y07105D01*
X48475Y06896D01*
X48555Y06703D01*
X48702Y06555D01*
X48835Y06500D01*
X48703Y06445D01*
X48555Y06298D01*
X48475Y06105D01*
X48475Y05896D01*
X48555Y05703D01*
X48702Y05555D01*
X48835Y05500D01*
X48703Y05445D01*
X48555Y05298D01*
X48475Y05105D01*
X48475Y04896D01*
X48555Y04703D01*
X48702Y04555D01*
X48835Y04500D01*
X48703Y04445D01*
X48555Y04298D01*
X48475Y04105D01*
X48475Y03896D01*
X48555Y03703D01*
X48702Y03555D01*
X48835Y03500D01*
X48703Y03445D01*
X48555Y03298D01*
X48475Y03105D01*
X48475Y02896D01*
X48555Y02703D01*
X48702Y02555D01*
X48739Y02540D01*
X48732Y02529D01*
X48731Y02524D01*
X48676Y02524D01*
X48584Y02486D01*
X48514Y02416D01*
X48476Y02325D01*
X48476Y02226D01*
X48476Y01676D01*
X48514Y01584D01*
X48584Y01514D01*
X48675Y01476D01*
X48774Y01476D01*
X49324Y01476D01*
X49416Y01514D01*
X49486Y01584D01*
X49524Y01675D01*
X49524Y01774D01*
X49524Y02324D01*
X49486Y02416D01*
X49452Y02450D01*
X51206Y04203D01*
X51206Y03656D01*
X51244Y03564D01*
X51314Y03494D01*
X51405Y03456D01*
X51504Y03456D01*
X52094Y03456D01*
X52186Y03494D01*
X52256Y03564D01*
X52294Y03655D01*
X52294Y03687D01*
X52442Y03539D01*
X52642Y03456D01*
X52858Y03456D01*
X53058Y03539D01*
X53211Y03692D01*
X53250Y03786D01*
X53289Y03692D01*
X53442Y03539D01*
X53642Y03456D01*
X53858Y03456D01*
X54058Y03539D01*
X54211Y03692D01*
X54250Y03786D01*
X54289Y03692D01*
X54442Y03539D01*
X54642Y03456D01*
X54858Y03456D01*
X55058Y03539D01*
X55211Y03692D01*
X55254Y03797D01*
X55601Y04145D01*
X55603Y04146D01*
X55604Y04146D01*
X55668Y04244D01*
X55712Y04308D01*
X55712Y04309D01*
X55750Y04500D01*
X55751Y04500D01*
X55750Y04505D01*
X55750Y04786D01*
X55794Y04892D01*
X55794Y05108D01*
X55711Y05308D01*
X55558Y05461D01*
X55358Y05544D01*
X55142Y05544D01*
X54942Y05461D01*
X54789Y05308D01*
X54750Y05215D01*
X54711Y05308D01*
X54558Y05461D01*
X54358Y05544D01*
X54142Y05544D01*
X53942Y05461D01*
X53789Y05308D01*
X53750Y05215D01*
X53711Y05308D01*
X53558Y05461D01*
X53358Y05544D01*
X53204Y05544D01*
X54387Y06728D01*
X54395Y06725D01*
X54604Y06725D01*
X54797Y06805D01*
X54945Y06952D01*
X55025Y07145D01*
X55025Y07187D01*
X56008Y07187D01*
X55975Y07105D01*
X55975Y06896D01*
X56055Y06703D01*
X56202Y06555D01*
X56395Y06475D01*
X56604Y06475D01*
X56797Y06555D01*
X56945Y06702D01*
X57000Y06836D01*
X57055Y06703D01*
X57202Y06555D01*
X57210Y06552D01*
X57210Y04312D01*
X57232Y04201D01*
X57295Y04107D01*
X57607Y03795D01*
X57701Y03732D01*
X57706Y03732D01*
X57706Y03656D01*
X57744Y03564D01*
X57814Y03494D01*
X57905Y03456D01*
X58004Y03456D01*
X58594Y03456D01*
X58686Y03494D01*
X58756Y03564D01*
X58794Y03655D01*
X58794Y03687D01*
X58942Y03539D01*
X59142Y03456D01*
X59358Y03456D01*
X59558Y03539D01*
X59711Y03692D01*
X59750Y03786D01*
X59789Y03692D01*
X59942Y03539D01*
X60142Y03456D01*
X60358Y03456D01*
X60558Y03539D01*
X60711Y03692D01*
X60752Y03793D01*
X60782Y03721D01*
X60875Y03696D01*
X61179Y04000D01*
X60875Y04304D01*
X60782Y04279D01*
X60754Y04203D01*
X60711Y04308D01*
X60558Y04461D01*
X60358Y04544D01*
X60142Y04544D01*
X59942Y04461D01*
X59789Y04308D01*
X59750Y04215D01*
X59711Y04308D01*
X59558Y04461D01*
X59358Y04544D01*
X59142Y04544D01*
X58942Y04461D01*
X58794Y04313D01*
X58794Y04344D01*
X58756Y04436D01*
X58736Y04456D01*
X58858Y04456D01*
X59058Y04539D01*
X59211Y04692D01*
X59250Y04786D01*
X59289Y04692D01*
X59442Y04539D01*
X59642Y04456D01*
X59858Y04456D01*
X60058Y04539D01*
X60211Y04692D01*
X60250Y04786D01*
X60289Y04692D01*
X60442Y04539D01*
X60642Y04456D01*
X60858Y04456D01*
X61058Y04539D01*
X61211Y04692D01*
X61252Y04793D01*
X61282Y04721D01*
X61375Y04696D01*
X61679Y05000D01*
X61375Y05304D01*
X61282Y05279D01*
X61254Y05203D01*
X61211Y05308D01*
X61058Y05461D01*
X60858Y05544D01*
X60642Y05544D01*
X60442Y05461D01*
X60289Y05308D01*
X60250Y05215D01*
X60211Y05308D01*
X60058Y05461D01*
X59858Y05544D01*
X59642Y05544D01*
X59442Y05461D01*
X59289Y05308D01*
X59250Y05215D01*
X59211Y05308D01*
X59058Y05461D01*
X58858Y05544D01*
X58642Y05544D01*
X58442Y05461D01*
X58289Y05308D01*
X58206Y05108D01*
X58206Y04892D01*
X58289Y04692D01*
X58437Y04544D01*
X57906Y04544D01*
X57814Y04506D01*
X57790Y04482D01*
X57790Y06553D01*
X57797Y06555D01*
X57945Y06702D01*
X58000Y06836D01*
X58055Y06703D01*
X58202Y06555D01*
X58395Y06475D01*
X58604Y06475D01*
X58797Y06555D01*
X58945Y06702D01*
X59000Y06836D01*
X59055Y06703D01*
X59202Y06555D01*
X59395Y06475D01*
X59604Y06475D01*
X59797Y06555D01*
X59945Y06702D01*
X60025Y06895D01*
X60025Y07104D01*
X60021Y07112D01*
X61231Y08322D01*
X61242Y08120D01*
X61298Y07983D01*
X61389Y07960D01*
X61644Y08215D01*
X61679Y08250D01*
X61750Y08321D01*
X61785Y08356D01*
X62040Y08611D01*
X62017Y08702D01*
X61898Y08744D01*
X62047Y08805D01*
X62195Y08952D01*
X62275Y09145D01*
X62275Y05142D01*
X62269Y05156D01*
X62269Y08176D01*
X62258Y08380D01*
X62202Y08517D01*
X62111Y08540D01*
X61821Y08250D01*
X62111Y07960D01*
X62202Y07983D01*
X62269Y08176D01*
X62269Y05156D01*
X62218Y05279D01*
X62125Y05304D01*
X62054Y05233D01*
X62054Y05375D01*
X62040Y05428D01*
X62040Y07889D01*
X61750Y08179D01*
X61460Y07889D01*
X61483Y07798D01*
X61676Y07731D01*
X61880Y07742D01*
X62017Y07798D01*
X62040Y07889D01*
X62040Y05428D01*
X62029Y05468D01*
X61828Y05540D01*
X61616Y05528D01*
X61471Y05468D01*
X61446Y05375D01*
X61750Y05071D01*
X62054Y05375D01*
X62054Y05233D01*
X61821Y05000D01*
X62125Y04696D01*
X62218Y04721D01*
X62290Y04922D01*
X62290Y02467D01*
X62058Y02467D01*
X62054Y02466D01*
X62054Y04625D01*
X61750Y04929D01*
X61446Y04625D01*
X61471Y04532D01*
X61672Y04460D01*
X61884Y04472D01*
X62029Y04532D01*
X62054Y04625D01*
X62054Y02466D01*
X61790Y02357D01*
X61790Y03922D01*
X61778Y04134D01*
X61718Y04279D01*
X61625Y04304D01*
X61554Y04233D01*
X61554Y04375D01*
X61529Y04468D01*
X61328Y04540D01*
X61116Y04528D01*
X60971Y04468D01*
X60946Y04375D01*
X61250Y04071D01*
X61554Y04375D01*
X61554Y04233D01*
X61321Y04000D01*
X61625Y03696D01*
X61718Y03721D01*
X61790Y03922D01*
X61790Y02357D01*
X61703Y02320D01*
X61554Y02172D01*
X61554Y03625D01*
X61250Y03929D01*
X60946Y03625D01*
X60971Y03532D01*
X61172Y03460D01*
X61384Y03472D01*
X61529Y03532D01*
X61554Y03625D01*
X61554Y02172D01*
X61430Y02048D01*
X61283Y01693D01*
X61283Y01308D01*
X61430Y00953D01*
X61702Y00680D01*
X62057Y00533D01*
X62442Y00533D01*
X62797Y00680D01*
X63070Y00952D01*
X63217Y01307D01*
X63217Y00325D01*
X58717Y00325D01*
X58717Y01307D01*
X58717Y01692D01*
X58570Y02047D01*
X58298Y02320D01*
X57943Y02467D01*
X57558Y02467D01*
X57203Y02320D01*
X56930Y02048D01*
X56783Y01693D01*
X56783Y01308D01*
X56930Y00953D01*
X57202Y00680D01*
X57557Y00533D01*
X57942Y00533D01*
X58297Y00680D01*
X58570Y00952D01*
X58717Y01307D01*
X58717Y00325D01*
X56717Y00325D01*
X56717Y01307D01*
X56717Y01692D01*
X56570Y02047D01*
X56298Y02320D01*
X55943Y02467D01*
X55558Y02467D01*
X55203Y02320D01*
X54930Y02048D01*
X54783Y01693D01*
X54783Y01308D01*
X54930Y00953D01*
X55202Y00680D01*
X55557Y00533D01*
X55942Y00533D01*
X56297Y00680D01*
X56570Y00952D01*
X56717Y01307D01*
X56717Y00325D01*
X52217Y00325D01*
X52217Y01307D01*
X52217Y01692D01*
X52070Y02047D01*
X51798Y02320D01*
X51443Y02467D01*
X51058Y02467D01*
X50703Y02320D01*
X50430Y02048D01*
X50283Y01693D01*
X50283Y01308D01*
X50430Y00953D01*
X50702Y00680D01*
X51057Y00533D01*
X51442Y00533D01*
X51797Y00680D01*
X52070Y00952D01*
X52217Y01307D01*
X52217Y00325D01*
X44543Y00325D01*
X44543Y05921D01*
X44532Y06134D01*
X44472Y06281D01*
X44378Y06308D01*
X44308Y06238D01*
X44308Y06378D01*
X44281Y06472D01*
X44079Y06543D01*
X43866Y06532D01*
X43719Y06472D01*
X43692Y06378D01*
X44000Y06071D01*
X44308Y06378D01*
X44308Y06238D01*
X44071Y06000D01*
X44378Y05692D01*
X44472Y05719D01*
X44543Y05921D01*
X44543Y00325D01*
X44308Y00325D01*
X44308Y05622D01*
X44000Y05929D01*
X43929Y05859D01*
X43929Y06000D01*
X43622Y06308D01*
X43528Y06281D01*
X43457Y06079D01*
X43468Y05866D01*
X43528Y05719D01*
X43622Y05692D01*
X43929Y06000D01*
X43929Y05859D01*
X43692Y05622D01*
X43719Y05528D01*
X43921Y05457D01*
X44134Y05468D01*
X44281Y05528D01*
X44308Y05622D01*
X44308Y00325D01*
X41025Y00325D01*
X41025Y03888D01*
X41025Y04112D01*
X41024Y04226D01*
X41024Y04325D01*
X40986Y04416D01*
X40916Y04486D01*
X40843Y04517D01*
X40824Y04524D01*
X40612Y04525D01*
X40550Y04463D01*
X40550Y04050D01*
X40963Y04050D01*
X41025Y04112D01*
X41025Y03888D01*
X40963Y03950D01*
X40550Y03950D01*
X40550Y03537D01*
X40612Y03475D01*
X40824Y03476D01*
X40916Y03514D01*
X40986Y03584D01*
X41024Y03675D01*
X41024Y03774D01*
X41025Y03888D01*
X41025Y00325D01*
X38025Y00325D01*
X38025Y00895D01*
X38025Y01104D01*
X37945Y01297D01*
X37798Y01445D01*
X37605Y01525D01*
X37396Y01525D01*
X37203Y01445D01*
X37055Y01298D01*
X36975Y01105D01*
X36975Y00896D01*
X37055Y00703D01*
X37202Y00555D01*
X37395Y00475D01*
X37604Y00475D01*
X37797Y00555D01*
X37945Y00702D01*
X38025Y00895D01*
X38025Y00325D01*
X35025Y00325D01*
X35025Y00895D01*
X35025Y01104D01*
X34945Y01297D01*
X34798Y01445D01*
X34605Y01525D01*
X34396Y01525D01*
X34203Y01445D01*
X34055Y01298D01*
X33975Y01105D01*
X33975Y00896D01*
X34055Y00703D01*
X34202Y00555D01*
X34395Y00475D01*
X34604Y00475D01*
X34797Y00555D01*
X34945Y00702D01*
X35025Y00895D01*
X35025Y00325D01*
X27525Y00325D01*
X27525Y00895D01*
X27525Y01104D01*
X27445Y01297D01*
X27298Y01445D01*
X27105Y01525D01*
X26896Y01525D01*
X26703Y01445D01*
X26555Y01298D01*
X26475Y01105D01*
X26475Y00896D01*
X26555Y00703D01*
X26702Y00555D01*
X26895Y00475D01*
X27104Y00475D01*
X27297Y00555D01*
X27445Y00702D01*
X27525Y00895D01*
X27525Y00325D01*
X24235Y00325D01*
X24387Y00478D01*
X24395Y00475D01*
X24604Y00475D01*
X24797Y00555D01*
X24945Y00702D01*
X25000Y00836D01*
X25055Y00703D01*
X25202Y00555D01*
X25395Y00475D01*
X25604Y00475D01*
X25797Y00555D01*
X25945Y00702D01*
X26025Y00895D01*
X26025Y01104D01*
X26021Y01112D01*
X26887Y01978D01*
X26895Y01975D01*
X27104Y01975D01*
X27297Y02055D01*
X27445Y02202D01*
X27525Y02395D01*
X27525Y02604D01*
X27445Y02797D01*
X27298Y02945D01*
X27261Y02960D01*
X29129Y02960D01*
X29477Y02612D01*
X29475Y02605D01*
X29475Y02396D01*
X29555Y02203D01*
X29702Y02055D01*
X29710Y02052D01*
X29710Y01448D01*
X29703Y01445D01*
X29555Y01298D01*
X29475Y01105D01*
X29475Y00896D01*
X29555Y00703D01*
X29702Y00555D01*
X29895Y00475D01*
X30104Y00475D01*
X30297Y00555D01*
X30445Y00702D01*
X30525Y00895D01*
X30525Y01104D01*
X30445Y01297D01*
X30298Y01445D01*
X30290Y01449D01*
X30290Y02053D01*
X30297Y02055D01*
X30445Y02202D01*
X30525Y02395D01*
X30525Y02604D01*
X30525Y03895D01*
X30525Y04104D01*
X30445Y04297D01*
X30298Y04445D01*
X30105Y04525D01*
X29896Y04525D01*
X29703Y04445D01*
X29555Y04298D01*
X29543Y04270D01*
X29543Y05921D01*
X29532Y06134D01*
X29472Y06281D01*
X29378Y06308D01*
X29308Y06238D01*
X29308Y06378D01*
X29281Y06472D01*
X29079Y06543D01*
X28866Y06532D01*
X28719Y06472D01*
X28692Y06378D01*
X29000Y06071D01*
X29308Y06378D01*
X29308Y06238D01*
X29071Y06000D01*
X29378Y05692D01*
X29472Y05719D01*
X29543Y05921D01*
X29543Y04270D01*
X29475Y04105D01*
X29475Y03896D01*
X29555Y03703D01*
X29702Y03555D01*
X29895Y03475D01*
X30104Y03475D01*
X30297Y03555D01*
X30445Y03702D01*
X30525Y03895D01*
X30525Y02604D01*
X30445Y02797D01*
X30298Y02945D01*
X30105Y03025D01*
X29896Y03025D01*
X29888Y03022D01*
X29455Y03455D01*
X29361Y03518D01*
X29308Y03529D01*
X29308Y05622D01*
X29000Y05929D01*
X28929Y05859D01*
X28929Y06000D01*
X28622Y06308D01*
X28528Y06281D01*
X28457Y06079D01*
X28468Y05866D01*
X28528Y05719D01*
X28622Y05692D01*
X28929Y06000D01*
X28929Y05859D01*
X28692Y05622D01*
X28719Y05528D01*
X28921Y05457D01*
X29134Y05468D01*
X29281Y05528D01*
X29308Y05622D01*
X29308Y03529D01*
X29250Y03540D01*
X27260Y03540D01*
X27297Y03555D01*
X27445Y03702D01*
X27525Y03895D01*
X27525Y04104D01*
X27445Y04297D01*
X27298Y04445D01*
X27105Y04525D01*
X26896Y04525D01*
X26703Y04445D01*
X26555Y04298D01*
X26475Y04105D01*
X26475Y03896D01*
X26478Y03889D01*
X26025Y03436D01*
X26025Y03888D01*
X25963Y03950D01*
X25550Y03950D01*
X25550Y03537D01*
X25612Y03475D01*
X25824Y03476D01*
X25916Y03514D01*
X25986Y03584D01*
X26024Y03675D01*
X26024Y03774D01*
X26025Y03888D01*
X26025Y03436D01*
X25880Y03290D01*
X24947Y03290D01*
X24945Y03297D01*
X24798Y03445D01*
X24664Y03501D01*
X24797Y03555D01*
X24945Y03702D01*
X24975Y03777D01*
X24976Y03774D01*
X24976Y03675D01*
X25014Y03584D01*
X25084Y03514D01*
X25176Y03476D01*
X25388Y03475D01*
X25450Y03537D01*
X25450Y03900D01*
X25450Y03950D01*
X25450Y04050D01*
X25550Y04050D01*
X25600Y04050D01*
X25963Y04050D01*
X26025Y04112D01*
X26024Y04226D01*
X26024Y04325D01*
X25986Y04416D01*
X25916Y04486D01*
X25824Y04524D01*
X25612Y04525D01*
X25600Y04513D01*
X25600Y04525D01*
X25518Y04525D01*
X26835Y05842D01*
X26837Y05843D01*
X26838Y05843D01*
X26945Y06005D01*
X26946Y06006D01*
X26976Y06158D01*
X26984Y06196D01*
X26983Y06197D01*
X26984Y06197D01*
X26984Y06448D01*
X27045Y06509D01*
X27083Y06600D01*
X27083Y06699D01*
X27083Y07399D01*
X27045Y07491D01*
X26984Y07552D01*
X26984Y07739D01*
X26984Y07741D01*
X27000Y07819D01*
X27000Y09653D01*
X27008Y09661D01*
X27099Y09881D01*
X27099Y09892D01*
X27707Y10500D01*
X28773Y10500D01*
X28891Y10451D01*
X29109Y10451D01*
X29311Y10535D01*
X29465Y10689D01*
X29549Y10891D01*
X29549Y11109D01*
X29465Y11311D01*
X29311Y11465D01*
X29109Y11549D01*
X28891Y11549D01*
X28773Y11500D01*
X27500Y11500D01*
X27308Y11462D01*
X27243Y11419D01*
X27146Y11354D01*
X27144Y11352D01*
X26391Y10599D01*
X26381Y10599D01*
X26161Y10508D01*
X26000Y10347D01*
X25839Y10508D01*
X25619Y10599D01*
X25381Y10599D01*
X25161Y10508D01*
X25085Y10433D01*
X25061Y10491D01*
X24991Y10561D01*
X24900Y10599D01*
X24808Y10599D01*
X24808Y14122D01*
X24500Y14429D01*
X24429Y14359D01*
X24429Y14500D01*
X24122Y14808D01*
X24028Y14781D01*
X23957Y14579D01*
X23968Y14366D01*
X24028Y14219D01*
X24122Y14192D01*
X24429Y14500D01*
X24429Y14359D01*
X24192Y14122D01*
X24219Y14028D01*
X24421Y13957D01*
X24634Y13968D01*
X24781Y14028D01*
X24808Y14122D01*
X24808Y10599D01*
X24801Y10599D01*
X24101Y10599D01*
X24009Y10561D01*
X23939Y10491D01*
X23901Y10400D01*
X23901Y10301D01*
X23901Y09601D01*
X23939Y09509D01*
X24009Y09439D01*
X24100Y09401D01*
X24199Y09401D01*
X24899Y09401D01*
X24991Y09439D01*
X25061Y09509D01*
X25085Y09568D01*
X25161Y09492D01*
X25381Y09401D01*
X25619Y09401D01*
X25839Y09492D01*
X26000Y09653D01*
X26000Y07887D01*
X25983Y07803D01*
X25984Y07799D01*
X25984Y07552D01*
X25923Y07491D01*
X25907Y07456D01*
X25861Y07502D01*
X25825Y07467D01*
X25810Y07513D01*
X25591Y07593D01*
X25356Y07582D01*
X25190Y07513D01*
X25157Y07414D01*
X25465Y07106D01*
X25500Y07071D01*
X25571Y07000D01*
X25500Y06929D01*
X25465Y06894D01*
X25429Y06858D01*
X25429Y07000D01*
X25086Y07343D01*
X25008Y07317D01*
X24930Y07343D01*
X24859Y07272D01*
X24859Y07414D01*
X24826Y07513D01*
X24607Y07593D01*
X24372Y07582D01*
X24206Y07513D01*
X24173Y07414D01*
X24516Y07071D01*
X24859Y07414D01*
X24859Y07272D01*
X24587Y07000D01*
X24930Y06657D01*
X25008Y06683D01*
X25086Y06657D01*
X25429Y07000D01*
X25429Y06858D01*
X25157Y06586D01*
X25190Y06487D01*
X25409Y06407D01*
X25644Y06418D01*
X25810Y06487D01*
X25825Y06534D01*
X25843Y06516D01*
X25861Y06498D01*
X25908Y06546D01*
X25923Y06509D01*
X25984Y06448D01*
X25984Y06405D01*
X25843Y06264D01*
X24859Y05280D01*
X24859Y06586D01*
X24516Y06929D01*
X24445Y06858D01*
X24445Y07000D01*
X24102Y07343D01*
X24003Y07310D01*
X23923Y07091D01*
X23934Y06856D01*
X24003Y06690D01*
X24102Y06657D01*
X24445Y07000D01*
X24445Y06858D01*
X24173Y06586D01*
X24206Y06487D01*
X24425Y06407D01*
X24660Y06418D01*
X24826Y06487D01*
X24859Y06586D01*
X24859Y05280D01*
X24457Y04878D01*
X24457Y05440D01*
X24435Y05551D01*
X24372Y05645D01*
X22598Y07419D01*
X22598Y09828D01*
X22668Y09898D01*
X22733Y10054D01*
X22733Y10223D01*
X22669Y10379D01*
X22550Y10498D01*
X22550Y13388D01*
X22550Y13612D01*
X22550Y15388D01*
X22488Y15450D01*
X22050Y15450D01*
X22050Y15012D01*
X22112Y14950D01*
X22349Y14951D01*
X22441Y14989D01*
X22511Y15059D01*
X22549Y15150D01*
X22549Y15249D01*
X22550Y15388D01*
X22550Y13612D01*
X22549Y13751D01*
X22549Y13850D01*
X22511Y13941D01*
X22441Y14011D01*
X22349Y14049D01*
X22112Y14050D01*
X22050Y13988D01*
X22050Y13550D01*
X22488Y13550D01*
X22550Y13612D01*
X22550Y13388D01*
X22488Y13450D01*
X22050Y13450D01*
X22050Y13012D01*
X22112Y12950D01*
X22349Y12951D01*
X22441Y12989D01*
X22511Y13059D01*
X22549Y13150D01*
X22549Y13249D01*
X22550Y13388D01*
X22550Y10498D01*
X22549Y10499D01*
X22393Y10564D01*
X22224Y10564D01*
X22068Y10500D01*
X22049Y10481D01*
X22049Y10891D01*
X22049Y11109D01*
X21965Y11311D01*
X21811Y11465D01*
X21609Y11549D01*
X21391Y11549D01*
X21189Y11465D01*
X21035Y11311D01*
X20951Y11109D01*
X20951Y10891D01*
X21035Y10689D01*
X21189Y10535D01*
X21391Y10451D01*
X21609Y10451D01*
X21811Y10535D01*
X21965Y10689D01*
X22049Y10891D01*
X22049Y10481D01*
X21948Y10380D01*
X21883Y10224D01*
X21883Y10055D01*
X21947Y09899D01*
X22018Y09828D01*
X22018Y07299D01*
X22040Y07188D01*
X22103Y07094D01*
X23548Y05649D01*
X23443Y05544D01*
X23378Y05388D01*
X23378Y05289D01*
X22611Y04523D01*
X22605Y04525D01*
X22396Y04525D01*
X22203Y04445D01*
X22055Y04298D01*
X22043Y04270D01*
X22043Y05921D01*
X22032Y06134D01*
X21972Y06281D01*
X21878Y06308D01*
X21808Y06238D01*
X21808Y06378D01*
X21781Y06472D01*
X21579Y06543D01*
X21366Y06532D01*
X21219Y06472D01*
X21192Y06378D01*
X21500Y06071D01*
X21808Y06378D01*
X21808Y06238D01*
X21571Y06000D01*
X21878Y05692D01*
X21972Y05719D01*
X22043Y05921D01*
X22043Y04270D01*
X21975Y04105D01*
X21975Y03896D01*
X22055Y03703D01*
X22187Y03570D01*
X21808Y03570D01*
X21808Y05622D01*
X21500Y05929D01*
X21429Y05859D01*
X21429Y06000D01*
X21122Y06308D01*
X21028Y06281D01*
X20957Y06079D01*
X20968Y05866D01*
X21028Y05719D01*
X21122Y05692D01*
X21429Y06000D01*
X21429Y05859D01*
X21192Y05622D01*
X21219Y05528D01*
X21421Y05457D01*
X21634Y05468D01*
X21781Y05528D01*
X21808Y05622D01*
X21808Y03570D01*
X19812Y03570D01*
X19945Y03702D01*
X20025Y03895D01*
X20025Y04104D01*
X19945Y04297D01*
X19798Y04445D01*
X19605Y04525D01*
X19396Y04525D01*
X19203Y04445D01*
X19055Y04298D01*
X19002Y04172D01*
X18524Y03693D01*
X18524Y03774D01*
X18525Y03888D01*
X18525Y04112D01*
X18524Y04226D01*
X18524Y04325D01*
X18486Y04416D01*
X18416Y04486D01*
X18343Y04517D01*
X18324Y04524D01*
X18112Y04525D01*
X18050Y04463D01*
X18050Y04050D01*
X18463Y04050D01*
X18525Y04112D01*
X18525Y03888D01*
X18463Y03950D01*
X18050Y03950D01*
X18050Y03537D01*
X18112Y03475D01*
X18306Y03476D01*
X18121Y03290D01*
X17447Y03290D01*
X17445Y03297D01*
X17298Y03445D01*
X17164Y03501D01*
X17297Y03555D01*
X17445Y03702D01*
X17475Y03777D01*
X17476Y03774D01*
X17476Y03675D01*
X17514Y03584D01*
X17584Y03514D01*
X17676Y03476D01*
X17888Y03475D01*
X17950Y03537D01*
X17950Y03900D01*
X17950Y03950D01*
X17950Y04050D01*
X17950Y04100D01*
X17950Y04463D01*
X17888Y04525D01*
X17676Y04524D01*
X17584Y04486D01*
X17514Y04416D01*
X17500Y04383D01*
X17500Y04952D01*
X17816Y05268D01*
X17924Y05430D01*
X17963Y05621D01*
X17924Y05813D01*
X17816Y05975D01*
X17654Y06083D01*
X17462Y06122D01*
X17271Y06083D01*
X17109Y05975D01*
X16712Y05579D01*
X16712Y06485D01*
X16925Y06407D01*
X17160Y06418D01*
X17326Y06487D01*
X17359Y06586D01*
X17051Y06894D01*
X17016Y06929D01*
X16945Y07000D01*
X17016Y07071D01*
X17051Y07106D01*
X17359Y07414D01*
X17326Y07513D01*
X17107Y07593D01*
X16872Y07582D01*
X16712Y07516D01*
X16712Y08809D01*
X17205Y09302D01*
X17268Y09396D01*
X17268Y09401D01*
X17399Y09401D01*
X17491Y09439D01*
X17561Y09509D01*
X17585Y09568D01*
X17661Y09492D01*
X17881Y09401D01*
X18119Y09401D01*
X18339Y09492D01*
X18500Y09653D01*
X18500Y07887D01*
X18483Y07803D01*
X18484Y07799D01*
X18484Y07552D01*
X18423Y07491D01*
X18407Y07456D01*
X18361Y07502D01*
X18325Y07467D01*
X18310Y07513D01*
X18091Y07593D01*
X17856Y07582D01*
X17690Y07513D01*
X17657Y07414D01*
X17965Y07106D01*
X18000Y07071D01*
X18071Y07000D01*
X18000Y06929D01*
X17965Y06894D01*
X17929Y06858D01*
X17929Y07000D01*
X17586Y07343D01*
X17508Y07317D01*
X17430Y07343D01*
X17087Y07000D01*
X17430Y06657D01*
X17508Y06683D01*
X17586Y06657D01*
X17929Y07000D01*
X17929Y06858D01*
X17657Y06586D01*
X17690Y06487D01*
X17909Y06407D01*
X18144Y06418D01*
X18310Y06487D01*
X18325Y06534D01*
X18343Y06516D01*
X18361Y06498D01*
X18408Y06546D01*
X18423Y06509D01*
X18493Y06439D01*
X18584Y06401D01*
X18683Y06401D01*
X19383Y06401D01*
X19475Y06439D01*
X19545Y06509D01*
X19583Y06600D01*
X19583Y06699D01*
X19583Y07399D01*
X19545Y07491D01*
X19484Y07552D01*
X19484Y07739D01*
X19484Y07741D01*
X19500Y07819D01*
X19500Y09653D01*
X19508Y09661D01*
X19599Y09881D01*
X19599Y10119D01*
X19508Y10339D01*
X19339Y10508D01*
X19119Y10599D01*
X18881Y10599D01*
X18661Y10508D01*
X18500Y10347D01*
X18339Y10508D01*
X18119Y10599D01*
X17881Y10599D01*
X17661Y10508D01*
X17585Y10433D01*
X17561Y10491D01*
X17491Y10561D01*
X17400Y10599D01*
X17301Y10599D01*
X16601Y10599D01*
X16509Y10561D01*
X16439Y10491D01*
X16401Y10400D01*
X16401Y10301D01*
X16401Y09601D01*
X16439Y09509D01*
X16509Y09439D01*
X16518Y09436D01*
X16217Y09134D01*
X16154Y09040D01*
X16132Y08929D01*
X16132Y05518D01*
X12159Y09491D01*
X12145Y09500D01*
X12995Y09500D01*
X13000Y09499D01*
X13000Y09500D01*
X13191Y09538D01*
X13192Y09538D01*
X13354Y09646D01*
X14193Y10486D01*
X14311Y10535D01*
X14465Y10689D01*
X14549Y10891D01*
X14549Y11109D01*
X14465Y11311D01*
X14311Y11465D01*
X14109Y11549D01*
X13891Y11549D01*
X13689Y11465D01*
X13535Y11311D01*
X13485Y11194D01*
X12792Y10500D01*
X11964Y10500D01*
X12087Y10582D01*
X15351Y13848D01*
X15353Y13849D01*
X15354Y13849D01*
X15418Y13947D01*
X15462Y14011D01*
X15462Y14012D01*
X15500Y14203D01*
X15500Y14274D01*
X15535Y14189D01*
X15689Y14035D01*
X15891Y13951D01*
X16109Y13951D01*
X16311Y14035D01*
X16465Y14189D01*
X16500Y14274D01*
X16535Y14189D01*
X16689Y14035D01*
X16891Y13951D01*
X17109Y13951D01*
X17311Y14035D01*
X17465Y14189D01*
X17500Y14274D01*
X17535Y14189D01*
X17689Y14035D01*
X17891Y13951D01*
X18109Y13951D01*
X18311Y14035D01*
X18465Y14189D01*
X18500Y14274D01*
X18535Y14189D01*
X18689Y14035D01*
X18891Y13951D01*
X19109Y13951D01*
X19226Y14000D01*
X19271Y14000D01*
X19276Y13999D01*
X19276Y14000D01*
X19467Y14038D01*
X19468Y14038D01*
X19630Y14146D01*
X20138Y14656D01*
X20140Y14657D01*
X20141Y14657D01*
X20248Y14819D01*
X20249Y14820D01*
X20287Y15011D01*
X20287Y15544D01*
X20521Y15778D01*
X20451Y15609D01*
X20451Y15391D01*
X20500Y15274D01*
X20500Y13727D01*
X20451Y13609D01*
X20451Y13391D01*
X20535Y13189D01*
X20689Y13035D01*
X20891Y12951D01*
X21109Y12951D01*
X21311Y13035D01*
X21451Y13175D01*
X21451Y13150D01*
X21489Y13059D01*
X21559Y12989D01*
X21651Y12951D01*
X21888Y12950D01*
X21950Y13012D01*
X21950Y13400D01*
X21950Y13450D01*
X21950Y13550D01*
X21950Y13600D01*
X21950Y13988D01*
X21888Y14050D01*
X21651Y14049D01*
X21559Y14011D01*
X21500Y13952D01*
X21500Y15048D01*
X21559Y14989D01*
X21651Y14951D01*
X21888Y14950D01*
X21950Y15012D01*
X21950Y15400D01*
X21950Y15450D01*
X21950Y15550D01*
X22050Y15550D01*
X22100Y15550D01*
X22488Y15550D01*
X22550Y15612D01*
X22549Y15751D01*
X22549Y15850D01*
X22538Y15875D01*
X34511Y15875D01*
X36889Y13497D01*
X36825Y13524D01*
X36726Y13524D01*
X36176Y13524D01*
X36117Y13500D01*
X35979Y13500D01*
X34890Y14590D01*
X34728Y14698D01*
X34539Y14737D01*
X34599Y14881D01*
X34599Y15119D01*
X34508Y15339D01*
X34339Y15508D01*
X34119Y15599D01*
X33881Y15599D01*
X33661Y15508D01*
X33500Y15347D01*
X33339Y15508D01*
X33119Y15599D01*
X32881Y15599D01*
X32661Y15508D01*
X32585Y15433D01*
X32561Y15491D01*
X32491Y15561D01*
X32400Y15599D01*
X32301Y15599D01*
X32112Y15600D01*
X32050Y15538D01*
X32050Y15100D01*
X32050Y15050D01*
X32050Y14950D01*
X32050Y14900D01*
X32050Y14462D01*
X32112Y14400D01*
X32301Y14401D01*
X32400Y14401D01*
X32491Y14439D01*
X32561Y14509D01*
X32585Y14568D01*
X32661Y14492D01*
X32881Y14401D01*
X33119Y14401D01*
X33339Y14492D01*
X33500Y14653D01*
X33500Y14444D01*
X33221Y14165D01*
X31950Y14165D01*
X31950Y14462D01*
X31950Y14950D01*
X31950Y15050D01*
X31950Y15538D01*
X31888Y15600D01*
X31699Y15599D01*
X31600Y15599D01*
X31509Y15561D01*
X31439Y15491D01*
X31401Y15399D01*
X31400Y15112D01*
X31462Y15050D01*
X31950Y15050D01*
X31950Y14950D01*
X31462Y14950D01*
X31400Y14888D01*
X31401Y14601D01*
X31439Y14509D01*
X31509Y14439D01*
X31600Y14401D01*
X31699Y14401D01*
X31888Y14400D01*
X31950Y14462D01*
X31950Y14165D01*
X29043Y14165D01*
X28956Y14165D01*
X28966Y14175D01*
X28933Y14208D01*
X28972Y14219D01*
X29043Y14421D01*
X29032Y14634D01*
X28972Y14781D01*
X28878Y14808D01*
X28808Y14738D01*
X28808Y14878D01*
X28781Y14972D01*
X28579Y15043D01*
X28366Y15032D01*
X28219Y14972D01*
X28192Y14878D01*
X28500Y14571D01*
X28808Y14878D01*
X28808Y14738D01*
X28571Y14500D01*
X28500Y14429D01*
X28429Y14500D01*
X28394Y14535D01*
X28122Y14808D01*
X28049Y14788D01*
X28049Y14849D01*
X28011Y14941D01*
X27941Y15011D01*
X27850Y15049D01*
X27751Y15049D01*
X27151Y15049D01*
X27059Y15011D01*
X26989Y14941D01*
X26951Y14850D01*
X26951Y14751D01*
X26951Y14510D01*
X26607Y14854D01*
X26445Y14962D01*
X26253Y15001D01*
X26248Y15000D01*
X25952Y15000D01*
X25941Y15011D01*
X25850Y15049D01*
X25751Y15049D01*
X25151Y15049D01*
X25059Y15011D01*
X24989Y14941D01*
X24951Y14850D01*
X24951Y14788D01*
X24878Y14808D01*
X24808Y14738D01*
X24808Y14878D01*
X24781Y14972D01*
X24579Y15043D01*
X24366Y15032D01*
X24219Y14972D01*
X24192Y14878D01*
X24500Y14571D01*
X24808Y14878D01*
X24808Y14738D01*
X24571Y14500D01*
X24878Y14192D01*
X24951Y14213D01*
X24951Y14151D01*
X24989Y14059D01*
X25059Y13989D01*
X25150Y13951D01*
X25249Y13951D01*
X25849Y13951D01*
X25941Y13989D01*
X25952Y14000D01*
X26045Y14000D01*
X26732Y13314D01*
X26734Y13311D01*
X26896Y13204D01*
X26897Y13203D01*
X27049Y13173D01*
X27087Y13165D01*
X27087Y13166D01*
X27088Y13165D01*
X33424Y13165D01*
X33429Y13164D01*
X33429Y13165D01*
X33620Y13203D01*
X33621Y13203D01*
X33783Y13311D01*
X34207Y13736D01*
X34328Y13736D01*
X35416Y12649D01*
X35418Y12646D01*
X35580Y12539D01*
X35581Y12538D01*
X35733Y12508D01*
X35771Y12500D01*
X35771Y12501D01*
X35772Y12500D01*
X36117Y12500D01*
X36175Y12476D01*
X36274Y12476D01*
X36824Y12476D01*
X36916Y12514D01*
X36986Y12584D01*
X37024Y12675D01*
X37024Y12774D01*
X37024Y13324D01*
X36996Y13391D01*
X37359Y13028D01*
X37359Y12720D01*
X37358Y12715D01*
X37397Y12523D01*
X37505Y12361D01*
X38752Y11115D01*
X38643Y11069D01*
X38523Y10949D01*
X38458Y10793D01*
X38458Y10693D01*
X37371Y09606D01*
X37371Y11435D01*
X37370Y11436D01*
X37349Y11546D01*
X37348Y11547D01*
X37327Y11578D01*
X37286Y11640D01*
X37286Y11641D01*
X37050Y11876D01*
X36956Y11939D01*
X36845Y11961D01*
X33671Y11961D01*
X33560Y11939D01*
X33466Y11876D01*
X32189Y10599D01*
X31601Y10599D01*
X31509Y10561D01*
X31439Y10491D01*
X31401Y10400D01*
X31401Y10301D01*
X31401Y09601D01*
X31439Y09509D01*
X31509Y09439D01*
X31600Y09401D01*
X31699Y09401D01*
X32399Y09401D01*
X32491Y09439D01*
X32561Y09509D01*
X32585Y09568D01*
X32661Y09492D01*
X32881Y09401D01*
X33119Y09401D01*
X33339Y09492D01*
X33500Y09653D01*
X33500Y07887D01*
X33483Y07803D01*
X33484Y07799D01*
X33484Y07552D01*
X33423Y07491D01*
X33407Y07456D01*
X33361Y07502D01*
X33325Y07467D01*
X33310Y07513D01*
X33091Y07593D01*
X32856Y07582D01*
X32690Y07513D01*
X32657Y07414D01*
X32965Y07106D01*
X33000Y07071D01*
X33071Y07000D01*
X33000Y06929D01*
X32965Y06894D01*
X32929Y06858D01*
X32929Y07000D01*
X32586Y07343D01*
X32508Y07317D01*
X32430Y07343D01*
X32359Y07272D01*
X32359Y07414D01*
X32326Y07513D01*
X32107Y07593D01*
X31872Y07582D01*
X31706Y07513D01*
X31673Y07414D01*
X32016Y07071D01*
X32359Y07414D01*
X32359Y07272D01*
X32087Y07000D01*
X32430Y06657D01*
X32508Y06683D01*
X32586Y06657D01*
X32929Y07000D01*
X32929Y06858D01*
X32657Y06586D01*
X32690Y06487D01*
X32909Y06407D01*
X33144Y06418D01*
X33310Y06487D01*
X33325Y06534D01*
X33343Y06516D01*
X33361Y06498D01*
X33408Y06546D01*
X33423Y06509D01*
X33493Y06439D01*
X33584Y06401D01*
X33683Y06401D01*
X34383Y06401D01*
X34475Y06439D01*
X34545Y06509D01*
X34583Y06600D01*
X34583Y06699D01*
X34583Y07399D01*
X34545Y07491D01*
X34484Y07552D01*
X34484Y07739D01*
X34484Y07741D01*
X34500Y07819D01*
X34500Y09500D01*
X35495Y09500D01*
X35500Y09499D01*
X35500Y09500D01*
X35691Y09538D01*
X35692Y09538D01*
X35854Y09646D01*
X36693Y10486D01*
X36791Y10527D01*
X36791Y06438D01*
X36781Y06472D01*
X36579Y06543D01*
X36366Y06532D01*
X36219Y06472D01*
X36192Y06378D01*
X36465Y06106D01*
X36500Y06071D01*
X36571Y06000D01*
X36500Y05929D01*
X36429Y05859D01*
X36429Y06000D01*
X36122Y06308D01*
X36028Y06281D01*
X35957Y06079D01*
X35968Y05866D01*
X36028Y05719D01*
X36122Y05692D01*
X36429Y06000D01*
X36429Y05859D01*
X36192Y05622D01*
X36219Y05528D01*
X36372Y05474D01*
X35189Y04290D01*
X34947Y04290D01*
X34945Y04297D01*
X34798Y04445D01*
X34605Y04525D01*
X34396Y04525D01*
X34203Y04445D01*
X34055Y04298D01*
X33975Y04105D01*
X33975Y03896D01*
X33978Y03889D01*
X33525Y03436D01*
X33525Y03888D01*
X33525Y04112D01*
X33524Y04226D01*
X33524Y04325D01*
X33486Y04416D01*
X33416Y04486D01*
X33343Y04517D01*
X33324Y04524D01*
X33112Y04525D01*
X33050Y04463D01*
X33050Y04050D01*
X33463Y04050D01*
X33525Y04112D01*
X33525Y03888D01*
X33463Y03950D01*
X33050Y03950D01*
X33050Y03537D01*
X33112Y03475D01*
X33324Y03476D01*
X33416Y03514D01*
X33486Y03584D01*
X33524Y03675D01*
X33524Y03774D01*
X33525Y03888D01*
X33525Y03436D01*
X33380Y03290D01*
X32447Y03290D01*
X32445Y03297D01*
X32298Y03445D01*
X32164Y03501D01*
X32297Y03555D01*
X32445Y03702D01*
X32475Y03777D01*
X32476Y03774D01*
X32476Y03675D01*
X32514Y03584D01*
X32584Y03514D01*
X32676Y03476D01*
X32888Y03475D01*
X32950Y03537D01*
X32950Y03900D01*
X32950Y03950D01*
X32950Y04050D01*
X32950Y04100D01*
X32950Y04463D01*
X32888Y04525D01*
X32676Y04524D01*
X32584Y04486D01*
X32514Y04416D01*
X32500Y04383D01*
X32500Y04800D01*
X33081Y05381D01*
X33189Y05543D01*
X33228Y05735D01*
X33189Y05926D01*
X33081Y06088D01*
X32919Y06196D01*
X32728Y06235D01*
X32536Y06196D01*
X32374Y06088D01*
X32359Y06074D01*
X32359Y06586D01*
X32016Y06929D01*
X31945Y06858D01*
X31945Y07000D01*
X31602Y07343D01*
X31503Y07310D01*
X31423Y07091D01*
X31434Y06856D01*
X31503Y06690D01*
X31602Y06657D01*
X31945Y07000D01*
X31945Y06858D01*
X31673Y06586D01*
X31706Y06487D01*
X31925Y06407D01*
X32160Y06418D01*
X32326Y06487D01*
X32359Y06586D01*
X32359Y06074D01*
X31646Y05361D01*
X31538Y05199D01*
X31499Y05007D01*
X31500Y05003D01*
X31500Y04166D01*
X31475Y04105D01*
X31475Y03896D01*
X31555Y03703D01*
X31702Y03555D01*
X31835Y03500D01*
X31703Y03445D01*
X31555Y03298D01*
X31475Y03105D01*
X31475Y02896D01*
X31555Y02703D01*
X31702Y02555D01*
X31895Y02475D01*
X32104Y02475D01*
X32297Y02555D01*
X32445Y02702D01*
X32448Y02710D01*
X33500Y02710D01*
X33611Y02732D01*
X33705Y02795D01*
X34387Y03478D01*
X34395Y03475D01*
X34604Y03475D01*
X34797Y03555D01*
X34945Y03702D01*
X34948Y03710D01*
X35300Y03710D01*
X34612Y03023D01*
X34605Y03025D01*
X34396Y03025D01*
X34203Y02945D01*
X34055Y02798D01*
X33975Y02605D01*
X33975Y02396D01*
X34055Y02203D01*
X34202Y02055D01*
X34395Y01975D01*
X34604Y01975D01*
X34797Y02055D01*
X34945Y02202D01*
X35025Y02395D01*
X35025Y02604D01*
X35021Y02612D01*
X37468Y05058D01*
X37468Y05059D01*
X37469Y05059D01*
X37531Y05152D01*
X37532Y05153D01*
X37553Y05263D01*
X37554Y05264D01*
X37554Y08969D01*
X38868Y10283D01*
X38901Y10283D01*
X38901Y09601D01*
X38939Y09509D01*
X39009Y09439D01*
X39017Y09436D01*
X38714Y09131D01*
X38651Y09037D01*
X38629Y08926D01*
X38629Y07951D01*
X38611Y07969D01*
X38455Y08034D01*
X38286Y08034D01*
X38130Y07970D01*
X38010Y07850D01*
X37945Y07694D01*
X37945Y07525D01*
X38009Y07369D01*
X38080Y07298D01*
X38080Y04990D01*
X37612Y04523D01*
X37605Y04525D01*
X37396Y04525D01*
X37203Y04445D01*
X37055Y04298D01*
X36975Y04105D01*
X36975Y03896D01*
X37055Y03703D01*
X37202Y03555D01*
X37395Y03475D01*
X37604Y03475D01*
X37797Y03555D01*
X37945Y03702D01*
X38025Y03895D01*
X38025Y04104D01*
X38021Y04112D01*
X38575Y04665D01*
X38629Y04746D01*
X38629Y03702D01*
X37835Y02908D01*
X37798Y02945D01*
X37605Y03025D01*
X37396Y03025D01*
X37203Y02945D01*
X37055Y02798D01*
X36975Y02605D01*
X36975Y02396D01*
X37055Y02203D01*
X37202Y02055D01*
X37395Y01975D01*
X37604Y01975D01*
X37797Y02055D01*
X37945Y02202D01*
X37960Y02240D01*
X38043Y02295D01*
X38919Y03171D01*
X38977Y03112D01*
X38975Y03105D01*
X38975Y02896D01*
X39055Y02703D01*
X39202Y02555D01*
X39395Y02475D01*
X39604Y02475D01*
X39797Y02555D01*
X39945Y02702D01*
X40025Y02895D01*
X40025Y03104D01*
X39945Y03297D01*
X39798Y03445D01*
X39664Y03501D01*
X39797Y03555D01*
X39945Y03702D01*
X39975Y03777D01*
X39976Y03774D01*
X39976Y03675D01*
X40014Y03584D01*
X40084Y03514D01*
X40176Y03476D01*
X40388Y03475D01*
X40450Y03537D01*
X40450Y03900D01*
X40450Y03950D01*
X40450Y04050D01*
X40450Y04100D01*
X40450Y04463D01*
X40388Y04525D01*
X40176Y04524D01*
X40084Y04486D01*
X40014Y04416D01*
X40000Y04383D01*
X40000Y05344D01*
X40028Y05372D01*
X40136Y05534D01*
X40175Y05726D01*
X40136Y05917D01*
X40028Y06079D01*
X39866Y06187D01*
X39675Y06226D01*
X39483Y06187D01*
X39321Y06079D01*
X39209Y05968D01*
X39209Y06486D01*
X39425Y06407D01*
X39660Y06418D01*
X39826Y06487D01*
X39859Y06586D01*
X39551Y06894D01*
X39516Y06929D01*
X39445Y07000D01*
X39516Y07071D01*
X39551Y07106D01*
X39859Y07414D01*
X39826Y07513D01*
X39607Y07593D01*
X39372Y07582D01*
X39209Y07515D01*
X39209Y08806D01*
X39705Y09301D01*
X39705Y09302D01*
X39768Y09396D01*
X39768Y09401D01*
X39899Y09401D01*
X39991Y09439D01*
X40061Y09509D01*
X40085Y09568D01*
X40161Y09492D01*
X40381Y09401D01*
X40619Y09401D01*
X40839Y09492D01*
X41000Y09653D01*
X41161Y09492D01*
X41381Y09401D01*
X41619Y09401D01*
X41839Y09492D01*
X42008Y09661D01*
X42099Y09881D01*
X42099Y10119D01*
X42008Y10339D01*
X41839Y10508D01*
X41619Y10599D01*
X41381Y10599D01*
X41161Y10508D01*
X41043Y10390D01*
X41043Y12421D01*
X41032Y12634D01*
X40972Y12781D01*
X40878Y12808D01*
X40808Y12738D01*
X40808Y12878D01*
X40781Y12972D01*
X40579Y13043D01*
X40366Y13032D01*
X40219Y12972D01*
X40192Y12878D01*
X40500Y12571D01*
X40808Y12878D01*
X40808Y12738D01*
X40571Y12500D01*
X40878Y12192D01*
X40972Y12219D01*
X41043Y12421D01*
X41043Y10390D01*
X41000Y10347D01*
X41000Y10688D01*
X41000Y10692D01*
X41001Y10692D01*
X40962Y10883D01*
X40962Y10884D01*
X40918Y10949D01*
X40854Y11046D01*
X40851Y11048D01*
X40808Y11092D01*
X40808Y12122D01*
X40500Y12429D01*
X40192Y12122D01*
X40219Y12028D01*
X40421Y11957D01*
X40634Y11968D01*
X40781Y12028D01*
X40808Y12122D01*
X40808Y11092D01*
X40180Y11720D01*
X40018Y11828D01*
X39826Y11867D01*
X39821Y11866D01*
X39415Y11866D01*
X39330Y11951D01*
X39849Y11951D01*
X39941Y11989D01*
X40011Y12059D01*
X40049Y12150D01*
X40049Y12213D01*
X40122Y12192D01*
X40429Y12500D01*
X40122Y12808D01*
X40049Y12788D01*
X40049Y12849D01*
X40011Y12941D01*
X39941Y13011D01*
X39850Y13049D01*
X39768Y13049D01*
X39768Y13054D01*
X39705Y13148D01*
X39435Y13418D01*
X39435Y14051D01*
X39589Y14051D01*
X39754Y14119D01*
X39880Y14245D01*
X39949Y14410D01*
X39949Y14589D01*
X39882Y14751D01*
X39949Y14910D01*
X39949Y15089D01*
X39899Y15210D01*
X41500Y15210D01*
X41611Y15232D01*
X41705Y15295D01*
X41887Y15478D01*
X41895Y15475D01*
X42104Y15475D01*
X42297Y15555D01*
X42445Y15702D01*
X42525Y15895D01*
X42525Y16104D01*
X42445Y16297D01*
X42298Y16445D01*
X42105Y16525D01*
X41896Y16525D01*
X41703Y16445D01*
X41555Y16298D01*
X41475Y16105D01*
X41475Y15896D01*
X41478Y15889D01*
X41380Y15790D01*
X39845Y15790D01*
X39755Y15880D01*
X39590Y15949D01*
X39411Y15949D01*
X39246Y15881D01*
X39120Y15755D01*
X39051Y15590D01*
X39051Y15411D01*
X39117Y15250D01*
X39051Y15090D01*
X39051Y14961D01*
X38940Y14850D01*
X38877Y14756D01*
X38855Y14645D01*
X38855Y13298D01*
X38877Y13187D01*
X38940Y13093D01*
X39040Y12993D01*
X38989Y12941D01*
X38951Y12850D01*
X38951Y12751D01*
X38951Y12331D01*
X38359Y12923D01*
X38359Y13235D01*
X38321Y13426D01*
X38320Y13427D01*
X38213Y13589D01*
X38210Y13591D01*
X36278Y15524D01*
X36395Y15475D01*
X36604Y15475D01*
X36797Y15555D01*
X36945Y15702D01*
X37025Y15895D01*
X37025Y16104D01*
X36945Y16297D01*
X36798Y16445D01*
X36605Y16525D01*
X36396Y16525D01*
X36203Y16445D01*
X36055Y16298D01*
X35975Y16105D01*
X35975Y15896D01*
X36024Y15778D01*
X35126Y16675D01*
X65000Y16675D01*
X65675Y16675D01*
X65675Y00325D01*
M02*
